<svg width="343" height="108" viewBox="0 0 343 108" fill="none" xmlns="http://www.w3.org/2000/svg">
<path d="M53.7508 0.450195H289.251C318.951 0.450195 342.951 24.5252 342.951 54.1502C342.951 83.8502 318.876 107.85 289.251 107.85H53.7508C24.0508 107.85 0.0507812 83.7752 0.0507812 54.1502C0.0507812 24.5252 24.1258 0.450195 53.7508 0.450195Z" fill="white"/>
<path d="M53.7516 1.5H289.252C318.352 1.5 341.902 25.05 341.902 54.15C341.902 83.25 318.352 106.8 289.252 106.8H53.7516C24.6516 106.8 1.10156 83.25 1.10156 54.15C1.10156 25.05 24.6516 1.5 53.7516 1.5Z" stroke="#010202" stroke-opacity="0.3" stroke-width="2.1"/>
<path fill-rule="evenodd" clip-rule="evenodd" d="M128.45 29.1001C130.4 29.1001 131.975 29.6251 133.1 30.7501C134.225 31.8751 134.825 33.3751 134.825 35.1751C134.825 36.9751 134.3 38.4751 133.1 39.6001C131.9 40.7251 130.4 41.3251 128.45 41.3251H124.775V29.1001H128.45ZM126.65 30.9001V39.6001H128.45C129.8 39.6001 130.85 39.2251 131.675 38.4001C132.5 37.5751 132.875 36.5251 132.875 35.2501C132.875 33.9001 132.5 32.8501 131.675 32.1001C130.925 31.2751 129.8 30.9001 128.45 30.9001H126.65Z" fill="#010202"/>
<path fill-rule="evenodd" clip-rule="evenodd" d="M144.35 33.4504C145.25 34.3504 145.7 35.4754 145.7 36.8254C145.7 38.1754 145.25 39.3004 144.35 40.2004C143.45 41.1004 142.325 41.5504 141.05 41.5504C139.7 41.4754 138.65 41.0254 137.75 40.1254C136.85 39.2254 136.4 38.1004 136.4 36.7504C136.4 35.4004 136.85 34.2754 137.75 33.3754C138.65 32.4754 139.775 32.0254 141.05 32.0254C142.325 32.0254 143.375 32.4754 144.35 33.4504ZM139.1 34.7254C138.575 35.2504 138.35 36.0004 138.35 36.8254C138.35 37.6504 138.575 38.3254 139.1 38.9254C139.625 39.4504 140.3 39.7504 141.05 39.7504C141.8 39.7504 142.475 39.4504 143 38.9254C143.45 38.4004 143.75 37.6504 143.75 36.8254C143.75 36.0004 143.525 35.2504 143 34.7254C142.475 34.1254 141.8 33.8254 141.05 33.8254C140.3 33.8254 139.625 34.1254 139.1 34.7254Z" fill="#010202"/>
<path d="M156.725 38.1004L154.025 32.0254H153.35L150.725 38.1754L148.4 32.2504H146.375L150.275 41.5504H150.95L153.725 35.4754L156.5 41.5504H157.175L161 32.2504H158.975L156.725 38.1004Z" fill="#010202"/>
<path d="M167 32.0254C165.95 32.0254 165.05 32.4004 164.375 33.1504V32.2504H162.65V41.3254H164.525V35.9254C164.525 34.6504 165.35 33.8254 166.55 33.8254C167.675 33.8254 168.425 34.6504 168.425 35.9254V41.3254H170.3V35.6254C170.3 33.4504 169.025 32.0254 167 32.0254Z" fill="#010202"/>
<path d="M172.852 27.4502V41.3252H174.727V27.4502H172.852Z" fill="#010202"/>
<path fill-rule="evenodd" clip-rule="evenodd" d="M184.776 33.4504C185.676 34.3504 186.126 35.4754 186.126 36.8254C186.126 38.1754 185.676 39.3004 184.776 40.2004C183.876 41.1004 182.751 41.5504 181.476 41.5504C180.126 41.4754 179.076 41.0254 178.176 40.1254C177.276 39.2254 176.826 38.1004 176.826 36.7504C176.826 35.4004 177.276 34.2754 178.176 33.3754C179.076 32.4754 180.201 32.0254 181.476 32.0254C182.751 32.0254 183.876 32.4754 184.776 33.4504ZM179.601 34.7254C179.076 35.2504 178.851 36.0004 178.851 36.8254C178.851 37.6504 179.076 38.3254 179.601 38.9254C180.126 39.4504 180.801 39.7504 181.551 39.7504C182.301 39.7504 182.976 39.4504 183.501 38.9254C183.951 38.4004 184.251 37.6504 184.251 36.8254C184.251 36.0004 184.026 35.2504 183.501 34.7254C182.976 34.1254 182.301 33.8254 181.551 33.8254C180.726 33.8254 180.051 34.1254 179.601 34.7254Z" fill="#010202"/>
<path fill-rule="evenodd" clip-rule="evenodd" d="M195.2 35.9254V41.4004H193.475V40.3504C192.8 41.1754 191.9 41.5504 190.7 41.5504C188.825 41.5504 187.625 40.5004 187.625 38.9254C187.625 37.3504 188.9 36.3004 190.85 36.3004H193.325V35.7004C193.325 34.4254 192.65 33.7504 191.45 33.7504C190.625 33.7504 189.8 34.2004 189.05 35.1004L188 33.9754C188.9 32.7004 190.1 32.0254 191.675 32.0254C193.775 32.0254 195.2 33.3754 195.2 35.9254ZM193.4 37.8754V37.7254H191.15C190.1 37.7254 189.575 38.1004 189.575 38.8504C189.575 39.6004 190.175 40.0504 191.075 40.0504C192.35 40.0504 193.325 39.1504 193.4 37.8754Z" fill="#010202"/>
<path fill-rule="evenodd" clip-rule="evenodd" d="M204.427 27.375H206.302V41.25H204.577V39.975C203.902 40.95 202.852 41.475 201.502 41.475C200.227 41.475 199.252 41.025 198.427 40.125C197.602 39.225 197.227 38.1 197.227 36.75C197.227 35.4 197.602 34.275 198.427 33.375C199.252 32.475 200.302 32.025 201.502 32.025C202.752 32.025 203.727 32.475 204.427 33.375V27.375ZM204.502 36.75C204.502 35.85 204.277 35.1 203.752 34.575C203.227 34.05 202.552 33.825 201.877 33.825C201.052 33.825 200.452 34.125 199.927 34.65C199.402 35.175 199.177 35.85 199.177 36.75C199.177 37.65 199.402 38.4 199.927 38.925C200.452 39.45 201.127 39.75 201.877 39.75C203.302 39.75 204.502 38.775 204.502 36.75Z" fill="#010202"/>
<path fill-rule="evenodd" clip-rule="evenodd" d="M221.376 33.4504C222.276 34.3504 222.726 35.4754 222.726 36.8254C222.726 38.1754 222.276 39.3004 221.376 40.2004C220.476 41.1004 219.351 41.5504 218.076 41.5504C216.726 41.4754 215.676 41.0254 214.776 40.1254C213.876 39.2254 213.426 38.1004 213.426 36.7504C213.426 35.4004 213.876 34.2754 214.776 33.3754C215.676 32.4754 216.801 32.0254 218.076 32.0254C219.351 32.0254 220.401 32.4754 221.376 33.4504ZM216.126 34.7254C215.601 35.2504 215.376 36.0004 215.376 36.8254C215.376 37.6504 215.601 38.3254 216.126 38.9254C216.651 39.4504 217.326 39.7504 218.076 39.7504C218.826 39.7504 219.501 39.4504 220.026 38.9254C220.476 38.4004 220.776 37.6504 220.776 36.8254C220.776 36.0004 220.551 35.2504 220.026 34.7254C219.501 34.1254 218.826 33.8254 218.076 33.8254C217.326 33.8254 216.651 34.1254 216.126 34.7254Z" fill="#010202"/>
<path d="M229.176 32.0254C228.126 32.0254 227.226 32.4004 226.551 33.1504V32.2504H224.826V41.3254H226.701V35.9254C226.701 34.6504 227.526 33.8254 228.726 33.8254C229.851 33.8254 230.601 34.6504 230.601 35.9254V41.3254H232.476V35.6254C232.476 33.4504 231.276 32.0254 229.176 32.0254Z" fill="#010202"/>
<path d="M244.101 39.7501C242.976 39.7501 242.376 39.3751 242.376 38.1751V33.9001H245.001V32.2501H242.376V29.8501H240.501V32.2501H239.076V33.9001H240.501V38.3251C240.501 40.4251 241.701 41.4751 243.726 41.4751C244.176 41.4751 244.701 41.4001 245.301 41.2501V39.6001C244.701 39.7501 244.326 39.7501 244.101 39.7501Z" fill="#010202"/>
<path d="M251.527 32.0252C250.477 32.0252 249.652 32.4002 248.977 33.1502V27.4502H247.102V41.3252H248.977V35.9252C248.977 34.6502 249.802 33.8252 251.002 33.8252C252.127 33.8252 252.877 34.6502 252.877 35.9252V41.3252H254.752V35.6252C254.752 33.5252 253.552 32.0252 251.527 32.0252Z" fill="#010202"/>
<path fill-rule="evenodd" clip-rule="evenodd" d="M265.326 37.3504H258.801C259.026 38.8504 260.151 39.7504 261.651 39.7504C262.551 39.7504 263.451 39.4504 264.201 38.7004L265.101 40.0504C264.126 41.1004 263.001 41.5504 261.651 41.5504C260.301 41.5504 259.176 41.1004 258.276 40.2004C257.376 39.3004 256.926 38.1754 256.926 36.8254C256.926 35.4754 257.301 34.3504 258.201 33.4504C259.101 32.4754 260.151 32.0254 261.426 32.0254C262.551 32.0254 263.526 32.4004 264.276 33.2254C265.026 34.0504 265.401 35.0254 265.401 36.2254C265.401 36.6004 265.326 36.9754 265.326 37.3504ZM258.801 35.9254H263.526C263.526 34.5754 262.551 33.6754 261.276 33.6754C260.001 33.6754 259.026 34.5754 258.801 35.9254Z" fill="#010202"/>
<path fill-rule="evenodd" clip-rule="evenodd" d="M140.675 73.95L139.1 70.125H129.2L127.625 73.95H123.875L133.55 50.625H134.75L144.5 73.95H140.675ZM137.75 66.975L134.15 57.45L130.475 66.975H137.75Z" fill="#010202"/>
<path fill-rule="evenodd" clip-rule="evenodd" d="M161.826 59.0251C163.326 60.7501 164.076 62.8501 164.076 65.4001C164.076 67.9501 163.326 70.0501 161.826 71.7751C160.326 73.5001 158.376 74.3251 156.051 74.3251C153.726 74.3251 151.851 73.5751 150.576 71.9251V80.2501H147.051V56.9251H150.351V59.3251C151.551 57.5251 153.651 56.4751 156.051 56.4751C158.376 56.4751 160.326 57.3001 161.826 59.0251ZM159.051 69.3751C160.026 68.3251 160.476 67.0501 160.476 65.4001C160.476 63.7501 160.026 62.4001 159.051 61.3501C158.051 60.3001 156.851 59.7751 155.451 59.7751C152.751 59.7751 150.501 61.6501 150.501 65.3251C150.501 67.2001 150.951 68.5501 151.926 69.5251C152.901 70.5001 154.101 70.9501 155.451 70.9501C156.851 70.9501 158.051 70.4251 159.051 69.3751Z" fill="#010202"/>
<path fill-rule="evenodd" clip-rule="evenodd" d="M182.15 59.0251C183.65 60.7501 184.4 62.8501 184.4 65.4001C184.4 67.9501 183.65 70.0501 182.15 71.7751C180.65 73.5001 178.7 74.3251 176.375 74.3251C174.05 74.3251 172.175 73.5751 170.9 71.9251V80.2501H167.375V56.9251H170.675V59.3251C171.875 57.5251 173.975 56.4751 176.375 56.4751C178.7 56.4751 180.65 57.3001 182.15 59.0251ZM179.45 69.3751C180.425 68.3251 180.875 67.0501 180.875 65.4001C180.875 63.7501 180.425 62.4001 179.45 61.3501C178.45 60.3001 177.25 59.7751 175.85 59.7751C173.15 59.7751 170.9 61.6501 170.9 65.3251C170.9 67.2001 171.35 68.5501 172.325 69.5251C173.3 70.5001 174.5 70.9501 175.85 70.9501C177.275 70.9501 178.4 70.4251 179.45 69.3751Z" fill="#010202"/>
<path d="M203.376 50.625C201.426 50.625 199.776 51.225 198.426 52.35C197.076 53.45 196.401 54.95 196.401 56.85C196.401 59.775 198.276 61.65 201.501 63.225L203.901 64.425C206.226 65.55 207.126 66.225 207.126 67.875C207.126 69.825 205.626 71.1 203.301 71.1C201.051 71.1 199.176 69.9 197.526 67.425L195.051 69.375C196.776 72.45 199.776 74.325 203.376 74.325C205.476 74.325 207.276 73.725 208.626 72.525C210.051 71.325 210.726 69.675 210.726 67.725C210.726 64.725 209.001 62.925 205.476 61.2L203.001 60C200.751 58.875 199.926 58.275 199.926 56.7C199.926 54.9 201.426 53.925 203.226 53.925C205.101 53.925 206.676 54.9 207.876 56.7L210.351 54.75C209.076 52.275 206.451 50.625 203.376 50.625Z" fill="#010202"/>
<path d="M221.825 71.0251C219.725 71.0251 218.6 70.2751 218.6 68.1001V60.0001H223.475V56.8501H218.6V52.3501H215.075V56.8501H212.375V60.0001H215.075V68.3251C215.075 72.3001 217.325 74.2501 221.075 74.2501C221.9 74.2501 222.875 74.1001 224 73.8751V70.8001C223.025 70.9501 222.35 71.0251 221.825 71.0251Z" fill="#010202"/>
<path fill-rule="evenodd" clip-rule="evenodd" d="M240.275 59.0251C241.925 60.6751 242.825 62.8501 242.825 65.3251C242.825 67.8751 242 69.9751 240.275 71.7001C238.55 73.3501 236.525 74.2501 234.125 74.2501C231.65 74.1751 229.625 73.3501 227.975 71.6251C226.325 69.9751 225.5 67.8001 225.5 65.3251C225.5 62.8251 226.325 60.7251 227.975 59.0251C229.625 57.3751 231.725 56.4751 234.125 56.4751C236.525 56.4751 238.625 57.3751 240.275 59.0251ZM230.6 61.5001C229.625 62.5501 229.175 63.9001 229.175 65.4751C229.175 67.0501 229.625 68.4001 230.6 69.4501C231.5 70.5001 232.7 71.0251 234.2 71.0251C235.6 71.0251 236.8 70.5001 237.8 69.4501C238.775 68.3251 239.3 67.0501 239.3 65.4751C239.3 63.8251 238.775 62.5501 237.8 61.5001C236.825 60.3751 235.625 59.8501 234.2 59.8501C232.7 59.8501 231.5 60.3751 230.6 61.5001Z" fill="#010202"/>
<path d="M254.225 56.7002C252.2 56.7002 250.625 57.5252 249.425 59.1002V56.8502H246.125V73.8752H249.65V64.8002C249.65 61.8002 251.675 60.0752 254.45 60.0752H255.5V56.8502C255.2 56.7752 254.75 56.7002 254.225 56.7002Z" fill="#010202"/>
<path fill-rule="evenodd" clip-rule="evenodd" d="M272.525 66.5254H260.3C260.75 69.3754 262.775 71.0254 265.625 71.0254C267.35 71.0254 268.925 70.3504 270.425 69.0004L272.075 71.4754C270.2 73.3504 268.025 74.2504 265.55 74.2504C263 74.2504 260.9 73.4254 259.25 71.7004C257.6 69.9754 256.775 67.8754 256.775 65.3254C256.775 62.8504 257.525 60.7504 259.175 59.0254C260.75 57.3004 262.775 56.4004 265.175 56.4004C267.325 56.4004 269.125 57.1504 270.575 58.6504C272 60.1504 272.75 62.0254 272.75 64.2754C272.75 65.0254 272.6 65.7754 272.525 66.5254ZM260.3 63.7504H269.225C269.225 61.2004 267.425 59.5504 265.025 59.5504C262.7 59.5504 260.825 61.2004 260.3 63.7504Z" fill="#010202"/>
<path d="M107.601 52.6501C107.526 46.1251 113.301 42.9751 113.526 42.8251C110.301 38.4001 105.201 37.8001 103.476 37.7251C99.2756 37.2751 95.1506 40.1251 92.9756 40.1251C90.8006 40.1251 87.4256 37.8001 83.9006 37.8751C79.3256 37.9501 74.9756 40.4251 72.6506 44.3251C67.7756 52.2001 71.3756 63.8251 76.1006 70.2001C78.4256 73.3501 81.1256 76.8001 84.7256 76.7251C88.2506 76.5751 89.5256 74.6251 93.7256 74.6251C97.9256 74.6251 99.1256 76.7251 102.801 76.6501C106.551 76.5751 108.951 73.5001 111.201 70.3501C113.901 66.7501 114.951 63.2251 115.026 63.0751C114.876 63.0001 107.676 60.4501 107.601 52.6501ZM100.701 33.6001C102.576 31.4251 103.851 28.4251 103.476 25.3501C100.776 25.4251 97.3256 27.0751 95.3756 29.2501C93.6506 31.1251 92.0756 34.2751 92.5256 37.2001C95.6006 37.4251 98.7506 35.7001 100.701 33.6001Z" fill="#010202"/>
</svg>
