<?xml version="1.0" encoding="utf-8"?>
<!-- Generator: Adobe Illustrator 27.6.1, SVG Export Plug-In . SVG Version: 6.00 Build 0)  -->
<svg version="1.1" id="Слой_1" xmlns="http://www.w3.org/2000/svg" xmlns:xlink="http://www.w3.org/1999/xlink" x="0px" y="0px"
	 viewBox="0 0 2517.6 613.3" style="enable-background:new 0 0 2517.6 613.3;" xml:space="preserve">
<style type="text/css">
	.st0{fill:#504998;}
	.st1{fill:#FFFFFF;}
</style>
<g>
	<g>
		<path class="st1" d="M399.8,428.3L383,258.2c-7.5-75.9-7.7-75.9-79.3-75.9l-42.4-88.9h-28.9l42.3,88.9h-84.5l42.2-88.9h-29.1
			l-42.2,88.9h0c-71.7,0-71.9,0-79.4,75.9L65,428.3c-7.5,76.2-9.3,91.5,66.1,91.5h202.6C408.9,519.8,407.4,504.5,399.8,428.3z"/>
		<polygon class="st0" points="288.9,441.8 333.1,441.8 276.6,260.3 232.4,260.3 263.9,361.5 200.9,361.5 232.4,260.3 188.3,260.3 
			131.6,441.8 175.8,441.8 187.4,404.6 277.3,404.6 		"/>
	</g>
	<g>
		<path class="st1" d="M1342.7,457.4V207.7h68.8l62,189.1l61.2-189.1h68.8v249.7h-46.2V270l-59.9,187.3H1449L1389.1,270v187.3
			H1342.7z"/>
		<path class="st1" d="M1830.7,270v187.3h-41.1v-24.3c-9,10.2-18.4,17.6-28,22c-9.6,4.5-21,6.7-34.2,6.7c-18,0-34.2-4.2-48.6-12.5
			c-14.4-8.3-25.6-19.9-33.7-34.7c-8.1-14.9-12.1-31.6-12.1-50.2c0-18.8,4.1-35.7,12.2-50.7c8.1-15,19.5-26.8,34-35.2
			c14.5-8.5,30.9-12.7,49.2-12.7c13.5,0,25.2,2.3,35,7c9.8,4.7,18.5,12.1,26.2,22.4V270H1830.7z M1732.4,307
			c-15.6,0-28.5,5.5-38.7,16.5c-10.2,11-15.3,25-15.3,41.9c0,16.4,5.1,29.7,15.4,39.9c10.3,10.2,23.6,15.3,40,15.3
			c16.3,0,29.4-5.2,39.4-15.5c10-10.3,14.9-23.9,14.9-40.6c0-16.9-5.2-30.7-15.6-41.4C1762.2,312.3,1748.8,307,1732.4,307z"/>
		<path class="st1" d="M1863.3,457.4V270h41.1v18.3c7.6-10.1,16-15.8,24.8-18.7c11.5-3.9,31.6-3.9,31.6-3.9V309h-12.3
			c-26.8,0.7-40.3,15.4-40.3,44.2v104.1H1863.3z"/>
		<path class="st1" d="M1990.1,457.4V207.7h44.9v150.7l59.7-88.3h53.8l-66.8,91.6l77.7,95.7h-60.6l-63.9-87.5v87.5H1990.1z"/>
		<path class="st1" d="M2342.2,383.8h-145.1c2.7,11.3,8.7,20.3,18,26.9c9.2,6.6,20.5,9.9,33.8,9.9c9.2,0,16.9-1.4,23.1-4.2
			c6.2-2.8,12.2-7.6,18-14.4h49c-2.6,8.5-7.6,17.2-14.9,26.1c-19.4,22.6-44.1,33.8-74.3,33.8c-14.1,0-27.4-2.5-39.9-7.6
			s-23.3-11.9-32.3-20.5c-9-8.6-16.1-19-21.4-31c-5.3-12-7.9-24.8-7.9-38.2c0-18,4.4-34.6,13.1-49.8c8.7-15.1,20.7-27.1,35.8-35.8
			c15.1-8.7,31.7-13.1,49.8-13.1c18.4,0,34.9,4.3,49.7,13c14.7,8.6,26.3,20.6,34.6,36c8.3,15.3,12.5,32.6,12.5,51.7
			C2343.9,372.6,2343.3,378.4,2342.2,383.8z M2195.9,344.1h103.8c-2.9-12-8.8-21.2-17.7-27.6c-8.9-6.4-20.3-9.6-34.2-9.6
			c-13.4,0-24.6,3.2-33.4,9.5C2205.6,322.8,2199.4,332,2195.9,344.1z"/>
		<path class="st1" d="M2454.1,309V270h-30.2v-62.4H2379V270h-30.2V309h30.2v107.9c0,24.8,20.1,44.9,44.9,44.9h32.1v-43.2h-23.2
			c-4.9,0-8.9-4-8.9-8.9V309H2454.1z"/>
	</g>
	<g>
		<path class="st1" d="M737.4,519.8l35.2-80L703.9,270h51.3l43.1,117.3L842.2,270h51.7L785.7,519.8H737.4z"/>
		<path class="st1" d="M1089.7,270v187.3h-41.1v-24.3c-9,10.2-18.4,17.6-28,22c-9.6,4.5-21,6.7-34.2,6.7c-18,0-34.2-4.2-48.6-12.5
			c-14.4-8.3-25.6-19.9-33.7-34.7c-8.1-14.9-12.1-31.6-12.1-50.2c0-18.8,4.1-35.7,12.2-50.7c8.1-15,19.5-26.8,34-35.2
			c14.5-8.5,30.9-12.7,49.2-12.7c13.5,0,25.2,2.3,35,7c9.8,4.7,18.5,12.1,26.2,22.4V270H1089.7z M991.4,307
			c-15.6,0-28.5,5.5-38.7,16.5c-10.2,11-15.3,25-15.3,41.9c0,16.4,5.1,29.7,15.4,39.9c10.3,10.2,23.6,15.3,40,15.3
			c16.3,0,29.4-5.2,39.4-15.5c10-10.3,14.9-23.9,14.9-40.6c0-16.9-5.2-30.7-15.6-41.4C1021.2,312.3,1007.8,307,991.4,307z"/>
		<path class="st1" d="M1123.6,457.4V270h41.4v18c8.2-8,16.4-13.7,24.4-17.2c8-3.4,17.5-5.1,28.4-5.1c27.3,0,47.2,9.6,59.7,28.7
			c4.5,7.3,7.7,15.5,9.5,24.6c1.8,9.1,2.7,21.8,2.7,38v100.3h-44.9v-91.6c0-24.2-3.2-40.1-9.6-47.7c-6.1-7.4-14.8-11.1-26.2-11.1
			c-15.4,0-26.6,6.1-33.5,18.2c-2.7,4.3-4.6,9.6-5.6,16c-1,6.4-1.5,15.7-1.5,27.9v88.3H1123.6z"/>
		<path class="st1" d="M678.3,457.4h51L631,208.2h-49.9l-97.2,249.2h51.3l16.7-43.2h109.6L678.3,457.4z M568.6,370.9l37.8-103
			l38.2,103H568.6z"/>
	</g>
</g>
</svg>
