<svg width="21" height="22" viewBox="0 0 21 22" fill="none" xmlns="http://www.w3.org/2000/svg">
<path d="M2.09246 13.4543C1.34816 9.92031 0.976016 8.15342 1.90895 6.9793C2.84188 5.80518 4.61799 5.80518 8.17022 5.80518H13.5118C17.064 5.80518 18.8401 5.80518 19.7731 6.9793C20.7059 8.15342 20.3338 9.92031 19.5895 13.4543L19.1456 15.5623C18.6411 17.9575 18.3888 19.1552 17.5341 19.8582C16.6793 20.5612 15.4755 20.5612 13.0677 20.5612H8.6142C6.20649 20.5612 5.00264 20.5612 4.1479 19.8582C3.29317 19.1552 3.04092 17.9575 2.53645 15.5623L2.09246 13.4543Z" stroke="white" stroke-width="1.35514"/>
<path d="M6.69751 11.0747H14.9852" stroke="white" stroke-width="1.35514" stroke-linecap="round" stroke-linejoin="round"/>
<path d="M8.7688 14.2368H12.9126" stroke="white" stroke-width="1.35514" stroke-linecap="round" stroke-linejoin="round"/>
<path d="M17.0568 7.91287L13.949 1.58887" stroke="white" stroke-width="1.35514" stroke-linecap="round" stroke-linejoin="round"/>
<path d="M4.625 7.91287L7.73287 1.58887" stroke="white" stroke-width="1.35514" stroke-linecap="round" stroke-linejoin="round"/>
</svg>
