<svg width="22" height="22" viewBox="0 0 22 22" fill="none" xmlns="http://www.w3.org/2000/svg">
<path d="M1.1313 22C0.8415 22 0.551699 21.8898 0.331517 21.6679C-0.110506 21.2259 -0.110506 20.5093 0.331517 20.0673L20.0678 0.331508C20.5098 -0.110503 21.2265 -0.110503 21.6685 0.331508C22.1105 0.77352 22.1105 1.49013 21.6685 1.93242L1.93247 21.6679C1.71063 21.8884 1.42083 22 1.1313 22Z" fill="white"/>
<path d="M20.869 22C20.5792 22 20.2897 21.8898 20.0692 21.6679L0.331517 1.93242C-0.110506 1.49013 -0.110506 0.77352 0.331517 0.331508C0.773539 -0.110503 1.49017 -0.110503 1.93247 0.331508L21.6685 20.0673C22.1105 20.5093 22.1105 21.2259 21.6685 21.6679C21.4466 21.8884 21.1571 22 20.869 22Z" fill="white"/>
</svg>
