<svg width="344" height="108" viewBox="0 0 344 108" fill="none" xmlns="http://www.w3.org/2000/svg">
<path d="M54.2508 0.399902H289.751C319.451 0.399902 343.451 24.4749 343.451 54.0999C343.451 83.7999 319.376 107.8 289.751 107.8H54.2508C24.5508 107.8 0.550781 83.7249 0.550781 54.0999C0.550781 24.3999 24.6258 0.399902 54.2508 0.399902Z" fill="white"/>
<path d="M54.2516 1.375H289.752C318.852 1.375 342.402 24.925 342.402 54.025C342.402 83.125 318.852 106.675 289.752 106.675H54.2516C25.1516 106.675 1.60156 83.125 1.60156 54.025C1.60156 25 25.1516 1.375 54.2516 1.375Z" stroke="#010202" stroke-opacity="0.3" stroke-width="2.1"/>
<path d="M88.525 52.9748L62.95 29.0498C62.725 29.6498 62.5 30.2498 62.5 31.0748V75.0998C62.5 75.9248 62.725 76.5248 62.95 77.1248L88.525 52.9748Z" fill="#010202"/>
<path d="M91.5254 52.9749L100.075 60.9249L109.45 55.9749C112.45 54.3999 112.45 51.7749 109.45 50.1999L99.8504 45.0249L91.5254 52.9749Z" fill="#010202"/>
<path d="M90.0262 51.55L97.9012 43.975L67.8262 28.075C66.5512 27.475 65.2762 27.25 64.4512 27.7L90.0262 51.55Z" fill="#010202"/>
<path d="M90.0262 54.3247L64.4512 78.3997C65.2762 78.7747 66.5512 78.6247 68.0512 78.0247L98.2762 62.1247L90.0262 54.3247Z" fill="#010202"/>
<path d="M130.676 30.6997C128.951 30.6997 127.451 31.2997 126.251 32.4997C125.051 33.6997 124.451 35.1997 124.451 36.9997C124.451 38.7997 125.051 40.2997 126.251 41.4997C127.451 42.6997 128.951 43.2997 130.676 43.2997C133.076 43.2997 135.101 42.0247 136.151 40.0747V36.6247H130.601V38.3497H134.201V39.6997C133.376 40.9747 132.251 41.5747 130.676 41.5747C129.401 41.5747 128.351 41.1247 127.526 40.2997C126.701 39.3997 126.326 38.3497 126.326 36.9997C126.326 35.7247 126.701 34.5997 127.526 33.7747C128.276 32.9497 129.326 32.4997 130.601 32.4997C132.101 32.4997 133.226 33.1747 134.126 34.4497L135.476 33.2497C134.426 31.5997 132.776 30.6997 130.676 30.6997Z" fill="#010202"/>
<path d="M138.551 30.9248V43.1498H146.501V41.4248H140.426V37.5248H144.851V35.7998H140.426V32.6498H146.276V30.9248H138.551Z" fill="#010202"/>
<path d="M147.477 30.9248V32.6498H151.452V43.1498H153.327V32.6498H157.302V30.9248H147.477Z" fill="#010202"/>
<path d="M163.227 30.9248V43.1498H165.102V30.9248H163.227Z" fill="#010202"/>
<path d="M166.9 30.9248V32.6498H170.875V43.1498H172.75V32.6498H176.725V30.9248H166.9Z" fill="#010202"/>
<path fill-rule="evenodd" clip-rule="evenodd" d="M192.401 32.4997C193.601 33.6997 194.201 35.1997 194.201 36.9997C194.201 38.7997 193.601 40.2997 192.401 41.4997C191.201 42.6997 189.776 43.2997 188.051 43.2997C186.251 43.2997 184.826 42.6997 183.626 41.4997C182.426 40.2997 181.826 38.7997 181.826 36.9997C181.826 35.1997 182.426 33.6997 183.626 32.4997C184.826 31.2997 186.326 30.6997 188.051 30.6997C189.776 30.6997 191.276 31.2997 192.401 32.4997ZM185.051 33.7747C184.226 34.5997 183.851 35.7247 183.851 36.9997C183.851 38.2747 184.226 39.3247 185.051 40.2247C185.801 41.0497 186.851 41.4997 188.051 41.4997C189.251 41.4997 190.226 41.0497 191.051 40.2247C191.876 39.3997 192.251 38.3497 192.251 36.9997C192.251 35.7247 191.876 34.5997 191.051 33.7747C190.301 32.9497 189.251 32.4997 188.051 32.4997C186.851 32.4997 185.876 32.9497 185.051 33.7747Z" fill="#010202"/>
<path d="M204.325 39.1747L197.2 30.6997H196.525V43.1497H198.4V34.8997L205.6 43.3747H206.275V30.9247H204.4V39.1747H204.325Z" fill="#010202"/>
<path d="M135.326 52.2251C132.251 52.2251 129.701 53.2751 127.601 55.4501C125.501 57.5501 124.451 60.1751 124.451 63.3251C124.451 66.4751 125.501 69.1001 127.601 71.2001C129.701 73.3001 132.251 74.3501 135.326 74.3501C139.451 74.3501 143.126 72.1001 144.926 68.7251V62.7251H135.251V65.8001H141.626V68.1251C140.201 70.3001 138.176 71.3501 135.476 71.3501C133.226 71.3501 131.426 70.6001 130.001 69.1001C128.576 67.6001 127.901 65.6501 127.901 63.3251C127.901 61.0751 128.576 59.2001 129.926 57.7001C131.276 56.2001 133.076 55.4501 135.251 55.4501C137.801 55.4501 139.901 56.5751 141.401 58.8251L143.801 56.8001C141.851 53.7251 139.001 52.2251 135.326 52.2251Z" fill="#010202"/>
<path fill-rule="evenodd" clip-rule="evenodd" d="M160.15 60.0997C161.725 61.6747 162.55 63.6997 162.55 66.0247C162.55 68.3497 161.725 70.2997 160.15 71.9497C158.5 73.5247 156.625 74.3497 154.375 74.3497C152.05 74.3497 150.175 73.5247 148.6 71.9497C147.025 70.3747 146.275 68.3497 146.275 66.0247C146.275 63.6997 147.025 61.6747 148.6 60.0997C150.175 58.5247 152.125 57.6997 154.375 57.6997C156.625 57.6997 158.575 58.5247 160.15 60.0997ZM151.075 62.3497C150.175 63.3247 149.725 64.5247 149.725 66.0247C149.725 67.4497 150.175 68.7247 151.075 69.6997C151.975 70.6747 153.1 71.1247 154.45 71.1247C155.8 71.1247 156.925 70.6747 157.825 69.6997C158.725 68.7247 159.175 67.4497 159.175 66.0247C159.175 64.5247 158.725 63.3247 157.825 62.3497C156.925 61.3747 155.8 60.8497 154.45 60.8497C153.025 60.8497 151.9 61.2997 151.075 62.3497Z" fill="#010202"/>
<path fill-rule="evenodd" clip-rule="evenodd" d="M177.625 60.0997C179.2 61.6747 180.025 63.6997 180.025 66.0247C180.025 68.3497 179.2 70.2997 177.625 71.9497C175.975 73.5247 174.1 74.3497 171.85 74.3497C169.525 74.3497 167.65 73.5247 166.075 71.9497C164.5 70.3747 163.75 68.3497 163.75 66.0247C163.75 63.6997 164.5 61.6747 166.075 60.0997C167.65 58.5247 169.6 57.6997 171.85 57.6997C174.1 57.6997 176.05 58.5247 177.625 60.0997ZM168.55 62.3497C167.65 63.3247 167.2 64.5247 167.2 66.0247C167.2 67.4497 167.65 68.7247 168.55 69.6997C169.45 70.6747 170.575 71.1247 171.925 71.1247C173.275 71.1247 174.4 70.6747 175.3 69.6997C176.2 68.7247 176.65 67.4497 176.65 66.0247C176.65 64.5247 176.2 63.3247 175.3 62.3497C174.4 61.3747 173.275 60.8497 171.925 60.8497C170.5 60.8497 169.375 61.2997 168.55 62.3497Z" fill="#010202"/>
<path fill-rule="evenodd" clip-rule="evenodd" d="M194.276 58.2247H197.276V72.4747C197.276 77.4997 194.276 80.3497 189.626 80.3497C186.776 80.3497 184.301 79.3747 182.276 77.3497L184.076 74.9497C185.876 76.4497 187.676 77.1997 189.476 77.1997C192.251 77.1997 194.051 75.6247 194.051 72.6247V71.4997C192.776 72.9997 191.126 73.7497 188.876 73.7497C186.701 73.7497 184.976 72.9997 183.551 71.4997C182.201 69.9997 181.451 68.0497 181.451 65.7247C181.451 63.3247 182.126 61.4497 183.551 59.9497C184.976 58.4497 186.701 57.6997 188.876 57.6997C191.276 57.6997 193.076 58.5997 194.276 60.3247V58.2247ZM192.701 69.3997C193.601 68.4997 194.051 67.2997 194.051 65.6497C194.051 62.4247 191.951 60.7747 189.401 60.7747C188.051 60.7747 186.926 61.2247 186.026 62.1247C185.126 63.1247 184.676 64.3247 184.676 65.7247C184.676 67.1747 185.126 68.3747 186.026 69.3247C187.001 70.2247 188.051 70.6747 189.401 70.6747C190.676 70.6747 191.726 70.2247 192.701 69.3997Z" fill="#010202"/>
<path d="M200.426 49.6748V73.9748H203.726V49.6748H200.426Z" fill="#010202"/>
<path fill-rule="evenodd" clip-rule="evenodd" d="M220.751 67.075H209.351C209.801 69.7 211.751 71.275 214.376 71.275C216.026 71.275 217.526 70.675 218.876 69.4L220.451 71.725C218.651 73.45 216.626 74.275 214.301 74.275C211.901 74.275 209.951 73.45 208.376 71.875C206.801 70.3 206.051 68.35 206.051 65.95C206.051 63.625 206.801 61.6 208.301 60.025C209.801 58.45 211.676 57.625 213.926 57.625C215.951 57.625 217.601 58.3 218.951 59.725C220.301 61.15 220.976 62.875 220.976 64.975C220.976 65.65 220.901 66.4 220.751 67.075ZM209.351 64.525H217.676C217.676 62.125 216.026 60.625 213.776 60.625C211.601 60.625 209.876 62.125 209.351 64.525Z" fill="#010202"/>
<path fill-rule="evenodd" clip-rule="evenodd" d="M238.076 52.6001C240.176 52.6001 241.901 53.2001 243.176 54.4001C244.451 55.6001 245.126 57.1751 245.126 59.1251C245.126 61.0751 244.451 62.7251 243.176 63.9251C241.826 65.1251 240.176 65.7251 238.076 65.7251H233.876V73.9751H230.576V52.6001H238.076ZM233.951 55.6001V62.6501H238.076C240.401 62.6501 241.751 61.2251 241.751 59.1251C241.751 57.0251 240.401 55.6001 238.076 55.6001H233.951Z" fill="#010202"/>
<path d="M247 49.6748V73.9748H250.3V49.6748H247Z" fill="#010202"/>
<path fill-rule="evenodd" clip-rule="evenodd" d="M265.675 64.2997V73.8997H262.6V72.0997C261.475 73.5247 259.825 74.2747 257.725 74.2747C254.5 74.2747 252.4 72.4747 252.4 69.6997C252.4 66.9247 254.575 65.1247 258.025 65.1247H262.375V64.0747C262.375 61.8997 261.175 60.6997 259.075 60.6997C257.5 60.6997 256.075 61.5247 254.8 63.0997L252.925 61.0747C254.425 58.8247 256.6 57.6997 259.375 57.6997C263.2 57.6997 265.675 60.0997 265.675 64.2997ZM262.3 67.9747V67.6747H258.4C256.6 67.6747 255.7 68.3497 255.7 69.6247C255.7 70.9747 256.825 71.7247 258.4 71.7247C260.575 71.7247 262.375 70.1497 262.3 67.9747Z" fill="#010202"/>
<path d="M274.825 69.6997L270.4 58.0747H266.875L273.025 73.2997L272.425 74.7997C271.675 76.5997 270.625 77.1247 269.05 77.1247C268.825 77.1247 268.225 77.1247 267.25 76.9747V79.8247C268.075 80.0497 268.975 80.1247 269.8 80.1247C272.425 80.1247 274.15 78.7747 275.425 75.7747L282.925 58.0747H279.4L274.825 69.6997Z" fill="#010202"/>
</svg>
