<?xml version="1.0" encoding="utf-8"?>
<!-- Generator: Adobe Illustrator 27.6.1, SVG Export Plug-In . SVG Version: 6.00 Build 0)  -->
<svg version="1.1" id="Слой_1" xmlns="http://www.w3.org/2000/svg" xmlns:xlink="http://www.w3.org/1999/xlink" x="0px" y="0px"
	 viewBox="0 0 1012.8 1080" style="enable-background:new 0 0 1012.8 1080;" xml:space="preserve">
<style type="text/css">
	.st0{fill:#FFFFFF;}
	.st1{fill:#FFFFFF;}
</style>
<g>
	<polygon points="580,668.1 506.4,431.7 432.7,668.1" class="st0"/>
	<path d="M897.5,824.3l-39.3-397.5c-17.5-177.3-18-177.3-185.2-177.3L574,41.9h-67.7l98.7,207.6H407.8l98.6-207.6
		h-67.9l-98.6,207.6h0.1c-167.6,0-167.9,0-185.4,177.3l-39.3,397.5c-17.5,178-21.7,213.8,154.6,213.8h473.3C918.7,1038.1,915.2,1002.3,897.5,824.3z
		 M638.5,855.8l-27.1-87H401.3l-27.1,87H270.9l132.3-424.1h103.1h103.2l132.2,424.1H638.5z" class="st0"/>
</g>
</svg>
