<?xml version="1.0" encoding="utf-8"?><!DOCTYPE svg PUBLIC "-//W3C//DTD SVG 1.1//EN" "http://www.w3.org/Graphics/SVG/1.1/DTD/svg11.dtd"><svg xmlns:xlink="http://www.w3.org/1999/xlink" xmlns="http://www.w3.org/2000/svg" id="map" viewBox="0 0 225 225" width="1000" height="1000" data-dot="5"><rect x="0" y="0" height="225" width="225" fill="#ffffff"/><defs/><g fill="#000000"><rect x="20" y="190" width="15" height="15" transform="rotate(-90,27.5,197.5)"/><path clip-rule="evenodd" class="svgeye" d="M 10 180v 35h 35v -35zM 15 185h 25v 25h -25z" transform="rotate(-90,27.5,197.5)"/><rect x="190" y="20" width="15" height="15" transform="rotate(90,197.5,27.5)"/><path clip-rule="evenodd" class="svgeye" d="M 180 10v 35h 35v -35zM 185 15h 25v 25h -25z" transform="rotate(90,197.5,27.5)"/><rect x="20" y="20" width="15" height="15" transform="rotate(0,27.5,27.5)"/><path clip-rule="evenodd" class="svgeye" d="M 10 10v 35h 35v -35zM 15 15h 25v 25h -25z" transform="rotate(0,27.5,27.5)"/><rect x="50" y="10" width="5" height="5" transform="rotate(0,52.5,12.5)"/><rect x="60" y="10" width="5" height="5" transform="rotate(0,62.5,12.5)"/><rect x="65" y="10" width="5" height="5" transform="rotate(0,67.5,12.5)"/><rect x="70" y="10" width="5" height="5" transform="rotate(0,72.5,12.5)"/><rect x="85" y="10" width="5" height="5" transform="rotate(0,87.5,12.5)"/><rect x="105" y="10" width="5" height="5" transform="rotate(0,107.5,12.5)"/><rect x="110" y="10" width="5" height="5" transform="rotate(0,112.5,12.5)"/><rect x="115" y="10" width="5" height="5" transform="rotate(0,117.5,12.5)"/><rect x="120" y="10" width="5" height="5" transform="rotate(0,122.5,12.5)"/><rect x="135" y="10" width="5" height="5" transform="rotate(0,137.5,12.5)"/><rect x="140" y="10" width="5" height="5" transform="rotate(0,142.5,12.5)"/><rect x="150" y="10" width="5" height="5" transform="rotate(0,152.5,12.5)"/><rect x="160" y="10" width="5" height="5" transform="rotate(0,162.5,12.5)"/><rect x="165" y="10" width="5" height="5" transform="rotate(0,167.5,12.5)"/><rect x="170" y="10" width="5" height="5" transform="rotate(0,172.5,12.5)"/><rect x="70" y="15" width="5" height="5" transform="rotate(0,72.5,17.5)"/><rect x="75" y="15" width="5" height="5" transform="rotate(0,77.5,17.5)"/><rect x="110" y="15" width="5" height="5" transform="rotate(0,112.5,17.5)"/><rect x="120" y="15" width="5" height="5" transform="rotate(0,122.5,17.5)"/><rect x="125" y="15" width="5" height="5" transform="rotate(0,127.5,17.5)"/><rect x="135" y="15" width="5" height="5" transform="rotate(0,137.5,17.5)"/><rect x="140" y="15" width="5" height="5" transform="rotate(0,142.5,17.5)"/><rect x="145" y="15" width="5" height="5" transform="rotate(0,147.5,17.5)"/><rect x="150" y="15" width="5" height="5" transform="rotate(0,152.5,17.5)"/><rect x="170" y="15" width="5" height="5" transform="rotate(0,172.5,17.5)"/><rect x="65" y="20" width="5" height="5" transform="rotate(0,67.5,22.5)"/><rect x="70" y="20" width="5" height="5" transform="rotate(0,72.5,22.5)"/><rect x="75" y="20" width="5" height="5" transform="rotate(0,77.5,22.5)"/><rect x="85" y="20" width="5" height="5" transform="rotate(0,87.5,22.5)"/><rect x="90" y="20" width="5" height="5" transform="rotate(0,92.5,22.5)"/><rect x="105" y="20" width="5" height="5" transform="rotate(0,107.5,22.5)"/><rect x="110" y="20" width="5" height="5" transform="rotate(0,112.5,22.5)"/><rect x="120" y="20" width="5" height="5" transform="rotate(0,122.5,22.5)"/><rect x="135" y="20" width="5" height="5" transform="rotate(0,137.5,22.5)"/><rect x="145" y="20" width="5" height="5" transform="rotate(0,147.5,22.5)"/><rect x="160" y="20" width="5" height="5" transform="rotate(0,162.5,22.5)"/><rect x="170" y="20" width="5" height="5" transform="rotate(0,172.5,22.5)"/><rect x="60" y="25" width="5" height="5" transform="rotate(0,62.5,27.5)"/><rect x="85" y="25" width="5" height="5" transform="rotate(0,87.5,27.5)"/><rect x="90" y="25" width="5" height="5" transform="rotate(0,92.5,27.5)"/><rect x="95" y="25" width="5" height="5" transform="rotate(0,97.5,27.5)"/><rect x="110" y="25" width="5" height="5" transform="rotate(0,112.5,27.5)"/><rect x="115" y="25" width="5" height="5" transform="rotate(0,117.5,27.5)"/><rect x="125" y="25" width="5" height="5" transform="rotate(0,127.5,27.5)"/><rect x="140" y="25" width="5" height="5" transform="rotate(0,142.5,27.5)"/><rect x="145" y="25" width="5" height="5" transform="rotate(0,147.5,27.5)"/><rect x="150" y="25" width="5" height="5" transform="rotate(0,152.5,27.5)"/><rect x="160" y="25" width="5" height="5" transform="rotate(0,162.5,27.5)"/><rect x="165" y="25" width="5" height="5" transform="rotate(0,167.5,27.5)"/><rect x="170" y="25" width="5" height="5" transform="rotate(0,172.5,27.5)"/><rect x="50" y="30" width="5" height="5" transform="rotate(0,52.5,32.5)"/><rect x="65" y="30" width="5" height="5" transform="rotate(0,67.5,32.5)"/><rect x="70" y="30" width="5" height="5" transform="rotate(0,72.5,32.5)"/><rect x="75" y="30" width="5" height="5" transform="rotate(0,77.5,32.5)"/><rect x="80" y="30" width="5" height="5" transform="rotate(0,82.5,32.5)"/><rect x="85" y="30" width="5" height="5" transform="rotate(0,87.5,32.5)"/><rect x="90" y="30" width="5" height="5" transform="rotate(0,92.5,32.5)"/><rect x="100" y="30" width="5" height="5" transform="rotate(0,102.5,32.5)"/><rect x="115" y="30" width="5" height="5" transform="rotate(0,117.5,32.5)"/><rect x="125" y="30" width="5" height="5" transform="rotate(0,127.5,32.5)"/><rect x="130" y="30" width="5" height="5" transform="rotate(0,132.5,32.5)"/><rect x="150" y="30" width="5" height="5" transform="rotate(0,152.5,32.5)"/><rect x="160" y="30" width="5" height="5" transform="rotate(0,162.5,32.5)"/><rect x="165" y="30" width="5" height="5" transform="rotate(0,167.5,32.5)"/><rect x="170" y="30" width="5" height="5" transform="rotate(0,172.5,32.5)"/><rect x="50" y="35" width="5" height="5" transform="rotate(0,52.5,37.5)"/><rect x="55" y="35" width="5" height="5" transform="rotate(0,57.5,37.5)"/><rect x="75" y="35" width="5" height="5" transform="rotate(0,77.5,37.5)"/><rect x="85" y="35" width="5" height="5" transform="rotate(0,87.5,37.5)"/><rect x="90" y="35" width="5" height="5" transform="rotate(0,92.5,37.5)"/><rect x="95" y="35" width="5" height="5" transform="rotate(0,97.5,37.5)"/><rect x="100" y="35" width="5" height="5" transform="rotate(0,102.5,37.5)"/><rect x="110" y="35" width="5" height="5" transform="rotate(0,112.5,37.5)"/><rect x="115" y="35" width="5" height="5" transform="rotate(0,117.5,37.5)"/><rect x="120" y="35" width="5" height="5" transform="rotate(0,122.5,37.5)"/><rect x="125" y="35" width="5" height="5" transform="rotate(0,127.5,37.5)"/><rect x="130" y="35" width="5" height="5" transform="rotate(0,132.5,37.5)"/><rect x="135" y="35" width="5" height="5" transform="rotate(0,137.5,37.5)"/><rect x="140" y="35" width="5" height="5" transform="rotate(0,142.5,37.5)"/><rect x="145" y="35" width="5" height="5" transform="rotate(0,147.5,37.5)"/><rect x="160" y="35" width="5" height="5" transform="rotate(0,162.5,37.5)"/><rect x="170" y="35" width="5" height="5" transform="rotate(0,172.5,37.5)"/><rect x="50" y="40" width="5" height="5" transform="rotate(0,52.5,42.5)"/><rect x="60" y="40" width="5" height="5" transform="rotate(0,62.5,42.5)"/><rect x="70" y="40" width="5" height="5" transform="rotate(0,72.5,42.5)"/><rect x="80" y="40" width="5" height="5" transform="rotate(0,82.5,42.5)"/><rect x="90" y="40" width="5" height="5" transform="rotate(0,92.5,42.5)"/><rect x="100" y="40" width="5" height="5" transform="rotate(0,102.5,42.5)"/><rect x="110" y="40" width="5" height="5" transform="rotate(0,112.5,42.5)"/><rect x="120" y="40" width="5" height="5" transform="rotate(0,122.5,42.5)"/><rect x="130" y="40" width="5" height="5" transform="rotate(0,132.5,42.5)"/><rect x="140" y="40" width="5" height="5" transform="rotate(0,142.5,42.5)"/><rect x="150" y="40" width="5" height="5" transform="rotate(0,152.5,42.5)"/><rect x="160" y="40" width="5" height="5" transform="rotate(0,162.5,42.5)"/><rect x="170" y="40" width="5" height="5" transform="rotate(0,172.5,42.5)"/><rect x="70" y="45" width="5" height="5" transform="rotate(0,72.5,47.5)"/><rect x="75" y="45" width="5" height="5" transform="rotate(0,77.5,47.5)"/><rect x="85" y="45" width="5" height="5" transform="rotate(0,87.5,47.5)"/><rect x="90" y="45" width="5" height="5" transform="rotate(0,92.5,47.5)"/><rect x="95" y="45" width="5" height="5" transform="rotate(0,97.5,47.5)"/><rect x="100" y="45" width="5" height="5" transform="rotate(0,102.5,47.5)"/><rect x="110" y="45" width="5" height="5" transform="rotate(0,112.5,47.5)"/><rect x="115" y="45" width="5" height="5" transform="rotate(0,117.5,47.5)"/><rect x="140" y="45" width="5" height="5" transform="rotate(0,142.5,47.5)"/><rect x="145" y="45" width="5" height="5" transform="rotate(0,147.5,47.5)"/><rect x="160" y="45" width="5" height="5" transform="rotate(0,162.5,47.5)"/><rect x="165" y="45" width="5" height="5" transform="rotate(0,167.5,47.5)"/><rect x="170" y="45" width="5" height="5" transform="rotate(0,172.5,47.5)"/><rect x="15" y="50" width="5" height="5" transform="rotate(0,17.5,52.5)"/><rect x="20" y="50" width="5" height="5" transform="rotate(0,22.5,52.5)"/><rect x="25" y="50" width="5" height="5" transform="rotate(0,27.5,52.5)"/><rect x="30" y="50" width="5" height="5" transform="rotate(0,32.5,52.5)"/><rect x="35" y="50" width="5" height="5" transform="rotate(0,37.5,52.5)"/><rect x="40" y="50" width="5" height="5" transform="rotate(0,42.5,52.5)"/><rect x="45" y="50" width="5" height="5" transform="rotate(0,47.5,52.5)"/><rect x="55" y="50" width="5" height="5" transform="rotate(0,57.5,52.5)"/><rect x="65" y="50" width="5" height="5" transform="rotate(0,67.5,52.5)"/><rect x="75" y="50" width="5" height="5" transform="rotate(0,77.5,52.5)"/><rect x="90" y="50" width="5" height="5" transform="rotate(0,92.5,52.5)"/><rect x="110" y="50" width="5" height="5" transform="rotate(0,112.5,52.5)"/><rect x="120" y="50" width="5" height="5" transform="rotate(0,122.5,52.5)"/><rect x="125" y="50" width="5" height="5" transform="rotate(0,127.5,52.5)"/><rect x="130" y="50" width="5" height="5" transform="rotate(0,132.5,52.5)"/><rect x="135" y="50" width="5" height="5" transform="rotate(0,137.5,52.5)"/><rect x="140" y="50" width="5" height="5" transform="rotate(0,142.5,52.5)"/><rect x="145" y="50" width="5" height="5" transform="rotate(0,147.5,52.5)"/><rect x="155" y="50" width="5" height="5" transform="rotate(0,157.5,52.5)"/><rect x="165" y="50" width="5" height="5" transform="rotate(0,167.5,52.5)"/><rect x="170" y="50" width="5" height="5" transform="rotate(0,172.5,52.5)"/><rect x="185" y="50" width="5" height="5" transform="rotate(0,187.5,52.5)"/><rect x="190" y="50" width="5" height="5" transform="rotate(0,192.5,52.5)"/><rect x="210" y="50" width="5" height="5" transform="rotate(0,212.5,52.5)"/><rect x="35" y="55" width="5" height="5" transform="rotate(0,37.5,57.5)"/><rect x="50" y="55" width="5" height="5" transform="rotate(0,52.5,57.5)"/><rect x="70" y="55" width="5" height="5" transform="rotate(0,72.5,57.5)"/><rect x="85" y="55" width="5" height="5" transform="rotate(0,87.5,57.5)"/><rect x="90" y="55" width="5" height="5" transform="rotate(0,92.5,57.5)"/><rect x="95" y="55" width="5" height="5" transform="rotate(0,97.5,57.5)"/><rect x="125" y="55" width="5" height="5" transform="rotate(0,127.5,57.5)"/><rect x="130" y="55" width="5" height="5" transform="rotate(0,132.5,57.5)"/><rect x="150" y="55" width="5" height="5" transform="rotate(0,152.5,57.5)"/><rect x="160" y="55" width="5" height="5" transform="rotate(0,162.5,57.5)"/><rect x="165" y="55" width="5" height="5" transform="rotate(0,167.5,57.5)"/><rect x="170" y="55" width="5" height="5" transform="rotate(0,172.5,57.5)"/><rect x="180" y="55" width="5" height="5" transform="rotate(0,182.5,57.5)"/><rect x="190" y="55" width="5" height="5" transform="rotate(0,192.5,57.5)"/><rect x="200" y="55" width="5" height="5" transform="rotate(0,202.5,57.5)"/><rect x="205" y="55" width="5" height="5" transform="rotate(0,207.5,57.5)"/><rect x="210" y="55" width="5" height="5" transform="rotate(0,212.5,57.5)"/><rect x="10" y="60" width="5" height="5" transform="rotate(0,12.5,62.5)"/><rect x="15" y="60" width="5" height="5" transform="rotate(0,17.5,62.5)"/><rect x="25" y="60" width="5" height="5" transform="rotate(0,27.5,62.5)"/><rect x="40" y="60" width="5" height="5" transform="rotate(0,42.5,62.5)"/><rect x="45" y="60" width="5" height="5" transform="rotate(0,47.5,62.5)"/><rect x="50" y="60" width="5" height="5" transform="rotate(0,52.5,62.5)"/><rect x="60" y="60" width="5" height="5" transform="rotate(0,62.5,62.5)"/><rect x="75" y="60" width="5" height="5" transform="rotate(0,77.5,62.5)"/><rect x="80" y="60" width="5" height="5" transform="rotate(0,82.5,62.5)"/><rect x="100" y="60" width="5" height="5" transform="rotate(0,102.5,62.5)"/><rect x="105" y="60" width="5" height="5" transform="rotate(0,107.5,62.5)"/><rect x="110" y="60" width="5" height="5" transform="rotate(0,112.5,62.5)"/><rect x="115" y="60" width="5" height="5" transform="rotate(0,117.5,62.5)"/><rect x="125" y="60" width="5" height="5" transform="rotate(0,127.5,62.5)"/><rect x="130" y="60" width="5" height="5" transform="rotate(0,132.5,62.5)"/><rect x="145" y="60" width="5" height="5" transform="rotate(0,147.5,62.5)"/><rect x="155" y="60" width="5" height="5" transform="rotate(0,157.5,62.5)"/><rect x="160" y="60" width="5" height="5" transform="rotate(0,162.5,62.5)"/><rect x="170" y="60" width="5" height="5" transform="rotate(0,172.5,62.5)"/><rect x="175" y="60" width="5" height="5" transform="rotate(0,177.5,62.5)"/><rect x="185" y="60" width="5" height="5" transform="rotate(0,187.5,62.5)"/><rect x="10" y="65" width="5" height="5" transform="rotate(0,12.5,67.5)"/><rect x="25" y="65" width="5" height="5" transform="rotate(0,27.5,67.5)"/><rect x="45" y="65" width="5" height="5" transform="rotate(0,47.5,67.5)"/><rect x="50" y="65" width="5" height="5" transform="rotate(0,52.5,67.5)"/><rect x="55" y="65" width="5" height="5" transform="rotate(0,57.5,67.5)"/><rect x="60" y="65" width="5" height="5" transform="rotate(0,62.5,67.5)"/><rect x="65" y="65" width="5" height="5" transform="rotate(0,67.5,67.5)"/><rect x="80" y="65" width="5" height="5" transform="rotate(0,82.5,67.5)"/><rect x="95" y="65" width="5" height="5" transform="rotate(0,97.5,67.5)"/><rect x="100" y="65" width="5" height="5" transform="rotate(0,102.5,67.5)"/><rect x="105" y="65" width="5" height="5" transform="rotate(0,107.5,67.5)"/><rect x="110" y="65" width="5" height="5" transform="rotate(0,112.5,67.5)"/><rect x="150" y="65" width="5" height="5" transform="rotate(0,152.5,67.5)"/><rect x="160" y="65" width="5" height="5" transform="rotate(0,162.5,67.5)"/><rect x="165" y="65" width="5" height="5" transform="rotate(0,167.5,67.5)"/><rect x="170" y="65" width="5" height="5" transform="rotate(0,172.5,67.5)"/><rect x="190" y="65" width="5" height="5" transform="rotate(0,192.5,67.5)"/><rect x="195" y="65" width="5" height="5" transform="rotate(0,197.5,67.5)"/><rect x="15" y="70" width="5" height="5" transform="rotate(0,17.5,72.5)"/><rect x="20" y="70" width="5" height="5" transform="rotate(0,22.5,72.5)"/><rect x="25" y="70" width="5" height="5" transform="rotate(0,27.5,72.5)"/><rect x="35" y="70" width="5" height="5" transform="rotate(0,37.5,72.5)"/><rect x="40" y="70" width="5" height="5" transform="rotate(0,42.5,72.5)"/><rect x="55" y="70" width="5" height="5" transform="rotate(0,57.5,72.5)"/><rect x="60" y="70" width="5" height="5" transform="rotate(0,62.5,72.5)"/><rect x="70" y="70" width="5" height="5" transform="rotate(0,72.5,72.5)"/><rect x="75" y="70" width="5" height="5" transform="rotate(0,77.5,72.5)"/><rect x="80" y="70" width="5" height="5" transform="rotate(0,82.5,72.5)"/><rect x="85" y="70" width="5" height="5" transform="rotate(0,87.5,72.5)"/><rect x="110" y="70" width="5" height="5" transform="rotate(0,112.5,72.5)"/><rect x="115" y="70" width="5" height="5" transform="rotate(0,117.5,72.5)"/><rect x="125" y="70" width="5" height="5" transform="rotate(0,127.5,72.5)"/><rect x="130" y="70" width="5" height="5" transform="rotate(0,132.5,72.5)"/><rect x="135" y="70" width="5" height="5" transform="rotate(0,137.5,72.5)"/><rect x="140" y="70" width="5" height="5" transform="rotate(0,142.5,72.5)"/><rect x="150" y="70" width="5" height="5" transform="rotate(0,152.5,72.5)"/><rect x="155" y="70" width="5" height="5" transform="rotate(0,157.5,72.5)"/><rect x="165" y="70" width="5" height="5" transform="rotate(0,167.5,72.5)"/><rect x="170" y="70" width="5" height="5" transform="rotate(0,172.5,72.5)"/><rect x="195" y="70" width="5" height="5" transform="rotate(0,197.5,72.5)"/><rect x="200" y="70" width="5" height="5" transform="rotate(0,202.5,72.5)"/><rect x="205" y="70" width="5" height="5" transform="rotate(0,207.5,72.5)"/><rect x="210" y="70" width="5" height="5" transform="rotate(0,212.5,72.5)"/><rect x="20" y="75" width="5" height="5" transform="rotate(0,22.5,77.5)"/><rect x="30" y="75" width="5" height="5" transform="rotate(0,32.5,77.5)"/><rect x="45" y="75" width="5" height="5" transform="rotate(0,47.5,77.5)"/><rect x="50" y="75" width="5" height="5" transform="rotate(0,52.5,77.5)"/><rect x="65" y="75" width="5" height="5" transform="rotate(0,67.5,77.5)"/><rect x="70" y="75" width="5" height="5" transform="rotate(0,72.5,77.5)"/><rect x="75" y="75" width="5" height="5" transform="rotate(0,77.5,77.5)"/><rect x="90" y="75" width="5" height="5" transform="rotate(0,92.5,77.5)"/><rect x="100" y="75" width="5" height="5" transform="rotate(0,102.5,77.5)"/><rect x="105" y="75" width="5" height="5" transform="rotate(0,107.5,77.5)"/><rect x="135" y="75" width="5" height="5" transform="rotate(0,137.5,77.5)"/><rect x="140" y="75" width="5" height="5" transform="rotate(0,142.5,77.5)"/><rect x="145" y="75" width="5" height="5" transform="rotate(0,147.5,77.5)"/><rect x="160" y="75" width="5" height="5" transform="rotate(0,162.5,77.5)"/><rect x="165" y="75" width="5" height="5" transform="rotate(0,167.5,77.5)"/><rect x="170" y="75" width="5" height="5" transform="rotate(0,172.5,77.5)"/><rect x="180" y="75" width="5" height="5" transform="rotate(0,182.5,77.5)"/><rect x="190" y="75" width="5" height="5" transform="rotate(0,192.5,77.5)"/><rect x="195" y="75" width="5" height="5" transform="rotate(0,197.5,77.5)"/><rect x="200" y="75" width="5" height="5" transform="rotate(0,202.5,77.5)"/><rect x="205" y="75" width="5" height="5" transform="rotate(0,207.5,77.5)"/><rect x="210" y="75" width="5" height="5" transform="rotate(0,212.5,77.5)"/><rect x="15" y="80" width="5" height="5" transform="rotate(0,17.5,82.5)"/><rect x="20" y="80" width="5" height="5" transform="rotate(0,22.5,82.5)"/><rect x="30" y="80" width="5" height="5" transform="rotate(0,32.5,82.5)"/><rect x="40" y="80" width="5" height="5" transform="rotate(0,42.5,82.5)"/><rect x="45" y="80" width="5" height="5" transform="rotate(0,47.5,82.5)"/><rect x="50" y="80" width="5" height="5" transform="rotate(0,52.5,82.5)"/><rect x="70" y="80" width="5" height="5" transform="rotate(0,72.5,82.5)"/><rect x="75" y="80" width="5" height="5" transform="rotate(0,77.5,82.5)"/><rect x="95" y="80" width="5" height="5" transform="rotate(0,97.5,82.5)"/><rect x="115" y="80" width="5" height="5" transform="rotate(0,117.5,82.5)"/><rect x="125" y="80" width="5" height="5" transform="rotate(0,127.5,82.5)"/><rect x="130" y="80" width="5" height="5" transform="rotate(0,132.5,82.5)"/><rect x="145" y="80" width="5" height="5" transform="rotate(0,147.5,82.5)"/><rect x="150" y="80" width="5" height="5" transform="rotate(0,152.5,82.5)"/><rect x="155" y="80" width="5" height="5" transform="rotate(0,157.5,82.5)"/><rect x="160" y="80" width="5" height="5" transform="rotate(0,162.5,82.5)"/><rect x="170" y="80" width="5" height="5" transform="rotate(0,172.5,82.5)"/><rect x="175" y="80" width="5" height="5" transform="rotate(0,177.5,82.5)"/><rect x="185" y="80" width="5" height="5" transform="rotate(0,187.5,82.5)"/><rect x="190" y="80" width="5" height="5" transform="rotate(0,192.5,82.5)"/><rect x="200" y="80" width="5" height="5" transform="rotate(0,202.5,82.5)"/><rect x="15" y="85" width="5" height="5" transform="rotate(0,17.5,87.5)"/><rect x="20" y="85" width="5" height="5" transform="rotate(0,22.5,87.5)"/><rect x="30" y="85" width="5" height="5" transform="rotate(0,32.5,87.5)"/><rect x="45" y="85" width="5" height="5" transform="rotate(0,47.5,87.5)"/><rect x="55" y="85" width="5" height="5" transform="rotate(0,57.5,87.5)"/><rect x="60" y="85" width="5" height="5" transform="rotate(0,62.5,87.5)"/><rect x="75" y="85" width="5" height="5" transform="rotate(0,77.5,87.5)"/><rect x="80" y="85" width="5" height="5" transform="rotate(0,82.5,87.5)"/><rect x="95" y="85" width="5" height="5" transform="rotate(0,97.5,87.5)"/><rect x="105" y="85" width="5" height="5" transform="rotate(0,107.5,87.5)"/><rect x="120" y="85" width="5" height="5" transform="rotate(0,122.5,87.5)"/><rect x="125" y="85" width="5" height="5" transform="rotate(0,127.5,87.5)"/><rect x="140" y="85" width="5" height="5" transform="rotate(0,142.5,87.5)"/><rect x="145" y="85" width="5" height="5" transform="rotate(0,147.5,87.5)"/><rect x="170" y="85" width="5" height="5" transform="rotate(0,172.5,87.5)"/><rect x="180" y="85" width="5" height="5" transform="rotate(0,182.5,87.5)"/><rect x="185" y="85" width="5" height="5" transform="rotate(0,187.5,87.5)"/><rect x="195" y="85" width="5" height="5" transform="rotate(0,197.5,87.5)"/><rect x="205" y="85" width="5" height="5" transform="rotate(0,207.5,87.5)"/><rect x="10" y="90" width="5" height="5" transform="rotate(0,12.5,92.5)"/><rect x="25" y="90" width="5" height="5" transform="rotate(0,27.5,92.5)"/><rect x="30" y="90" width="5" height="5" transform="rotate(0,32.5,92.5)"/><rect x="35" y="90" width="5" height="5" transform="rotate(0,37.5,92.5)"/><rect x="40" y="90" width="5" height="5" transform="rotate(0,42.5,92.5)"/><rect x="45" y="90" width="5" height="5" transform="rotate(0,47.5,92.5)"/><rect x="50" y="90" width="5" height="5" transform="rotate(0,52.5,92.5)"/><rect x="60" y="90" width="5" height="5" transform="rotate(0,62.5,92.5)"/><rect x="65" y="90" width="5" height="5" transform="rotate(0,67.5,92.5)"/><rect x="70" y="90" width="5" height="5" transform="rotate(0,72.5,92.5)"/><rect x="75" y="90" width="5" height="5" transform="rotate(0,77.5,92.5)"/><rect x="80" y="90" width="5" height="5" transform="rotate(0,82.5,92.5)"/><rect x="110" y="90" width="5" height="5" transform="rotate(0,112.5,92.5)"/><rect x="120" y="90" width="5" height="5" transform="rotate(0,122.5,92.5)"/><rect x="125" y="90" width="5" height="5" transform="rotate(0,127.5,92.5)"/><rect x="130" y="90" width="5" height="5" transform="rotate(0,132.5,92.5)"/><rect x="135" y="90" width="5" height="5" transform="rotate(0,137.5,92.5)"/><rect x="140" y="90" width="5" height="5" transform="rotate(0,142.5,92.5)"/><rect x="145" y="90" width="5" height="5" transform="rotate(0,147.5,92.5)"/><rect x="155" y="90" width="5" height="5" transform="rotate(0,157.5,92.5)"/><rect x="170" y="90" width="5" height="5" transform="rotate(0,172.5,92.5)"/><rect x="175" y="90" width="5" height="5" transform="rotate(0,177.5,92.5)"/><rect x="185" y="90" width="5" height="5" transform="rotate(0,187.5,92.5)"/><rect x="200" y="90" width="5" height="5" transform="rotate(0,202.5,92.5)"/><rect x="15" y="95" width="5" height="5" transform="rotate(0,17.5,97.5)"/><rect x="30" y="95" width="5" height="5" transform="rotate(0,32.5,97.5)"/><rect x="35" y="95" width="5" height="5" transform="rotate(0,37.5,97.5)"/><rect x="50" y="95" width="5" height="5" transform="rotate(0,52.5,97.5)"/><rect x="75" y="95" width="5" height="5" transform="rotate(0,77.5,97.5)"/><rect x="105" y="95" width="5" height="5" transform="rotate(0,107.5,97.5)"/><rect x="110" y="95" width="5" height="5" transform="rotate(0,112.5,97.5)"/><rect x="125" y="95" width="5" height="5" transform="rotate(0,127.5,97.5)"/><rect x="150" y="95" width="5" height="5" transform="rotate(0,152.5,97.5)"/><rect x="155" y="95" width="5" height="5" transform="rotate(0,157.5,97.5)"/><rect x="160" y="95" width="5" height="5" transform="rotate(0,162.5,97.5)"/><rect x="165" y="95" width="5" height="5" transform="rotate(0,167.5,97.5)"/><rect x="180" y="95" width="5" height="5" transform="rotate(0,182.5,97.5)"/><rect x="185" y="95" width="5" height="5" transform="rotate(0,187.5,97.5)"/><rect x="190" y="95" width="5" height="5" transform="rotate(0,192.5,97.5)"/><rect x="205" y="95" width="5" height="5" transform="rotate(0,207.5,97.5)"/><rect x="210" y="95" width="5" height="5" transform="rotate(0,212.5,97.5)"/><rect x="20" y="100" width="5" height="5" transform="rotate(0,22.5,102.5)"/><rect x="25" y="100" width="5" height="5" transform="rotate(0,27.5,102.5)"/><rect x="40" y="100" width="5" height="5" transform="rotate(0,42.5,102.5)"/><rect x="45" y="100" width="5" height="5" transform="rotate(0,47.5,102.5)"/><rect x="55" y="100" width="5" height="5" transform="rotate(0,57.5,102.5)"/><rect x="75" y="100" width="5" height="5" transform="rotate(0,77.5,102.5)"/><rect x="100" y="100" width="5" height="5" transform="rotate(0,102.5,102.5)"/><rect x="105" y="100" width="5" height="5" transform="rotate(0,107.5,102.5)"/><rect x="110" y="100" width="5" height="5" transform="rotate(0,112.5,102.5)"/><rect x="115" y="100" width="5" height="5" transform="rotate(0,117.5,102.5)"/><rect x="130" y="100" width="5" height="5" transform="rotate(0,132.5,102.5)"/><rect x="145" y="100" width="5" height="5" transform="rotate(0,147.5,102.5)"/><rect x="155" y="100" width="5" height="5" transform="rotate(0,157.5,102.5)"/><rect x="180" y="100" width="5" height="5" transform="rotate(0,182.5,102.5)"/><rect x="190" y="100" width="5" height="5" transform="rotate(0,192.5,102.5)"/><rect x="195" y="100" width="5" height="5" transform="rotate(0,197.5,102.5)"/><rect x="205" y="100" width="5" height="5" transform="rotate(0,207.5,102.5)"/><rect x="10" y="105" width="5" height="5" transform="rotate(0,12.5,107.5)"/><rect x="15" y="105" width="5" height="5" transform="rotate(0,17.5,107.5)"/><rect x="20" y="105" width="5" height="5" transform="rotate(0,22.5,107.5)"/><rect x="25" y="105" width="5" height="5" transform="rotate(0,27.5,107.5)"/><rect x="35" y="105" width="5" height="5" transform="rotate(0,37.5,107.5)"/><rect x="50" y="105" width="5" height="5" transform="rotate(0,52.5,107.5)"/><rect x="70" y="105" width="5" height="5" transform="rotate(0,72.5,107.5)"/><rect x="75" y="105" width="5" height="5" transform="rotate(0,77.5,107.5)"/><rect x="90" y="105" width="5" height="5" transform="rotate(0,92.5,107.5)"/><rect x="105" y="105" width="5" height="5" transform="rotate(0,107.5,107.5)"/><rect x="125" y="105" width="5" height="5" transform="rotate(0,127.5,107.5)"/><rect x="140" y="105" width="5" height="5" transform="rotate(0,142.5,107.5)"/><rect x="150" y="105" width="5" height="5" transform="rotate(0,152.5,107.5)"/><rect x="155" y="105" width="5" height="5" transform="rotate(0,157.5,107.5)"/><rect x="160" y="105" width="5" height="5" transform="rotate(0,162.5,107.5)"/><rect x="170" y="105" width="5" height="5" transform="rotate(0,172.5,107.5)"/><rect x="180" y="105" width="5" height="5" transform="rotate(0,182.5,107.5)"/><rect x="190" y="105" width="5" height="5" transform="rotate(0,192.5,107.5)"/><rect x="195" y="105" width="5" height="5" transform="rotate(0,197.5,107.5)"/><rect x="15" y="110" width="5" height="5" transform="rotate(0,17.5,112.5)"/><rect x="20" y="110" width="5" height="5" transform="rotate(0,22.5,112.5)"/><rect x="40" y="110" width="5" height="5" transform="rotate(0,42.5,112.5)"/><rect x="45" y="110" width="5" height="5" transform="rotate(0,47.5,112.5)"/><rect x="55" y="110" width="5" height="5" transform="rotate(0,57.5,112.5)"/><rect x="70" y="110" width="5" height="5" transform="rotate(0,72.5,112.5)"/><rect x="80" y="110" width="5" height="5" transform="rotate(0,82.5,112.5)"/><rect x="95" y="110" width="5" height="5" transform="rotate(0,97.5,112.5)"/><rect x="100" y="110" width="5" height="5" transform="rotate(0,102.5,112.5)"/><rect x="110" y="110" width="5" height="5" transform="rotate(0,112.5,112.5)"/><rect x="115" y="110" width="5" height="5" transform="rotate(0,117.5,112.5)"/><rect x="125" y="110" width="5" height="5" transform="rotate(0,127.5,112.5)"/><rect x="130" y="110" width="5" height="5" transform="rotate(0,132.5,112.5)"/><rect x="150" y="110" width="5" height="5" transform="rotate(0,152.5,112.5)"/><rect x="200" y="110" width="5" height="5" transform="rotate(0,202.5,112.5)"/><rect x="10" y="115" width="5" height="5" transform="rotate(0,12.5,117.5)"/><rect x="35" y="115" width="5" height="5" transform="rotate(0,37.5,117.5)"/><rect x="45" y="115" width="5" height="5" transform="rotate(0,47.5,117.5)"/><rect x="55" y="115" width="5" height="5" transform="rotate(0,57.5,117.5)"/><rect x="60" y="115" width="5" height="5" transform="rotate(0,62.5,117.5)"/><rect x="65" y="115" width="5" height="5" transform="rotate(0,67.5,117.5)"/><rect x="70" y="115" width="5" height="5" transform="rotate(0,72.5,117.5)"/><rect x="90" y="115" width="5" height="5" transform="rotate(0,92.5,117.5)"/><rect x="100" y="115" width="5" height="5" transform="rotate(0,102.5,117.5)"/><rect x="110" y="115" width="5" height="5" transform="rotate(0,112.5,117.5)"/><rect x="115" y="115" width="5" height="5" transform="rotate(0,117.5,117.5)"/><rect x="125" y="115" width="5" height="5" transform="rotate(0,127.5,117.5)"/><rect x="135" y="115" width="5" height="5" transform="rotate(0,137.5,117.5)"/><rect x="140" y="115" width="5" height="5" transform="rotate(0,142.5,117.5)"/><rect x="150" y="115" width="5" height="5" transform="rotate(0,152.5,117.5)"/><rect x="155" y="115" width="5" height="5" transform="rotate(0,157.5,117.5)"/><rect x="160" y="115" width="5" height="5" transform="rotate(0,162.5,117.5)"/><rect x="165" y="115" width="5" height="5" transform="rotate(0,167.5,117.5)"/><rect x="170" y="115" width="5" height="5" transform="rotate(0,172.5,117.5)"/><rect x="180" y="115" width="5" height="5" transform="rotate(0,182.5,117.5)"/><rect x="185" y="115" width="5" height="5" transform="rotate(0,187.5,117.5)"/><rect x="190" y="115" width="5" height="5" transform="rotate(0,192.5,117.5)"/><rect x="205" y="115" width="5" height="5" transform="rotate(0,207.5,117.5)"/><rect x="210" y="115" width="5" height="5" transform="rotate(0,212.5,117.5)"/><rect x="10" y="120" width="5" height="5" transform="rotate(0,12.5,122.5)"/><rect x="15" y="120" width="5" height="5" transform="rotate(0,17.5,122.5)"/><rect x="35" y="120" width="5" height="5" transform="rotate(0,37.5,122.5)"/><rect x="40" y="120" width="5" height="5" transform="rotate(0,42.5,122.5)"/><rect x="45" y="120" width="5" height="5" transform="rotate(0,47.5,122.5)"/><rect x="55" y="120" width="5" height="5" transform="rotate(0,57.5,122.5)"/><rect x="75" y="120" width="5" height="5" transform="rotate(0,77.5,122.5)"/><rect x="80" y="120" width="5" height="5" transform="rotate(0,82.5,122.5)"/><rect x="90" y="120" width="5" height="5" transform="rotate(0,92.5,122.5)"/><rect x="95" y="120" width="5" height="5" transform="rotate(0,97.5,122.5)"/><rect x="100" y="120" width="5" height="5" transform="rotate(0,102.5,122.5)"/><rect x="105" y="120" width="5" height="5" transform="rotate(0,107.5,122.5)"/><rect x="115" y="120" width="5" height="5" transform="rotate(0,117.5,122.5)"/><rect x="120" y="120" width="5" height="5" transform="rotate(0,122.5,122.5)"/><rect x="130" y="120" width="5" height="5" transform="rotate(0,132.5,122.5)"/><rect x="135" y="120" width="5" height="5" transform="rotate(0,137.5,122.5)"/><rect x="140" y="120" width="5" height="5" transform="rotate(0,142.5,122.5)"/><rect x="145" y="120" width="5" height="5" transform="rotate(0,147.5,122.5)"/><rect x="150" y="120" width="5" height="5" transform="rotate(0,152.5,122.5)"/><rect x="180" y="120" width="5" height="5" transform="rotate(0,182.5,122.5)"/><rect x="185" y="120" width="5" height="5" transform="rotate(0,187.5,122.5)"/><rect x="190" y="120" width="5" height="5" transform="rotate(0,192.5,122.5)"/><rect x="195" y="120" width="5" height="5" transform="rotate(0,197.5,122.5)"/><rect x="25" y="125" width="5" height="5" transform="rotate(0,27.5,127.5)"/><rect x="30" y="125" width="5" height="5" transform="rotate(0,32.5,127.5)"/><rect x="45" y="125" width="5" height="5" transform="rotate(0,47.5,127.5)"/><rect x="50" y="125" width="5" height="5" transform="rotate(0,52.5,127.5)"/><rect x="60" y="125" width="5" height="5" transform="rotate(0,62.5,127.5)"/><rect x="65" y="125" width="5" height="5" transform="rotate(0,67.5,127.5)"/><rect x="75" y="125" width="5" height="5" transform="rotate(0,77.5,127.5)"/><rect x="85" y="125" width="5" height="5" transform="rotate(0,87.5,127.5)"/><rect x="90" y="125" width="5" height="5" transform="rotate(0,92.5,127.5)"/><rect x="95" y="125" width="5" height="5" transform="rotate(0,97.5,127.5)"/><rect x="105" y="125" width="5" height="5" transform="rotate(0,107.5,127.5)"/><rect x="110" y="125" width="5" height="5" transform="rotate(0,112.5,127.5)"/><rect x="140" y="125" width="5" height="5" transform="rotate(0,142.5,127.5)"/><rect x="145" y="125" width="5" height="5" transform="rotate(0,147.5,127.5)"/><rect x="160" y="125" width="5" height="5" transform="rotate(0,162.5,127.5)"/><rect x="170" y="125" width="5" height="5" transform="rotate(0,172.5,127.5)"/><rect x="180" y="125" width="5" height="5" transform="rotate(0,182.5,127.5)"/><rect x="185" y="125" width="5" height="5" transform="rotate(0,187.5,127.5)"/><rect x="195" y="125" width="5" height="5" transform="rotate(0,197.5,127.5)"/><rect x="40" y="130" width="5" height="5" transform="rotate(0,42.5,132.5)"/><rect x="55" y="130" width="5" height="5" transform="rotate(0,57.5,132.5)"/><rect x="60" y="130" width="5" height="5" transform="rotate(0,62.5,132.5)"/><rect x="65" y="130" width="5" height="5" transform="rotate(0,67.5,132.5)"/><rect x="80" y="130" width="5" height="5" transform="rotate(0,82.5,132.5)"/><rect x="85" y="130" width="5" height="5" transform="rotate(0,87.5,132.5)"/><rect x="105" y="130" width="5" height="5" transform="rotate(0,107.5,132.5)"/><rect x="110" y="130" width="5" height="5" transform="rotate(0,112.5,132.5)"/><rect x="120" y="130" width="5" height="5" transform="rotate(0,122.5,132.5)"/><rect x="130" y="130" width="5" height="5" transform="rotate(0,132.5,132.5)"/><rect x="135" y="130" width="5" height="5" transform="rotate(0,137.5,132.5)"/><rect x="140" y="130" width="5" height="5" transform="rotate(0,142.5,132.5)"/><rect x="145" y="130" width="5" height="5" transform="rotate(0,147.5,132.5)"/><rect x="155" y="130" width="5" height="5" transform="rotate(0,157.5,132.5)"/><rect x="185" y="130" width="5" height="5" transform="rotate(0,187.5,132.5)"/><rect x="200" y="130" width="5" height="5" transform="rotate(0,202.5,132.5)"/><rect x="205" y="130" width="5" height="5" transform="rotate(0,207.5,132.5)"/><rect x="25" y="135" width="5" height="5" transform="rotate(0,27.5,137.5)"/><rect x="55" y="135" width="5" height="5" transform="rotate(0,57.5,137.5)"/><rect x="70" y="135" width="5" height="5" transform="rotate(0,72.5,137.5)"/><rect x="80" y="135" width="5" height="5" transform="rotate(0,82.5,137.5)"/><rect x="85" y="135" width="5" height="5" transform="rotate(0,87.5,137.5)"/><rect x="95" y="135" width="5" height="5" transform="rotate(0,97.5,137.5)"/><rect x="110" y="135" width="5" height="5" transform="rotate(0,112.5,137.5)"/><rect x="125" y="135" width="5" height="5" transform="rotate(0,127.5,137.5)"/><rect x="160" y="135" width="5" height="5" transform="rotate(0,162.5,137.5)"/><rect x="165" y="135" width="5" height="5" transform="rotate(0,167.5,137.5)"/><rect x="175" y="135" width="5" height="5" transform="rotate(0,177.5,137.5)"/><rect x="180" y="135" width="5" height="5" transform="rotate(0,182.5,137.5)"/><rect x="185" y="135" width="5" height="5" transform="rotate(0,187.5,137.5)"/><rect x="190" y="135" width="5" height="5" transform="rotate(0,192.5,137.5)"/><rect x="195" y="135" width="5" height="5" transform="rotate(0,197.5,137.5)"/><rect x="210" y="135" width="5" height="5" transform="rotate(0,212.5,137.5)"/><rect x="15" y="140" width="5" height="5" transform="rotate(0,17.5,142.5)"/><rect x="20" y="140" width="5" height="5" transform="rotate(0,22.5,142.5)"/><rect x="35" y="140" width="5" height="5" transform="rotate(0,37.5,142.5)"/><rect x="40" y="140" width="5" height="5" transform="rotate(0,42.5,142.5)"/><rect x="75" y="140" width="5" height="5" transform="rotate(0,77.5,142.5)"/><rect x="85" y="140" width="5" height="5" transform="rotate(0,87.5,142.5)"/><rect x="90" y="140" width="5" height="5" transform="rotate(0,92.5,142.5)"/><rect x="100" y="140" width="5" height="5" transform="rotate(0,102.5,142.5)"/><rect x="110" y="140" width="5" height="5" transform="rotate(0,112.5,142.5)"/><rect x="115" y="140" width="5" height="5" transform="rotate(0,117.5,142.5)"/><rect x="120" y="140" width="5" height="5" transform="rotate(0,122.5,142.5)"/><rect x="135" y="140" width="5" height="5" transform="rotate(0,137.5,142.5)"/><rect x="145" y="140" width="5" height="5" transform="rotate(0,147.5,142.5)"/><rect x="150" y="140" width="5" height="5" transform="rotate(0,152.5,142.5)"/><rect x="170" y="140" width="5" height="5" transform="rotate(0,172.5,142.5)"/><rect x="175" y="140" width="5" height="5" transform="rotate(0,177.5,142.5)"/><rect x="190" y="140" width="5" height="5" transform="rotate(0,192.5,142.5)"/><rect x="15" y="145" width="5" height="5" transform="rotate(0,17.5,147.5)"/><rect x="20" y="145" width="5" height="5" transform="rotate(0,22.5,147.5)"/><rect x="55" y="145" width="5" height="5" transform="rotate(0,57.5,147.5)"/><rect x="60" y="145" width="5" height="5" transform="rotate(0,62.5,147.5)"/><rect x="65" y="145" width="5" height="5" transform="rotate(0,67.5,147.5)"/><rect x="70" y="145" width="5" height="5" transform="rotate(0,72.5,147.5)"/><rect x="75" y="145" width="5" height="5" transform="rotate(0,77.5,147.5)"/><rect x="90" y="145" width="5" height="5" transform="rotate(0,92.5,147.5)"/><rect x="100" y="145" width="5" height="5" transform="rotate(0,102.5,147.5)"/><rect x="110" y="145" width="5" height="5" transform="rotate(0,112.5,147.5)"/><rect x="125" y="145" width="5" height="5" transform="rotate(0,127.5,147.5)"/><rect x="140" y="145" width="5" height="5" transform="rotate(0,142.5,147.5)"/><rect x="145" y="145" width="5" height="5" transform="rotate(0,147.5,147.5)"/><rect x="165" y="145" width="5" height="5" transform="rotate(0,167.5,147.5)"/><rect x="170" y="145" width="5" height="5" transform="rotate(0,172.5,147.5)"/><rect x="175" y="145" width="5" height="5" transform="rotate(0,177.5,147.5)"/><rect x="180" y="145" width="5" height="5" transform="rotate(0,182.5,147.5)"/><rect x="185" y="145" width="5" height="5" transform="rotate(0,187.5,147.5)"/><rect x="195" y="145" width="5" height="5" transform="rotate(0,197.5,147.5)"/><rect x="20" y="150" width="5" height="5" transform="rotate(0,22.5,152.5)"/><rect x="25" y="150" width="5" height="5" transform="rotate(0,27.5,152.5)"/><rect x="35" y="150" width="5" height="5" transform="rotate(0,37.5,152.5)"/><rect x="40" y="150" width="5" height="5" transform="rotate(0,42.5,152.5)"/><rect x="50" y="150" width="5" height="5" transform="rotate(0,52.5,152.5)"/><rect x="55" y="150" width="5" height="5" transform="rotate(0,57.5,152.5)"/><rect x="60" y="150" width="5" height="5" transform="rotate(0,62.5,152.5)"/><rect x="65" y="150" width="5" height="5" transform="rotate(0,67.5,152.5)"/><rect x="70" y="150" width="5" height="5" transform="rotate(0,72.5,152.5)"/><rect x="80" y="150" width="5" height="5" transform="rotate(0,82.5,152.5)"/><rect x="85" y="150" width="5" height="5" transform="rotate(0,87.5,152.5)"/><rect x="105" y="150" width="5" height="5" transform="rotate(0,107.5,152.5)"/><rect x="110" y="150" width="5" height="5" transform="rotate(0,112.5,152.5)"/><rect x="115" y="150" width="5" height="5" transform="rotate(0,117.5,152.5)"/><rect x="135" y="150" width="5" height="5" transform="rotate(0,137.5,152.5)"/><rect x="155" y="150" width="5" height="5" transform="rotate(0,157.5,152.5)"/><rect x="160" y="150" width="5" height="5" transform="rotate(0,162.5,152.5)"/><rect x="165" y="150" width="5" height="5" transform="rotate(0,167.5,152.5)"/><rect x="195" y="150" width="5" height="5" transform="rotate(0,197.5,152.5)"/><rect x="200" y="150" width="5" height="5" transform="rotate(0,202.5,152.5)"/><rect x="205" y="150" width="5" height="5" transform="rotate(0,207.5,152.5)"/><rect x="10" y="155" width="5" height="5" transform="rotate(0,12.5,157.5)"/><rect x="25" y="155" width="5" height="5" transform="rotate(0,27.5,157.5)"/><rect x="35" y="155" width="5" height="5" transform="rotate(0,37.5,157.5)"/><rect x="45" y="155" width="5" height="5" transform="rotate(0,47.5,157.5)"/><rect x="50" y="155" width="5" height="5" transform="rotate(0,52.5,157.5)"/><rect x="60" y="155" width="5" height="5" transform="rotate(0,62.5,157.5)"/><rect x="65" y="155" width="5" height="5" transform="rotate(0,67.5,157.5)"/><rect x="75" y="155" width="5" height="5" transform="rotate(0,77.5,157.5)"/><rect x="85" y="155" width="5" height="5" transform="rotate(0,87.5,157.5)"/><rect x="100" y="155" width="5" height="5" transform="rotate(0,102.5,157.5)"/><rect x="115" y="155" width="5" height="5" transform="rotate(0,117.5,157.5)"/><rect x="130" y="155" width="5" height="5" transform="rotate(0,132.5,157.5)"/><rect x="145" y="155" width="5" height="5" transform="rotate(0,147.5,157.5)"/><rect x="150" y="155" width="5" height="5" transform="rotate(0,152.5,157.5)"/><rect x="155" y="155" width="5" height="5" transform="rotate(0,157.5,157.5)"/><rect x="160" y="155" width="5" height="5" transform="rotate(0,162.5,157.5)"/><rect x="165" y="155" width="5" height="5" transform="rotate(0,167.5,157.5)"/><rect x="170" y="155" width="5" height="5" transform="rotate(0,172.5,157.5)"/><rect x="175" y="155" width="5" height="5" transform="rotate(0,177.5,157.5)"/><rect x="180" y="155" width="5" height="5" transform="rotate(0,182.5,157.5)"/><rect x="185" y="155" width="5" height="5" transform="rotate(0,187.5,157.5)"/><rect x="190" y="155" width="5" height="5" transform="rotate(0,192.5,157.5)"/><rect x="210" y="155" width="5" height="5" transform="rotate(0,212.5,157.5)"/><rect x="10" y="160" width="5" height="5" transform="rotate(0,12.5,162.5)"/><rect x="35" y="160" width="5" height="5" transform="rotate(0,37.5,162.5)"/><rect x="40" y="160" width="5" height="5" transform="rotate(0,42.5,162.5)"/><rect x="45" y="160" width="5" height="5" transform="rotate(0,47.5,162.5)"/><rect x="50" y="160" width="5" height="5" transform="rotate(0,52.5,162.5)"/><rect x="60" y="160" width="5" height="5" transform="rotate(0,62.5,162.5)"/><rect x="70" y="160" width="5" height="5" transform="rotate(0,72.5,162.5)"/><rect x="75" y="160" width="5" height="5" transform="rotate(0,77.5,162.5)"/><rect x="85" y="160" width="5" height="5" transform="rotate(0,87.5,162.5)"/><rect x="105" y="160" width="5" height="5" transform="rotate(0,107.5,162.5)"/><rect x="120" y="160" width="5" height="5" transform="rotate(0,122.5,162.5)"/><rect x="155" y="160" width="5" height="5" transform="rotate(0,157.5,162.5)"/><rect x="170" y="160" width="5" height="5" transform="rotate(0,172.5,162.5)"/><rect x="175" y="160" width="5" height="5" transform="rotate(0,177.5,162.5)"/><rect x="180" y="160" width="5" height="5" transform="rotate(0,182.5,162.5)"/><rect x="185" y="160" width="5" height="5" transform="rotate(0,187.5,162.5)"/><rect x="195" y="160" width="5" height="5" transform="rotate(0,197.5,162.5)"/><rect x="200" y="160" width="5" height="5" transform="rotate(0,202.5,162.5)"/><rect x="10" y="165" width="5" height="5" transform="rotate(0,12.5,167.5)"/><rect x="20" y="165" width="5" height="5" transform="rotate(0,22.5,167.5)"/><rect x="25" y="165" width="5" height="5" transform="rotate(0,27.5,167.5)"/><rect x="30" y="165" width="5" height="5" transform="rotate(0,32.5,167.5)"/><rect x="35" y="165" width="5" height="5" transform="rotate(0,37.5,167.5)"/><rect x="45" y="165" width="5" height="5" transform="rotate(0,47.5,167.5)"/><rect x="50" y="165" width="5" height="5" transform="rotate(0,52.5,167.5)"/><rect x="55" y="165" width="5" height="5" transform="rotate(0,57.5,167.5)"/><rect x="70" y="165" width="5" height="5" transform="rotate(0,72.5,167.5)"/><rect x="75" y="165" width="5" height="5" transform="rotate(0,77.5,167.5)"/><rect x="90" y="165" width="5" height="5" transform="rotate(0,92.5,167.5)"/><rect x="95" y="165" width="5" height="5" transform="rotate(0,97.5,167.5)"/><rect x="105" y="165" width="5" height="5" transform="rotate(0,107.5,167.5)"/><rect x="130" y="165" width="5" height="5" transform="rotate(0,132.5,167.5)"/><rect x="140" y="165" width="5" height="5" transform="rotate(0,142.5,167.5)"/><rect x="150" y="165" width="5" height="5" transform="rotate(0,152.5,167.5)"/><rect x="165" y="165" width="5" height="5" transform="rotate(0,167.5,167.5)"/><rect x="175" y="165" width="5" height="5" transform="rotate(0,177.5,167.5)"/><rect x="180" y="165" width="5" height="5" transform="rotate(0,182.5,167.5)"/><rect x="185" y="165" width="5" height="5" transform="rotate(0,187.5,167.5)"/><rect x="195" y="165" width="5" height="5" transform="rotate(0,197.5,167.5)"/><rect x="10" y="170" width="5" height="5" transform="rotate(0,12.5,172.5)"/><rect x="20" y="170" width="5" height="5" transform="rotate(0,22.5,172.5)"/><rect x="25" y="170" width="5" height="5" transform="rotate(0,27.5,172.5)"/><rect x="35" y="170" width="5" height="5" transform="rotate(0,37.5,172.5)"/><rect x="40" y="170" width="5" height="5" transform="rotate(0,42.5,172.5)"/><rect x="55" y="170" width="5" height="5" transform="rotate(0,57.5,172.5)"/><rect x="60" y="170" width="5" height="5" transform="rotate(0,62.5,172.5)"/><rect x="70" y="170" width="5" height="5" transform="rotate(0,72.5,172.5)"/><rect x="90" y="170" width="5" height="5" transform="rotate(0,92.5,172.5)"/><rect x="95" y="170" width="5" height="5" transform="rotate(0,97.5,172.5)"/><rect x="130" y="170" width="5" height="5" transform="rotate(0,132.5,172.5)"/><rect x="135" y="170" width="5" height="5" transform="rotate(0,137.5,172.5)"/><rect x="140" y="170" width="5" height="5" transform="rotate(0,142.5,172.5)"/><rect x="155" y="170" width="5" height="5" transform="rotate(0,157.5,172.5)"/><rect x="165" y="170" width="5" height="5" transform="rotate(0,167.5,172.5)"/><rect x="170" y="170" width="5" height="5" transform="rotate(0,172.5,172.5)"/><rect x="175" y="170" width="5" height="5" transform="rotate(0,177.5,172.5)"/><rect x="180" y="170" width="5" height="5" transform="rotate(0,182.5,172.5)"/><rect x="185" y="170" width="5" height="5" transform="rotate(0,187.5,172.5)"/><rect x="190" y="170" width="5" height="5" transform="rotate(0,192.5,172.5)"/><rect x="200" y="170" width="5" height="5" transform="rotate(0,202.5,172.5)"/><rect x="50" y="175" width="5" height="5" transform="rotate(0,52.5,177.5)"/><rect x="65" y="175" width="5" height="5" transform="rotate(0,67.5,177.5)"/><rect x="70" y="175" width="5" height="5" transform="rotate(0,72.5,177.5)"/><rect x="80" y="175" width="5" height="5" transform="rotate(0,82.5,177.5)"/><rect x="100" y="175" width="5" height="5" transform="rotate(0,102.5,177.5)"/><rect x="105" y="175" width="5" height="5" transform="rotate(0,107.5,177.5)"/><rect x="110" y="175" width="5" height="5" transform="rotate(0,112.5,177.5)"/><rect x="125" y="175" width="5" height="5" transform="rotate(0,127.5,177.5)"/><rect x="130" y="175" width="5" height="5" transform="rotate(0,132.5,177.5)"/><rect x="135" y="175" width="5" height="5" transform="rotate(0,137.5,177.5)"/><rect x="160" y="175" width="5" height="5" transform="rotate(0,162.5,177.5)"/><rect x="170" y="175" width="5" height="5" transform="rotate(0,172.5,177.5)"/><rect x="190" y="175" width="5" height="5" transform="rotate(0,192.5,177.5)"/><rect x="200" y="175" width="5" height="5" transform="rotate(0,202.5,177.5)"/><rect x="205" y="175" width="5" height="5" transform="rotate(0,207.5,177.5)"/><rect x="210" y="175" width="5" height="5" transform="rotate(0,212.5,177.5)"/><rect x="50" y="180" width="5" height="5" transform="rotate(0,52.5,182.5)"/><rect x="55" y="180" width="5" height="5" transform="rotate(0,57.5,182.5)"/><rect x="65" y="180" width="5" height="5" transform="rotate(0,67.5,182.5)"/><rect x="75" y="180" width="5" height="5" transform="rotate(0,77.5,182.5)"/><rect x="85" y="180" width="5" height="5" transform="rotate(0,87.5,182.5)"/><rect x="90" y="180" width="5" height="5" transform="rotate(0,92.5,182.5)"/><rect x="95" y="180" width="5" height="5" transform="rotate(0,97.5,182.5)"/><rect x="100" y="180" width="5" height="5" transform="rotate(0,102.5,182.5)"/><rect x="105" y="180" width="5" height="5" transform="rotate(0,107.5,182.5)"/><rect x="115" y="180" width="5" height="5" transform="rotate(0,117.5,182.5)"/><rect x="120" y="180" width="5" height="5" transform="rotate(0,122.5,182.5)"/><rect x="130" y="180" width="5" height="5" transform="rotate(0,132.5,182.5)"/><rect x="135" y="180" width="5" height="5" transform="rotate(0,137.5,182.5)"/><rect x="140" y="180" width="5" height="5" transform="rotate(0,142.5,182.5)"/><rect x="145" y="180" width="5" height="5" transform="rotate(0,147.5,182.5)"/><rect x="150" y="180" width="5" height="5" transform="rotate(0,152.5,182.5)"/><rect x="160" y="180" width="5" height="5" transform="rotate(0,162.5,182.5)"/><rect x="165" y="180" width="5" height="5" transform="rotate(0,167.5,182.5)"/><rect x="170" y="180" width="5" height="5" transform="rotate(0,172.5,182.5)"/><rect x="180" y="180" width="5" height="5" transform="rotate(0,182.5,182.5)"/><rect x="190" y="180" width="5" height="5" transform="rotate(0,192.5,182.5)"/><rect x="195" y="180" width="5" height="5" transform="rotate(0,197.5,182.5)"/><rect x="50" y="185" width="5" height="5" transform="rotate(0,52.5,187.5)"/><rect x="65" y="185" width="5" height="5" transform="rotate(0,67.5,187.5)"/><rect x="90" y="185" width="5" height="5" transform="rotate(0,92.5,187.5)"/><rect x="95" y="185" width="5" height="5" transform="rotate(0,97.5,187.5)"/><rect x="105" y="185" width="5" height="5" transform="rotate(0,107.5,187.5)"/><rect x="110" y="185" width="5" height="5" transform="rotate(0,112.5,187.5)"/><rect x="120" y="185" width="5" height="5" transform="rotate(0,122.5,187.5)"/><rect x="125" y="185" width="5" height="5" transform="rotate(0,127.5,187.5)"/><rect x="135" y="185" width="5" height="5" transform="rotate(0,137.5,187.5)"/><rect x="145" y="185" width="5" height="5" transform="rotate(0,147.5,187.5)"/><rect x="150" y="185" width="5" height="5" transform="rotate(0,152.5,187.5)"/><rect x="165" y="185" width="5" height="5" transform="rotate(0,167.5,187.5)"/><rect x="170" y="185" width="5" height="5" transform="rotate(0,172.5,187.5)"/><rect x="190" y="185" width="5" height="5" transform="rotate(0,192.5,187.5)"/><rect x="195" y="185" width="5" height="5" transform="rotate(0,197.5,187.5)"/><rect x="205" y="185" width="5" height="5" transform="rotate(0,207.5,187.5)"/><rect x="50" y="190" width="5" height="5" transform="rotate(0,52.5,192.5)"/><rect x="85" y="190" width="5" height="5" transform="rotate(0,87.5,192.5)"/><rect x="90" y="190" width="5" height="5" transform="rotate(0,92.5,192.5)"/><rect x="115" y="190" width="5" height="5" transform="rotate(0,117.5,192.5)"/><rect x="125" y="190" width="5" height="5" transform="rotate(0,127.5,192.5)"/><rect x="130" y="190" width="5" height="5" transform="rotate(0,132.5,192.5)"/><rect x="140" y="190" width="5" height="5" transform="rotate(0,142.5,192.5)"/><rect x="160" y="190" width="5" height="5" transform="rotate(0,162.5,192.5)"/><rect x="170" y="190" width="5" height="5" transform="rotate(0,172.5,192.5)"/><rect x="175" y="190" width="5" height="5" transform="rotate(0,177.5,192.5)"/><rect x="180" y="190" width="5" height="5" transform="rotate(0,182.5,192.5)"/><rect x="185" y="190" width="5" height="5" transform="rotate(0,187.5,192.5)"/><rect x="190" y="190" width="5" height="5" transform="rotate(0,192.5,192.5)"/><rect x="200" y="190" width="5" height="5" transform="rotate(0,202.5,192.5)"/><rect x="210" y="190" width="5" height="5" transform="rotate(0,212.5,192.5)"/><rect x="50" y="195" width="5" height="5" transform="rotate(0,52.5,197.5)"/><rect x="65" y="195" width="5" height="5" transform="rotate(0,67.5,197.5)"/><rect x="70" y="195" width="5" height="5" transform="rotate(0,72.5,197.5)"/><rect x="75" y="195" width="5" height="5" transform="rotate(0,77.5,197.5)"/><rect x="90" y="195" width="5" height="5" transform="rotate(0,92.5,197.5)"/><rect x="95" y="195" width="5" height="5" transform="rotate(0,97.5,197.5)"/><rect x="100" y="195" width="5" height="5" transform="rotate(0,102.5,197.5)"/><rect x="110" y="195" width="5" height="5" transform="rotate(0,112.5,197.5)"/><rect x="120" y="195" width="5" height="5" transform="rotate(0,122.5,197.5)"/><rect x="125" y="195" width="5" height="5" transform="rotate(0,127.5,197.5)"/><rect x="135" y="195" width="5" height="5" transform="rotate(0,137.5,197.5)"/><rect x="150" y="195" width="5" height="5" transform="rotate(0,152.5,197.5)"/><rect x="165" y="195" width="5" height="5" transform="rotate(0,167.5,197.5)"/><rect x="175" y="195" width="5" height="5" transform="rotate(0,177.5,197.5)"/><rect x="185" y="195" width="5" height="5" transform="rotate(0,187.5,197.5)"/><rect x="195" y="195" width="5" height="5" transform="rotate(0,197.5,197.5)"/><rect x="200" y="195" width="5" height="5" transform="rotate(0,202.5,197.5)"/><rect x="205" y="195" width="5" height="5" transform="rotate(0,207.5,197.5)"/><rect x="50" y="200" width="5" height="5" transform="rotate(0,52.5,202.5)"/><rect x="55" y="200" width="5" height="5" transform="rotate(0,57.5,202.5)"/><rect x="65" y="200" width="5" height="5" transform="rotate(0,67.5,202.5)"/><rect x="80" y="200" width="5" height="5" transform="rotate(0,82.5,202.5)"/><rect x="85" y="200" width="5" height="5" transform="rotate(0,87.5,202.5)"/><rect x="90" y="200" width="5" height="5" transform="rotate(0,92.5,202.5)"/><rect x="95" y="200" width="5" height="5" transform="rotate(0,97.5,202.5)"/><rect x="105" y="200" width="5" height="5" transform="rotate(0,107.5,202.5)"/><rect x="115" y="200" width="5" height="5" transform="rotate(0,117.5,202.5)"/><rect x="135" y="200" width="5" height="5" transform="rotate(0,137.5,202.5)"/><rect x="140" y="200" width="5" height="5" transform="rotate(0,142.5,202.5)"/><rect x="145" y="200" width="5" height="5" transform="rotate(0,147.5,202.5)"/><rect x="150" y="200" width="5" height="5" transform="rotate(0,152.5,202.5)"/><rect x="160" y="200" width="5" height="5" transform="rotate(0,162.5,202.5)"/><rect x="170" y="200" width="5" height="5" transform="rotate(0,172.5,202.5)"/><rect x="175" y="200" width="5" height="5" transform="rotate(0,177.5,202.5)"/><rect x="180" y="200" width="5" height="5" transform="rotate(0,182.5,202.5)"/><rect x="185" y="200" width="5" height="5" transform="rotate(0,187.5,202.5)"/><rect x="190" y="200" width="5" height="5" transform="rotate(0,192.5,202.5)"/><rect x="200" y="200" width="5" height="5" transform="rotate(0,202.5,202.5)"/><rect x="50" y="205" width="5" height="5" transform="rotate(0,52.5,207.5)"/><rect x="55" y="205" width="5" height="5" transform="rotate(0,57.5,207.5)"/><rect x="70" y="205" width="5" height="5" transform="rotate(0,72.5,207.5)"/><rect x="75" y="205" width="5" height="5" transform="rotate(0,77.5,207.5)"/><rect x="80" y="205" width="5" height="5" transform="rotate(0,82.5,207.5)"/><rect x="90" y="205" width="5" height="5" transform="rotate(0,92.5,207.5)"/><rect x="95" y="205" width="5" height="5" transform="rotate(0,97.5,207.5)"/><rect x="100" y="205" width="5" height="5" transform="rotate(0,102.5,207.5)"/><rect x="125" y="205" width="5" height="5" transform="rotate(0,127.5,207.5)"/><rect x="140" y="205" width="5" height="5" transform="rotate(0,142.5,207.5)"/><rect x="150" y="205" width="5" height="5" transform="rotate(0,152.5,207.5)"/><rect x="165" y="205" width="5" height="5" transform="rotate(0,167.5,207.5)"/><rect x="170" y="205" width="5" height="5" transform="rotate(0,172.5,207.5)"/><rect x="175" y="205" width="5" height="5" transform="rotate(0,177.5,207.5)"/><rect x="190" y="205" width="5" height="5" transform="rotate(0,192.5,207.5)"/><rect x="195" y="205" width="5" height="5" transform="rotate(0,197.5,207.5)"/><rect x="205" y="205" width="5" height="5" transform="rotate(0,207.5,207.5)"/><rect x="60" y="210" width="5" height="5" transform="rotate(0,62.5,212.5)"/><rect x="75" y="210" width="5" height="5" transform="rotate(0,77.5,212.5)"/><rect x="80" y="210" width="5" height="5" transform="rotate(0,82.5,212.5)"/><rect x="85" y="210" width="5" height="5" transform="rotate(0,87.5,212.5)"/><rect x="100" y="210" width="5" height="5" transform="rotate(0,102.5,212.5)"/><rect x="110" y="210" width="5" height="5" transform="rotate(0,112.5,212.5)"/><rect x="120" y="210" width="5" height="5" transform="rotate(0,122.5,212.5)"/><rect x="125" y="210" width="5" height="5" transform="rotate(0,127.5,212.5)"/><rect x="130" y="210" width="5" height="5" transform="rotate(0,132.5,212.5)"/><rect x="135" y="210" width="5" height="5" transform="rotate(0,137.5,212.5)"/><rect x="140" y="210" width="5" height="5" transform="rotate(0,142.5,212.5)"/><rect x="150" y="210" width="5" height="5" transform="rotate(0,152.5,212.5)"/><rect x="155" y="210" width="5" height="5" transform="rotate(0,157.5,212.5)"/><rect x="165" y="210" width="5" height="5" transform="rotate(0,167.5,212.5)"/><rect x="180" y="210" width="5" height="5" transform="rotate(0,182.5,212.5)"/><rect x="185" y="210" width="5" height="5" transform="rotate(0,187.5,212.5)"/><rect x="190" y="210" width="5" height="5" transform="rotate(0,192.5,212.5)"/><rect x="200" y="210" width="5" height="5" transform="rotate(0,202.5,212.5)"/></g></svg>