<?xml version="1.0" encoding="utf-8"?>
<!-- Generator: Adobe Illustrator 27.6.1, SVG Export Plug-In . SVG Version: 6.00 Build 0)  -->
<svg version="1.1" id="Слой_1" xmlns="http://www.w3.org/2000/svg" xmlns:xlink="http://www.w3.org/1999/xlink" x="0px" y="0px"
	 viewBox="0 0 1012.8 1080" style="enable-background:new 0 0 1012.8 1080;" xml:space="preserve">
<style type="text/css">
	.st0{fill:#503CC3;}
	.st1{fill:#FFFFFF;}
	.st2{fill:#1D1D1B;}
	.st3{fill:#1C1C1C;}
</style>
<g>
	<path class="st0" d="M897.5,824.3l-39.3-397.5c-17.5-177.3-18-177.3-185.2-177.3L574,41.9h-67.7l98.7,207.6H407.8l98.6-207.6h-67.9
		l-98.6,207.6h0.1c-167.6,0-167.9,0-185.4,177.3l-39.3,397.5c-17.5,178-21.7,213.8,154.6,213.8h473.3
		C918.7,1038.1,915.2,1002.3,897.5,824.3z"/>
	<polygon class="st1" points="638.5,855.8 741.8,855.8 609.6,431.7 506.4,431.7 580,668.1 432.7,668.1 506.4,431.7 403.3,431.7 
		270.9,855.8 374.2,855.8 401.3,768.8 611.4,768.8 	"/>
</g>
</svg>
