<svg width="159" height="37" viewBox="0 0 159 37" fill="none" xmlns="http://www.w3.org/2000/svg">
<rect width="159" height="37" rx="18.5" fill="#B4B4B4"/>
<path d="M18.5576 12.1152H26.3975V23.4795H27.5576V28.0059H26.0371V25H17.5205V28.0059H16V23.4795H17.002C18.0391 21.915 18.5576 18.7539 18.5576 13.9961V12.1152ZM24.6924 13.6357H20.2012V14.2949C20.2012 15.3906 20.1016 16.8906 19.9023 18.7949C19.709 20.6934 19.3252 22.2549 18.751 23.4795H24.6924V13.6357ZM30.1592 15.666H37.5068V25H35.9336V16.9756H31.7412V21.625C31.7412 22.709 31.7061 23.4238 31.6357 23.7695C31.5654 24.1152 31.3721 24.417 31.0557 24.6748C30.7393 24.9326 30.2822 25.0615 29.6846 25.0615C29.3154 25.0615 28.8906 25.0381 28.4102 24.9912V23.6729H29.1045C29.4326 23.6729 29.667 23.6406 29.8076 23.5762C29.9482 23.5059 30.042 23.3975 30.0889 23.251C30.1357 23.1045 30.1592 22.627 30.1592 21.8184V15.666ZM47.2451 15.666V25H45.6719V21.3613H44.7578C44.2012 21.3613 43.7852 21.4346 43.5098 21.5811C43.2402 21.7217 42.8447 22.1816 42.3232 22.9609L40.9434 25H38.9834L40.6885 22.4863C41.21 21.7188 41.7285 21.2852 42.2441 21.1855C41.3418 21.0625 40.6709 20.7373 40.2314 20.21C39.7979 19.6826 39.5811 19.0762 39.5811 18.3906C39.5811 17.582 39.8652 16.9258 40.4336 16.4219C41.0078 15.918 41.8369 15.666 42.9209 15.666H47.2451ZM45.6719 16.9756H43.4219C42.4785 16.9756 41.8691 17.1221 41.5938 17.415C41.3242 17.708 41.1895 18.0508 41.1895 18.4434C41.1895 19 41.3887 19.4102 41.7871 19.6738C42.1914 19.9316 42.9033 20.0605 43.9229 20.0605H45.6719V16.9756ZM54.6719 15.666H62.0371V25H60.4551V16.9756H56.2539V25H54.6719V15.666ZM64.4189 28.5771V15.666H65.8604V16.8789C66.2002 16.4043 66.584 16.0498 67.0117 15.8154C67.4395 15.5752 67.958 15.4551 68.5674 15.4551C69.3643 15.4551 70.0674 15.6602 70.6768 16.0703C71.2861 16.4805 71.7461 17.0605 72.0566 17.8105C72.3672 18.5547 72.5225 19.3721 72.5225 20.2627C72.5225 21.2178 72.3496 22.0791 72.0039 22.8467C71.6641 23.6084 71.166 24.1943 70.5098 24.6045C69.8594 25.0088 69.1738 25.2109 68.4531 25.2109C67.9258 25.2109 67.4512 25.0996 67.0293 24.877C66.6133 24.6543 66.2705 24.373 66.001 24.0332V28.5771H64.4189ZM65.8516 20.3857C65.8516 21.5869 66.0947 22.4746 66.5811 23.0488C67.0674 23.623 67.6562 23.9102 68.3477 23.9102C69.0508 23.9102 69.6514 23.6143 70.1494 23.0225C70.6533 22.4248 70.9053 21.502 70.9053 20.2539C70.9053 19.0645 70.6592 18.1738 70.167 17.582C69.6807 16.9902 69.0977 16.6943 68.418 16.6943C67.7441 16.6943 67.1465 17.0107 66.625 17.6436C66.1094 18.2705 65.8516 19.1846 65.8516 20.3857ZM73.8496 20.333C73.8496 18.6045 74.3301 17.3242 75.291 16.4922C76.0938 15.8008 77.0723 15.4551 78.2266 15.4551C79.5098 15.4551 80.5586 15.877 81.373 16.7207C82.1875 17.5586 82.5947 18.7188 82.5947 20.2012C82.5947 21.4023 82.4131 22.3486 82.0498 23.04C81.6924 23.7256 81.168 24.2588 80.4766 24.6396C79.791 25.0205 79.041 25.2109 78.2266 25.2109C76.9199 25.2109 75.8623 24.792 75.0537 23.9541C74.251 23.1162 73.8496 21.9092 73.8496 20.333ZM75.4756 20.333C75.4756 21.5283 75.7363 22.4248 76.2578 23.0225C76.7793 23.6143 77.4355 23.9102 78.2266 23.9102C79.0117 23.9102 79.665 23.6113 80.1865 23.0137C80.708 22.416 80.9688 21.5049 80.9688 20.2803C80.9688 19.126 80.7051 18.2529 80.1777 17.6611C79.6562 17.0635 79.0059 16.7646 78.2266 16.7646C77.4355 16.7646 76.7793 17.0605 76.2578 17.6523C75.7363 18.2441 75.4756 19.1377 75.4756 20.333ZM85.3018 15.666H91.8057V23.6992H92.8164V27.6455H91.5156V25H84.168V27.6455H82.8672V23.6992H83.7021C84.8154 22.1875 85.3486 19.5098 85.3018 15.666ZM86.6201 16.9756C86.5029 20.0049 86.0342 22.2461 85.2139 23.6992H90.2324V16.9756H86.6201ZM100.656 23.8486C100.07 24.3467 99.5049 24.6982 98.96 24.9033C98.4209 25.1084 97.8408 25.2109 97.2197 25.2109C96.1943 25.2109 95.4062 24.9619 94.8555 24.4639C94.3047 23.96 94.0293 23.3184 94.0293 22.5391C94.0293 22.082 94.1318 21.666 94.3369 21.291C94.5479 20.9102 94.8203 20.6055 95.1543 20.377C95.4941 20.1484 95.875 19.9756 96.2969 19.8584C96.6074 19.7764 97.0762 19.6973 97.7031 19.6211C98.9805 19.4688 99.9209 19.2871 100.524 19.0762C100.53 18.8594 100.533 18.7217 100.533 18.6631C100.533 18.0186 100.384 17.5645 100.085 17.3008C99.6807 16.9434 99.0801 16.7646 98.2832 16.7646C97.5391 16.7646 96.9883 16.8965 96.6309 17.1602C96.2793 17.418 96.0186 17.8779 95.8486 18.54L94.3018 18.3291C94.4424 17.667 94.6738 17.1338 94.9961 16.7295C95.3184 16.3193 95.7842 16.0059 96.3936 15.7891C97.0029 15.5664 97.709 15.4551 98.5117 15.4551C99.3086 15.4551 99.9561 15.5488 100.454 15.7363C100.952 15.9238 101.318 16.1611 101.553 16.4482C101.787 16.7295 101.951 17.0869 102.045 17.5205C102.098 17.79 102.124 18.2764 102.124 18.9795V21.0889C102.124 22.5596 102.156 23.4912 102.221 23.8838C102.291 24.2705 102.426 24.6426 102.625 25H100.973C100.809 24.6719 100.703 24.2881 100.656 23.8486ZM100.524 20.3154C99.9502 20.5498 99.0889 20.749 97.9404 20.9131C97.29 21.0068 96.8301 21.1123 96.5605 21.2295C96.291 21.3467 96.083 21.5195 95.9365 21.748C95.79 21.9707 95.7168 22.2197 95.7168 22.4951C95.7168 22.917 95.875 23.2686 96.1914 23.5498C96.5137 23.8311 96.9824 23.9717 97.5977 23.9717C98.207 23.9717 98.749 23.8398 99.2236 23.5762C99.6982 23.3066 100.047 22.9404 100.27 22.4775C100.439 22.1201 100.524 21.5928 100.524 20.8955V20.3154ZM104.594 15.666H108.241C109.138 15.666 109.803 15.7422 110.236 15.8945C110.676 16.041 111.051 16.3135 111.361 16.7119C111.678 17.1104 111.836 17.5879 111.836 18.1445C111.836 18.5898 111.742 18.9795 111.555 19.3135C111.373 19.6416 111.098 19.917 110.729 20.1396C111.168 20.2861 111.531 20.5615 111.818 20.9658C112.111 21.3643 112.258 21.8389 112.258 22.3896C112.199 23.2744 111.883 23.9307 111.309 24.3584C110.734 24.7861 109.899 25 108.804 25H104.594V15.666ZM106.176 19.5947H107.863C108.537 19.5947 109 19.5596 109.252 19.4893C109.504 19.4189 109.729 19.2783 109.929 19.0674C110.128 18.8506 110.228 18.5928 110.228 18.2939C110.228 17.8018 110.052 17.459 109.7 17.2656C109.354 17.0723 108.76 16.9756 107.916 16.9756H106.176V19.5947ZM106.176 23.6992H108.259C109.155 23.6992 109.771 23.5967 110.104 23.3916C110.438 23.1807 110.614 22.8203 110.632 22.3105C110.632 22.0117 110.535 21.7363 110.342 21.4844C110.148 21.2266 109.896 21.0654 109.586 21.001C109.275 20.9307 108.777 20.8955 108.092 20.8955H106.176V23.6992ZM114.174 15.666H115.756V23.6992H120.133V15.666H121.715V23.6992H122.734V27.6455H121.434V25H114.174V15.666ZM123.666 20.333C123.666 18.6045 124.146 17.3242 125.107 16.4922C125.91 15.8008 126.889 15.4551 128.043 15.4551C129.326 15.4551 130.375 15.877 131.189 16.7207C132.004 17.5586 132.411 18.7188 132.411 20.2012C132.411 21.4023 132.229 22.3486 131.866 23.04C131.509 23.7256 130.984 24.2588 130.293 24.6396C129.607 25.0205 128.857 25.2109 128.043 25.2109C126.736 25.2109 125.679 24.792 124.87 23.9541C124.067 23.1162 123.666 21.9092 123.666 20.333ZM125.292 20.333C125.292 21.5283 125.553 22.4248 126.074 23.0225C126.596 23.6143 127.252 23.9102 128.043 23.9102C128.828 23.9102 129.481 23.6113 130.003 23.0137C130.524 22.416 130.785 21.5049 130.785 20.2803C130.785 19.126 130.521 18.2529 129.994 17.6611C129.473 17.0635 128.822 16.7646 128.043 16.7646C127.252 16.7646 126.596 17.0605 126.074 17.6523C125.553 18.2441 125.292 19.1377 125.292 20.333ZM134.283 15.666H137.931C138.827 15.666 139.492 15.7422 139.926 15.8945C140.365 16.041 140.74 16.3135 141.051 16.7119C141.367 17.1104 141.525 17.5879 141.525 18.1445C141.525 18.5898 141.432 18.9795 141.244 19.3135C141.062 19.6416 140.787 19.917 140.418 20.1396C140.857 20.2861 141.221 20.5615 141.508 20.9658C141.801 21.3643 141.947 21.8389 141.947 22.3896C141.889 23.2744 141.572 23.9307 140.998 24.3584C140.424 24.7861 139.589 25 138.493 25H134.283V15.666ZM135.865 19.5947H137.553C138.227 19.5947 138.689 19.5596 138.941 19.4893C139.193 19.4189 139.419 19.2783 139.618 19.0674C139.817 18.8506 139.917 18.5928 139.917 18.2939C139.917 17.8018 139.741 17.459 139.39 17.2656C139.044 17.0723 138.449 16.9756 137.605 16.9756H135.865V19.5947ZM135.865 23.6992H137.948C138.845 23.6992 139.46 23.5967 139.794 23.3916C140.128 23.1807 140.304 22.8203 140.321 22.3105C140.321 22.0117 140.225 21.7363 140.031 21.4844C139.838 21.2266 139.586 21.0654 139.275 21.001C138.965 20.9307 138.467 20.8955 137.781 20.8955H135.865V23.6992Z" fill="white"/>
</svg>
