<svg width="280" height="37" viewBox="0 0 280 37" fill="none" xmlns="http://www.w3.org/2000/svg">
<rect width="280" height="37" rx="18.5" fill="#E61E78"/>
<path d="M17.3184 25V12.1152H22.1523C23.1367 12.1152 23.9248 12.2471 24.5166 12.5107C25.1143 12.7686 25.5801 13.1699 25.9141 13.7148C26.2539 14.2539 26.4238 14.8193 26.4238 15.4111C26.4238 15.9619 26.2744 16.4805 25.9756 16.9668C25.6768 17.4531 25.2256 17.8457 24.6221 18.1445C25.4014 18.373 25.999 18.7627 26.415 19.3135C26.8369 19.8643 27.0479 20.5146 27.0479 21.2646C27.0479 21.8682 26.9189 22.4307 26.6611 22.9521C26.4092 23.4678 26.0957 23.8662 25.7207 24.1475C25.3457 24.4287 24.874 24.6426 24.3057 24.7891C23.7432 24.9297 23.0518 25 22.2314 25H17.3184ZM19.0234 17.5293H21.8096C22.5654 17.5293 23.1074 17.4795 23.4355 17.3799C23.8691 17.251 24.1943 17.0371 24.4111 16.7383C24.6338 16.4395 24.7451 16.0645 24.7451 15.6133C24.7451 15.1855 24.6426 14.8105 24.4375 14.4883C24.2324 14.1602 23.9395 13.9375 23.5586 13.8203C23.1777 13.6973 22.5244 13.6357 21.5986 13.6357H19.0234V17.5293ZM19.0234 23.4795H22.2314C22.7822 23.4795 23.1689 23.459 23.3916 23.418C23.7842 23.3477 24.1123 23.2305 24.376 23.0664C24.6396 22.9023 24.8564 22.665 25.0264 22.3545C25.1963 22.0381 25.2812 21.6748 25.2812 21.2646C25.2812 20.7842 25.1582 20.3682 24.9121 20.0166C24.666 19.6592 24.3232 19.4102 23.8838 19.2695C23.4502 19.123 22.8232 19.0498 22.0029 19.0498H19.0234V23.4795ZM34.2109 15.666H41.5762V25H39.9941V16.9756H35.793V25H34.2109V15.666ZM43.958 28.5771V15.666H45.3994V16.8789C45.7393 16.4043 46.123 16.0498 46.5508 15.8154C46.9785 15.5752 47.4971 15.4551 48.1064 15.4551C48.9033 15.4551 49.6064 15.6602 50.2158 16.0703C50.8252 16.4805 51.2852 17.0605 51.5957 17.8105C51.9062 18.5547 52.0615 19.3721 52.0615 20.2627C52.0615 21.2178 51.8887 22.0791 51.543 22.8467C51.2031 23.6084 50.7051 24.1943 50.0488 24.6045C49.3984 25.0088 48.7129 25.2109 47.9922 25.2109C47.4648 25.2109 46.9902 25.0996 46.5684 24.877C46.1523 24.6543 45.8096 24.373 45.54 24.0332V28.5771H43.958ZM45.3906 20.3857C45.3906 21.5869 45.6338 22.4746 46.1201 23.0488C46.6064 23.623 47.1953 23.9102 47.8867 23.9102C48.5898 23.9102 49.1904 23.6143 49.6885 23.0225C50.1924 22.4248 50.4443 21.502 50.4443 20.2539C50.4443 19.0645 50.1982 18.1738 49.7061 17.582C49.2197 16.9902 48.6367 16.6943 47.957 16.6943C47.2832 16.6943 46.6855 17.0107 46.1641 17.6436C45.6484 18.2705 45.3906 19.1846 45.3906 20.3857ZM53.9775 15.666H55.5596V22.7852L59.9453 15.666H61.6504V25H60.0684V17.9248L55.6826 25H53.9775V15.666ZM64.8057 15.666H72.1533V25H70.5801V16.9756H66.3877V21.625C66.3877 22.709 66.3525 23.4238 66.2822 23.7695C66.2119 24.1152 66.0186 24.417 65.7021 24.6748C65.3857 24.9326 64.9287 25.0615 64.3311 25.0615C63.9619 25.0615 63.5371 25.0381 63.0566 24.9912V23.6729H63.751C64.0791 23.6729 64.3135 23.6406 64.4541 23.5762C64.5947 23.5059 64.6885 23.3975 64.7354 23.251C64.7822 23.1045 64.8057 22.627 64.8057 21.8184V15.666ZM74.166 20.333C74.166 18.6045 74.6465 17.3242 75.6074 16.4922C76.4102 15.8008 77.3887 15.4551 78.543 15.4551C79.8262 15.4551 80.875 15.877 81.6895 16.7207C82.5039 17.5586 82.9111 18.7188 82.9111 20.2012C82.9111 21.4023 82.7295 22.3486 82.3662 23.04C82.0088 23.7256 81.4844 24.2588 80.793 24.6396C80.1074 25.0205 79.3574 25.2109 78.543 25.2109C77.2363 25.2109 76.1787 24.792 75.3701 23.9541C74.5674 23.1162 74.166 21.9092 74.166 20.333ZM75.792 20.333C75.792 21.5283 76.0527 22.4248 76.5742 23.0225C77.0957 23.6143 77.752 23.9102 78.543 23.9102C79.3281 23.9102 79.9814 23.6113 80.5029 23.0137C81.0244 22.416 81.2852 21.5049 81.2852 20.2803C81.2852 19.126 81.0215 18.2529 80.4941 17.6611C79.9727 17.0635 79.3223 16.7646 78.543 16.7646C77.752 16.7646 77.0957 17.0605 76.5742 17.6523C76.0527 18.2441 75.792 19.1377 75.792 20.333ZM90.2061 15.666V19.7002C90.71 19.7002 91.0645 19.6035 91.2695 19.4102C91.4746 19.2168 91.7734 18.6543 92.166 17.7227C92.5352 16.8379 92.8662 16.2725 93.1592 16.0264C93.4463 15.7861 93.9033 15.666 94.5303 15.666H95.1104V16.9756L94.6797 16.9668C94.2578 16.9668 93.9883 17.0283 93.8711 17.1514C93.748 17.2803 93.5605 17.6641 93.3086 18.3027C93.0742 18.9121 92.8574 19.334 92.6582 19.5684C92.459 19.8027 92.1484 20.0166 91.7266 20.21C92.4121 20.3916 93.0801 21.0244 93.7305 22.1084L95.4707 25H93.7305L92.0342 22.1084C91.6885 21.5225 91.3867 21.1387 91.1289 20.957C90.8711 20.7754 90.5635 20.6846 90.2061 20.6846V25H88.5889V20.6846C88.2373 20.6846 87.9326 20.7754 87.6748 20.957C87.417 21.1328 87.1152 21.5166 86.7695 22.1084L85.0732 25H83.333L85.0645 22.1084C85.7207 21.0244 86.3916 20.3916 87.0771 20.21C86.6084 19.9932 86.2803 19.7588 86.0928 19.5068C85.9053 19.249 85.624 18.6396 85.249 17.6787C85.1201 17.3564 84.9824 17.1572 84.8359 17.0811C84.6836 17.0049 84.458 16.9668 84.1592 16.9668C84.083 16.9668 83.9277 16.9697 83.6934 16.9756V15.666H83.9131C84.5225 15.666 84.9502 15.7041 85.1963 15.7803C85.4482 15.8506 85.6709 16.0059 85.8643 16.2461C86.0635 16.4805 86.3213 16.9727 86.6377 17.7227C87.0244 18.6426 87.3174 19.2021 87.5166 19.4014C87.7217 19.6006 88.0791 19.7002 88.5889 19.7002V15.666H90.2061ZM102.994 21.9941L104.629 22.1963C104.371 23.1514 103.894 23.8926 103.196 24.4199C102.499 24.9473 101.608 25.2109 100.524 25.2109C99.1592 25.2109 98.0752 24.792 97.2725 23.9541C96.4756 23.1104 96.0771 21.9297 96.0771 20.4121C96.0771 18.8418 96.4814 17.623 97.29 16.7559C98.0986 15.8887 99.1475 15.4551 100.437 15.4551C101.685 15.4551 102.704 15.8799 103.495 16.7295C104.286 17.5791 104.682 18.7744 104.682 20.3154C104.682 20.4092 104.679 20.5498 104.673 20.7373H97.7119C97.7705 21.7627 98.0605 22.5479 98.582 23.0928C99.1035 23.6377 99.7539 23.9102 100.533 23.9102C101.113 23.9102 101.608 23.7578 102.019 23.4531C102.429 23.1484 102.754 22.6621 102.994 21.9941ZM97.7998 19.4365H103.012C102.941 18.6514 102.742 18.0625 102.414 17.6699C101.91 17.0605 101.257 16.7559 100.454 16.7559C99.7275 16.7559 99.1152 16.999 98.6172 17.4854C98.125 17.9717 97.8525 18.6221 97.7998 19.4365ZM106.633 15.666H108.215V19.5508H112.601V15.666H114.183V25H112.601V20.8604H108.215V25H106.633V15.666ZM116.573 15.666H118.155V22.7852L122.541 15.666H124.246V25H122.664V17.9248L118.278 25H116.573V15.666ZM126.628 15.666H128.21V22.7852L132.596 15.666H134.301V25H132.719V17.9248L128.333 25H126.628V15.666ZM141.622 28.5947L141.446 27.1094C141.792 27.2031 142.094 27.25 142.352 27.25C142.703 27.25 142.984 27.1914 143.195 27.0742C143.406 26.957 143.579 26.793 143.714 26.582C143.813 26.4238 143.975 26.0312 144.197 25.4043C144.227 25.3164 144.273 25.1875 144.338 25.0176L140.796 15.666H142.501L144.443 21.0713C144.695 21.7568 144.921 22.4775 145.12 23.2334C145.302 22.5068 145.519 21.7979 145.771 21.1064L147.766 15.666H149.348L145.797 25.1582C145.416 26.1836 145.12 26.8896 144.909 27.2764C144.628 27.7979 144.306 28.1787 143.942 28.4189C143.579 28.665 143.146 28.7881 142.642 28.7881C142.337 28.7881 141.997 28.7236 141.622 28.5947ZM151.343 15.666H157.847V23.6992H158.857V27.6455H157.557V25H150.209V27.6455H148.908V23.6992H149.743C150.856 22.1875 151.39 19.5098 151.343 15.666ZM152.661 16.9756C152.544 20.0049 152.075 22.2461 151.255 23.6992H156.273V16.9756H152.661ZM160.018 20.333C160.018 18.6045 160.498 17.3242 161.459 16.4922C162.262 15.8008 163.24 15.4551 164.395 15.4551C165.678 15.4551 166.727 15.877 167.541 16.7207C168.355 17.5586 168.763 18.7188 168.763 20.2012C168.763 21.4023 168.581 22.3486 168.218 23.04C167.86 23.7256 167.336 24.2588 166.645 24.6396C165.959 25.0205 165.209 25.2109 164.395 25.2109C163.088 25.2109 162.03 24.792 161.222 23.9541C160.419 23.1162 160.018 21.9092 160.018 20.333ZM161.644 20.333C161.644 21.5283 161.904 22.4248 162.426 23.0225C162.947 23.6143 163.604 23.9102 164.395 23.9102C165.18 23.9102 165.833 23.6113 166.354 23.0137C166.876 22.416 167.137 21.5049 167.137 20.2803C167.137 19.126 166.873 18.2529 166.346 17.6611C165.824 17.0635 165.174 16.7646 164.395 16.7646C163.604 16.7646 162.947 17.0605 162.426 17.6523C161.904 18.2441 161.644 19.1377 161.644 20.333ZM177.464 11.8076L178.861 11.8252C178.797 12.4521 178.656 12.8887 178.439 13.1348C178.229 13.3809 177.953 13.5391 177.613 13.6094C177.279 13.6797 176.62 13.7148 175.636 13.7148C174.329 13.7148 173.438 13.8408 172.964 14.0928C172.489 14.3447 172.146 14.749 171.936 15.3057C171.73 15.8564 171.616 16.5684 171.593 17.4414C171.991 16.8496 172.457 16.4072 172.99 16.1143C173.523 15.8154 174.124 15.666 174.792 15.666C176.017 15.666 177.03 16.0879 177.833 16.9316C178.636 17.7695 179.037 18.9062 179.037 20.3418C179.037 21.4316 178.835 22.3252 178.431 23.0225C178.026 23.7197 177.546 24.2588 176.989 24.6396C176.438 25.0205 175.686 25.2109 174.73 25.2109C173.623 25.2109 172.762 24.959 172.146 24.4551C171.531 23.9453 171.06 23.2949 170.731 22.5039C170.403 21.7129 170.239 20.3359 170.239 18.373C170.239 15.9062 170.655 14.2451 171.487 13.3896C172.325 12.5342 173.611 12.1064 175.346 12.1064C176.424 12.1064 177.036 12.0889 177.183 12.0537C177.329 12.0186 177.423 11.9365 177.464 11.8076ZM177.385 20.2979C177.385 19.3252 177.153 18.5283 176.69 17.9072C176.233 17.2861 175.586 16.9756 174.748 16.9756C173.875 16.9756 173.201 17.3037 172.727 17.96C172.252 18.6162 172.015 19.4922 172.015 20.5879C172.015 21.6719 172.275 22.501 172.797 23.0752C173.324 23.6494 173.972 23.9365 174.739 23.9365C175.524 23.9365 176.16 23.6055 176.646 22.9434C177.139 22.2754 177.385 21.3936 177.385 20.2979ZM180.953 15.666H182.535V19.5508H186.921V15.666H188.503V25H186.921V20.8604H182.535V25H180.953V15.666ZM197.283 21.9941L198.918 22.1963C198.66 23.1514 198.183 23.8926 197.485 24.4199C196.788 24.9473 195.897 25.2109 194.813 25.2109C193.448 25.2109 192.364 24.792 191.562 23.9541C190.765 23.1104 190.366 21.9297 190.366 20.4121C190.366 18.8418 190.771 17.623 191.579 16.7559C192.388 15.8887 193.437 15.4551 194.726 15.4551C195.974 15.4551 196.993 15.8799 197.784 16.7295C198.575 17.5791 198.971 18.7744 198.971 20.3154C198.971 20.4092 198.968 20.5498 198.962 20.7373H192.001C192.06 21.7627 192.35 22.5479 192.871 23.0928C193.393 23.6377 194.043 23.9102 194.822 23.9102C195.402 23.9102 195.897 23.7578 196.308 23.4531C196.718 23.1484 197.043 22.6621 197.283 21.9941ZM192.089 19.4365H197.301C197.23 18.6514 197.031 18.0625 196.703 17.6699C196.199 17.0605 195.546 16.7559 194.743 16.7559C194.017 16.7559 193.404 16.999 192.906 17.4854C192.414 17.9717 192.142 18.6221 192.089 19.4365ZM207.303 21.9941L208.938 22.1963C208.68 23.1514 208.202 23.8926 207.505 24.4199C206.808 24.9473 205.917 25.2109 204.833 25.2109C203.468 25.2109 202.384 24.792 201.581 23.9541C200.784 23.1104 200.386 21.9297 200.386 20.4121C200.386 18.8418 200.79 17.623 201.599 16.7559C202.407 15.8887 203.456 15.4551 204.745 15.4551C205.993 15.4551 207.013 15.8799 207.804 16.7295C208.595 17.5791 208.99 18.7744 208.99 20.3154C208.99 20.4092 208.987 20.5498 208.981 20.7373H202.021C202.079 21.7627 202.369 22.5479 202.891 23.0928C203.412 23.6377 204.062 23.9102 204.842 23.9102C205.422 23.9102 205.917 23.7578 206.327 23.4531C206.737 23.1484 207.062 22.6621 207.303 21.9941ZM202.108 19.4365H207.32C207.25 18.6514 207.051 18.0625 206.723 17.6699C206.219 17.0605 205.565 16.7559 204.763 16.7559C204.036 16.7559 203.424 16.999 202.926 17.4854C202.434 17.9717 202.161 18.6221 202.108 19.4365Z" fill="white"/>
<path d="M257.711 16.4435L256.973 16.317C256.956 16.4275 256.961 16.5407 256.99 16.6486C257.019 16.7566 257.07 16.8568 257.141 16.9423C257.211 17.0277 257.298 17.0964 257.397 17.1434C257.495 17.1905 257.602 17.2149 257.711 17.2149V16.4435ZM246.748 16.4435V15.6721C246.549 15.6721 246.359 15.7534 246.219 15.898C246.079 16.0427 246 16.2389 246 16.4435H246.748ZM248.741 27.5H260.063V25.9572H248.741V27.5ZM261.259 15.6721H257.711V17.2149H261.259V15.6721ZM258.448 16.57L259.252 11.5971L257.777 11.3431L256.973 16.317L258.448 16.57ZM257.531 9.50103H257.318V11.0438H257.53L257.531 9.50103ZM254.208 11.2186L251.701 15.0992L252.945 15.9549L255.451 12.0744L254.208 11.2186ZM250.664 15.6721H246.748V17.2149H250.664V15.6721ZM246 16.4435V24.6716H247.495V16.4435H246ZM262.751 25.227L263.947 19.0559L262.482 18.7525L261.286 24.9236L262.751 25.227ZM251.701 15.0992C251.587 15.2754 251.433 15.4188 251.252 15.5188C251.071 15.6187 250.87 15.671 250.664 15.6711V17.2138C251.581 17.2138 252.436 16.7418 252.945 15.9549L251.701 15.0992ZM259.252 11.5971C259.293 11.3394 259.28 11.0743 259.213 10.8224C259.145 10.5705 259.026 10.3367 258.862 10.1374C258.698 9.93799 258.494 9.7778 258.265 9.66791C258.035 9.55802 257.785 9.50107 257.531 9.50103L257.53 11.0438C257.567 11.0439 257.603 11.0521 257.636 11.0678C257.669 11.0836 257.698 11.1065 257.721 11.1349C257.744 11.1634 257.762 11.1968 257.771 11.2327C257.781 11.2687 257.783 11.3063 257.777 11.3431L259.252 11.5971ZM261.259 17.2138C262.046 17.2138 262.634 17.9564 262.481 18.7515L263.947 19.0549C264.026 18.6446 264.016 18.2202 263.918 17.8144C263.82 17.4085 263.635 17.0302 263.378 16.7067C263.121 16.3833 262.798 16.1227 262.431 15.9438C262.065 15.7649 261.664 15.6721 261.259 15.6721V17.2138ZM260.063 27.5C260.697 27.5001 261.311 27.2727 261.801 26.8583C262.291 26.4439 262.627 25.8671 262.751 25.226L261.286 24.9225C261.229 25.2142 261.077 25.4767 260.854 25.6652C260.631 25.8536 260.351 25.9575 260.063 25.9572V27.5ZM257.318 9.50103C256.703 9.50107 256.097 9.65684 255.555 9.95647C255.012 10.2561 254.55 10.6893 254.209 11.2176L255.451 12.0744C255.656 11.7572 255.934 11.4962 256.26 11.3164C256.585 11.1366 256.949 11.0437 257.318 11.0438V9.50103ZM248.741 25.9572C248.053 25.9572 247.495 25.3813 247.495 24.6716H246C246 25.4217 246.289 26.1411 246.803 26.6716C247.317 27.202 248.014 27.5 248.741 27.5V25.9572Z" fill="white"/>
<path d="M250.734 16.4434V26.7285" stroke="white" stroke-width="1.5"/>
</svg>
