<svg width="137" height="46" viewBox="0 0 137 46" fill="none" xmlns="http://www.w3.org/2000/svg">
<rect width="137" height="46" rx="23" fill="#503CC3"/>
<path d="M17.3184 29.5V16.6152H22.1523C23.1367 16.6152 23.9248 16.7471 24.5166 17.0107C25.1143 17.2686 25.5801 17.6699 25.9141 18.2148C26.2539 18.7539 26.4238 19.3193 26.4238 19.9111C26.4238 20.4619 26.2744 20.9805 25.9756 21.4668C25.6768 21.9531 25.2256 22.3457 24.6221 22.6445C25.4014 22.873 25.999 23.2627 26.415 23.8135C26.8369 24.3643 27.0479 25.0146 27.0479 25.7646C27.0479 26.3682 26.9189 26.9307 26.6611 27.4521C26.4092 27.9678 26.0957 28.3662 25.7207 28.6475C25.3457 28.9287 24.874 29.1426 24.3057 29.2891C23.7432 29.4297 23.0518 29.5 22.2314 29.5H17.3184ZM19.0234 22.0293H21.8096C22.5654 22.0293 23.1074 21.9795 23.4355 21.8799C23.8691 21.751 24.1943 21.5371 24.4111 21.2383C24.6338 20.9395 24.7451 20.5645 24.7451 20.1133C24.7451 19.6855 24.6426 19.3105 24.4375 18.9883C24.2324 18.6602 23.9395 18.4375 23.5586 18.3203C23.1777 18.1973 22.5244 18.1357 21.5986 18.1357H19.0234V22.0293ZM19.0234 27.9795H22.2314C22.7822 27.9795 23.1689 27.959 23.3916 27.918C23.7842 27.8477 24.1123 27.7305 24.376 27.5664C24.6396 27.4023 24.8564 27.165 25.0264 26.8545C25.1963 26.5381 25.2812 26.1748 25.2812 25.7646C25.2812 25.2842 25.1582 24.8682 24.9121 24.5166C24.666 24.1592 24.3232 23.9102 23.8838 23.7695C23.4502 23.623 22.8232 23.5498 22.0029 23.5498H19.0234V27.9795ZM28.6035 24.833C28.6035 23.1045 29.084 21.8242 30.0449 20.9922C30.8477 20.3008 31.8262 19.9551 32.9805 19.9551C34.2637 19.9551 35.3125 20.377 36.127 21.2207C36.9414 22.0586 37.3486 23.2188 37.3486 24.7012C37.3486 25.9023 37.167 26.8486 36.8037 27.54C36.4463 28.2256 35.9219 28.7588 35.2305 29.1396C34.5449 29.5205 33.7949 29.7109 32.9805 29.7109C31.6738 29.7109 30.6162 29.292 29.8076 28.4541C29.0049 27.6162 28.6035 26.4092 28.6035 24.833ZM30.2295 24.833C30.2295 26.0283 30.4902 26.9248 31.0117 27.5225C31.5332 28.1143 32.1895 28.4102 32.9805 28.4102C33.7656 28.4102 34.4189 28.1113 34.9404 27.5137C35.4619 26.916 35.7227 26.0049 35.7227 24.7803C35.7227 23.626 35.459 22.7529 34.9316 22.1611C34.4102 21.5635 33.7598 21.2646 32.9805 21.2646C32.1895 21.2646 31.5332 21.5605 31.0117 22.1523C30.4902 22.7441 30.2295 23.6377 30.2295 24.833ZM39.2119 20.166H40.7939V27.2852L45.1797 20.166H46.8848V29.5H45.3027V22.4248L40.917 29.5H39.2119V20.166ZM44.7051 16.6328H45.7861C45.6982 17.3652 45.4287 17.9277 44.9775 18.3203C44.5322 18.7129 43.9375 18.9092 43.1934 18.9092C42.4434 18.9092 41.8428 18.7158 41.3916 18.3291C40.9463 17.9365 40.6797 17.3711 40.5918 16.6328H41.6729C41.7549 17.0312 41.916 17.3301 42.1562 17.5293C42.4023 17.7227 42.7305 17.8193 43.1406 17.8193C43.6152 17.8193 43.9727 17.7256 44.2129 17.5381C44.459 17.3447 44.623 17.043 44.7051 16.6328ZM48.4141 20.166H55.999V21.4756H52.9932V29.5H51.4199V21.4756H48.4141V20.166ZM57.5107 20.166H59.0928V27.2852L63.4785 20.166H65.1836V29.5H63.6016V22.4248L59.2158 29.5H57.5107V20.166Z" fill="white"/>
<path d="M115.3 20.4667C115.3 21.9824 114.071 23.2111 112.556 23.2111V24.4778C114.771 24.4778 116.567 22.6819 116.567 20.4667H115.3ZM112.556 23.2111C111.04 23.2111 109.811 21.9824 109.811 20.4667H108.545C108.545 22.6819 110.34 24.4778 112.556 24.4778V23.2111ZM109.811 20.4667C109.811 18.9509 111.04 17.7222 112.556 17.7222V16.4555C110.34 16.4555 108.545 18.2514 108.545 20.4667H109.811ZM112.556 17.7222C114.071 17.7222 115.3 18.9509 115.3 20.4667H116.567C116.567 18.2514 114.771 16.4555 112.556 16.4555V17.7222ZM110.022 27.0111H115.089V25.7444H110.022V27.0111ZM104.745 23C104.745 18.686 108.242 15.1889 112.556 15.1889V13.9222C107.542 13.9222 103.478 17.9865 103.478 23H104.745ZM112.556 15.1889C116.87 15.1889 120.367 18.686 120.367 23H121.634C121.634 17.9865 117.569 13.9222 112.556 13.9222V15.1889ZM120.367 23C120.367 25.2152 119.446 27.2142 117.963 28.6365L118.841 29.5504C120.561 27.8991 121.634 25.5742 121.634 23H120.367ZM117.963 28.6365C116.559 29.984 114.655 30.8111 112.556 30.8111V32.0778C114.995 32.0778 117.21 31.1151 118.841 29.5504L117.963 28.6365ZM115.089 27.0111C116.42 27.0111 117.531 27.9591 117.781 29.2169L119.023 28.97C118.658 27.1309 117.036 25.7444 115.089 25.7444V27.0111ZM112.556 30.8111C110.457 30.8111 108.552 29.984 107.148 28.6365L106.271 29.5504C107.901 31.1151 110.117 32.0778 112.556 32.0778V30.8111ZM107.148 28.6365C105.666 27.2142 104.745 25.2152 104.745 23H103.478C103.478 25.5742 104.55 27.8991 106.271 29.5504L107.148 28.6365ZM110.022 25.7444C108.076 25.7444 106.454 27.1309 106.088 28.97L107.331 29.2169C107.581 27.9591 108.692 27.0111 110.022 27.0111V25.7444Z" fill="white"/>
</svg>
