<svg width="181" height="44" viewBox="0 0 181 44" fill="none" xmlns="http://www.w3.org/2000/svg">
<rect y="0.5" width="180.934" height="43" rx="21.5" fill="#5D4BD0"/>
<path fill-rule="evenodd" clip-rule="evenodd" d="M44.7717 19.4747L45.6482 28.3499C46.0448 32.3258 46.1231 33.1241 42.1994 33.1241H31.6284C27.7095 33.1241 27.7875 32.332 28.1749 28.3961L28.1795 28.3499L29.0508 19.4747C29.4422 15.5145 29.4526 15.5145 33.1937 15.5145L35.3955 10.876H36.9139L34.712 15.5145H39.1209L36.9139 10.876H38.4218L40.6341 15.5145C44.3699 15.5145 44.3804 15.5145 44.7717 19.4747ZM42.168 29.0543H39.8618L39.2566 27.1133H34.5659L33.9606 29.0543H31.6544L34.6128 19.5842H36.9138L35.2703 24.8645H38.5574L36.9138 19.5842H39.22L42.168 29.0543Z" fill="white"/>
<path d="M94.8457 29.8684V16.8398H98.4355L101.67 26.7065L104.864 16.8398H108.453V29.8684H106.043V20.0905L102.917 29.8631H100.392L97.2667 20.0905V29.8631H94.8457V29.8684Z" fill="white"/>
<path d="M120.308 20.0903V29.863H118.164V28.5951C117.694 29.1273 117.203 29.5134 116.703 29.743C116.202 29.9778 115.607 30.0926 114.918 30.0926C113.979 30.0926 113.134 29.8735 112.382 29.4404C111.631 29.0073 111.047 28.4021 110.624 27.6299C110.201 26.8524 109.993 25.9811 109.993 25.0106C109.993 24.0297 110.207 23.1479 110.629 22.3652C111.052 21.5826 111.647 20.9669 112.403 20.5286C113.16 20.0851 114.015 19.866 114.97 19.866C115.675 19.866 116.285 19.986 116.797 20.2312C117.308 20.4764 117.762 20.8625 118.164 21.4V20.0903H120.308ZM115.179 22.0209C114.365 22.0209 113.692 22.3078 113.16 22.8818C112.628 23.4557 112.361 24.1862 112.361 25.068C112.361 25.9237 112.628 26.6176 113.165 27.1498C113.702 27.682 114.396 27.9481 115.252 27.9481C116.103 27.9481 116.786 27.6768 117.308 27.1394C117.83 26.602 118.085 25.8924 118.085 25.021C118.085 24.1392 117.814 23.4192 117.271 22.8609C116.734 22.2974 116.035 22.0209 115.179 22.0209Z" fill="white"/>
<path d="M122.009 29.8682V20.0903H124.153V21.0452C124.55 20.5182 124.988 20.2208 125.447 20.0695C126.047 19.866 127.096 19.866 127.096 19.866V22.1252H126.454C125.056 22.1617 124.352 22.9287 124.352 24.4314V29.863H122.009V29.8682Z" fill="white"/>
<path d="M128.625 29.8684V16.8398H130.968V24.7029L134.083 20.0957H136.89L133.404 24.8751L137.459 29.8684H134.297L130.963 25.3029V29.8684H128.625Z" fill="white"/>
<path d="M146.996 26.0281H139.425C139.566 26.6177 139.879 27.0873 140.365 27.4316C140.845 27.776 141.434 27.9482 142.128 27.9482C142.608 27.9482 143.01 27.8751 143.333 27.7291C143.657 27.583 143.97 27.3325 144.273 26.9777H146.829C146.694 27.4212 146.433 27.8752 146.052 28.3395C145.04 29.5187 143.751 30.1031 142.175 30.1031C141.439 30.1031 140.745 29.9727 140.093 29.7066C139.441 29.4404 138.878 29.0856 138.408 28.6369C137.938 28.1882 137.568 27.6456 137.291 27.0195C137.015 26.3933 136.879 25.7255 136.879 25.0263C136.879 24.0871 137.109 23.221 137.563 22.4279C138.017 21.64 138.643 21.0139 139.431 20.56C140.218 20.106 141.085 19.8765 142.029 19.8765C142.989 19.8765 143.85 20.1008 144.622 20.5548C145.389 21.0035 145.994 21.6296 146.427 22.4331C146.861 23.2314 147.08 24.1341 147.08 25.1307C147.085 25.4437 147.054 25.7463 146.996 26.0281ZM139.363 23.9567H144.779C144.627 23.3306 144.32 22.8505 143.855 22.5166C143.391 22.1827 142.796 22.0157 142.071 22.0157C141.372 22.0157 140.787 22.1827 140.328 22.5114C139.869 22.8453 139.545 23.3253 139.363 23.9567Z" fill="white"/>
<path d="M152.835 22.1252V20.0903H151.259V16.8345H148.916V20.0903H147.341V22.1252H148.916V27.7551C148.916 29.049 149.965 30.0978 151.259 30.0978H152.934V27.8438H151.723C151.468 27.8438 151.259 27.635 151.259 27.3794V22.1252H152.835Z" fill="white"/>
<path d="M63.2631 33.1241L65.0997 28.9499L61.5151 20.0903H64.1918L66.4406 26.2107L68.7312 20.0903H71.4287L65.7832 33.1241H63.2631Z" fill="white"/>
<path d="M81.6449 20.0903V29.863H79.5005V28.5951C79.0309 29.1273 78.5404 29.5134 78.0395 29.743C77.5386 29.9778 76.9438 30.0926 76.2551 30.0926C75.3159 30.0926 74.4706 29.8735 73.7193 29.4404C72.9679 29.0073 72.3836 28.4021 71.9609 27.6299C71.5383 26.8524 71.3296 25.9811 71.3296 25.0106C71.3296 24.0297 71.5435 23.1479 71.9661 22.3652C72.3888 21.5826 72.9836 20.9669 73.7402 20.5286C74.4967 20.0851 75.3524 19.866 76.3072 19.866C77.0116 19.866 77.6221 19.986 78.1334 20.2312C78.6448 20.4764 79.0987 20.8625 79.5005 21.4V20.0903H81.6449ZM76.516 22.0209C75.702 22.0209 75.0289 22.3078 74.4967 22.8818C73.9645 23.4557 73.6984 24.1862 73.6984 25.068C73.6984 25.9237 73.9645 26.6176 74.5019 27.1498C75.0394 27.682 75.7333 27.9481 76.589 27.9481C77.4395 27.9481 78.123 27.6768 78.6448 27.1394C79.1665 26.602 79.4222 25.8924 79.4222 25.021C79.4222 24.1392 79.1509 23.4192 78.6082 22.8609C78.0708 22.2974 77.3717 22.0209 76.516 22.0209Z" fill="white"/>
<path d="M83.4138 29.8682V20.0903H85.5739V21.0295C86.0018 20.6121 86.4296 20.3147 86.847 20.1321C87.2645 19.9547 87.7601 19.866 88.3289 19.866C89.7533 19.866 90.7916 20.3669 91.4438 21.3634C91.6786 21.7443 91.8456 22.1722 91.9395 22.647C92.0334 23.1218 92.0804 23.7844 92.0804 24.6297V29.863H89.7376V25.0836C89.7376 23.821 89.5707 22.9913 89.2367 22.5948C88.9185 22.2087 88.4645 22.0156 87.8697 22.0156C87.0662 22.0156 86.4818 22.3339 86.1218 22.9653C85.9809 23.1896 85.8818 23.4662 85.8296 23.8001C85.7774 24.134 85.7513 24.6193 85.7513 25.2558V29.863H83.4138V29.8682Z" fill="white"/>
<path d="M60.1795 29.8684H62.8405L57.7116 16.866H55.1079L50.0364 29.8684H52.713L53.5844 27.6144H59.303L60.1795 29.8684ZM54.4557 25.3551L56.428 19.9809L58.4212 25.3551H54.4557Z" fill="white"/>
</svg>
