<svg width="26" height="25" viewBox="0 0 26 25" fill="none" xmlns="http://www.w3.org/2000/svg">
<path d="M9.5457 3.65119H23.8635M9.5457 12.9375H23.9338M9.5457 22.226H23.9338M4.59052 12.9375H4.60616M4.59052 22.226H4.60616M5.37221 3.64904C5.37221 4.07652 5.02223 4.42308 4.59052 4.42308C4.15881 4.42308 3.80884 4.07652 3.80884 3.64904C3.80884 3.22155 4.15881 2.875 4.59052 2.875C5.02223 2.875 5.37221 3.22155 5.37221 3.64904ZM5.37221 12.9375C5.37221 13.3649 5.02223 13.7115 4.59052 13.7115C4.15881 13.7115 3.80884 13.3649 3.80884 12.9375C3.80884 12.5101 4.15881 12.1635 4.59052 12.1635C5.02223 12.1635 5.37221 12.5101 5.37221 12.9375ZM5.37221 22.226C5.37221 22.6534 5.02223 23 4.59052 23C4.15881 23 3.80884 22.6534 3.80884 22.226C3.80884 21.7985 4.15881 21.4519 4.59052 21.4519C5.02223 21.4519 5.37221 21.7985 5.37221 22.226Z" stroke="white" stroke-width="2.875" stroke-linecap="round" stroke-linejoin="round"/>
</svg>
