<svg width="25" height="25" viewBox="0 0 25 25" fill="none" xmlns="http://www.w3.org/2000/svg">
<path d="M8.61186 3.65119H22.9297M8.61186 12.9375H23M8.61186 22.226H23M3.65669 12.9375H3.67232M3.65669 22.226H3.67232M4.43837 3.64904C4.43837 4.07652 4.0884 4.42308 3.65669 4.42308C3.22498 4.42308 2.875 4.07652 2.875 3.64904C2.875 3.22155 3.22498 2.875 3.65669 2.875C4.0884 2.875 4.43837 3.22155 4.43837 3.64904ZM4.43837 12.9375C4.43837 13.3649 4.0884 13.7115 3.65669 13.7115C3.22498 13.7115 2.875 13.3649 2.875 12.9375C2.875 12.5101 3.22498 12.1635 3.65669 12.1635C4.0884 12.1635 4.43837 12.5101 4.43837 12.9375ZM4.43837 22.226C4.43837 22.6534 4.0884 23 3.65669 23C3.22498 23 2.875 22.6534 2.875 22.226C2.875 21.7985 3.22498 21.4519 3.65669 21.4519C4.0884 21.4519 4.43837 21.7985 4.43837 22.226Z" stroke="white" stroke-width="2.875" stroke-linecap="round" stroke-linejoin="round"/>
</svg>
