<svg width="181" height="44" viewBox="0 0 181 44" fill="none" xmlns="http://www.w3.org/2000/svg">
<rect y="0.5" width="180.934" height="43" rx="21.5" fill="#5D4BD0"/>
<path fill-rule="evenodd" clip-rule="evenodd" d="M44.7717 19.4747L45.6482 28.3499C46.0448 32.3258 46.1231 33.1241 42.1994 33.1241H31.6284C27.7095 33.1241 27.7875 32.332 28.1749 28.3961L28.1795 28.3499L29.0508 19.4747C29.4422 15.5145 29.4526 15.5145 33.1937 15.5145L35.3955 10.876H36.9139L34.712 15.5145H39.1209L36.9139 10.876H38.4218L40.6341 15.5145C44.3699 15.5145 44.3804 15.5145 44.7717 19.4747ZM42.168 29.0543H39.8618L39.2566 27.1133H34.5659L33.9606 29.0543H31.6544L34.6128 19.5842H36.9138L35.2703 24.8645H38.5574L36.9138 19.5842H39.22L42.168 29.0543Z" fill="white"/>
<path d="M94.8457 29.8685V16.84H98.4355L101.67 26.7066L104.864 16.84H108.453V29.8685H106.043V20.0906L102.917 29.8633H100.392L97.2667 20.0906V29.8633H94.8457V29.8685Z" fill="white"/>
<path d="M120.308 20.0906V29.8633H118.164V28.5954C117.694 29.1276 117.203 29.5137 116.703 29.7433C116.202 29.9781 115.607 30.0928 114.918 30.0928C113.979 30.0928 113.134 29.8737 112.382 29.4406C111.631 29.0076 111.047 28.4023 110.624 27.6301C110.201 26.8527 109.993 25.9813 109.993 25.0108C109.993 24.0299 110.207 23.1481 110.629 22.3655C111.052 21.5828 111.647 20.9671 112.403 20.5289C113.16 20.0854 114.015 19.8662 114.97 19.8662C115.675 19.8662 116.285 19.9862 116.797 20.2314C117.308 20.4767 117.762 20.8628 118.164 21.4002V20.0906H120.308ZM115.179 22.0211C114.365 22.0211 113.692 22.3081 113.16 22.882C112.628 23.456 112.361 24.1864 112.361 25.0682C112.361 25.9239 112.628 26.6179 113.165 27.1501C113.702 27.6823 114.396 27.9484 115.252 27.9484C116.103 27.9484 116.786 27.6771 117.308 27.1396C117.83 26.6022 118.085 25.8926 118.085 25.0213C118.085 24.1395 117.814 23.4194 117.271 22.8612C116.734 22.2976 116.035 22.0211 115.179 22.0211Z" fill="white"/>
<path d="M122.009 29.8685V20.0906H124.153V21.0454C124.55 20.5184 124.988 20.221 125.447 20.0697C126.047 19.8662 127.096 19.8662 127.096 19.8662V22.1255H126.454C125.056 22.162 124.352 22.929 124.352 24.4317V29.8633H122.009V29.8685Z" fill="white"/>
<path d="M128.625 29.8685V16.84H130.968V24.703L134.083 20.0958H136.89L133.404 24.8752L137.459 29.8685H134.297L130.963 25.303V29.8685H128.625Z" fill="white"/>
<path d="M146.996 26.0282H139.425C139.566 26.6178 139.879 27.0874 140.365 27.4318C140.845 27.7761 141.434 27.9483 142.128 27.9483C142.608 27.9483 143.01 27.8753 143.333 27.7292C143.657 27.5831 143.97 27.3326 144.273 26.9778H146.829C146.694 27.4213 146.433 27.8753 146.052 28.3396C145.04 29.5188 143.751 30.1032 142.175 30.1032C141.439 30.1032 140.745 29.9728 140.093 29.7067C139.441 29.4406 138.878 29.0858 138.408 28.6371C137.938 28.1883 137.568 27.6457 137.291 27.0196C137.015 26.3935 136.879 25.7256 136.879 25.0264C136.879 24.0872 137.109 23.2211 137.563 22.428C138.017 21.6402 138.643 21.014 139.431 20.5601C140.218 20.1062 141.085 19.8766 142.029 19.8766C142.989 19.8766 143.85 20.1009 144.622 20.5549C145.389 21.0036 145.994 21.6297 146.427 22.4332C146.861 23.2315 147.08 24.1342 147.08 25.1308C147.085 25.4438 147.054 25.7465 146.996 26.0282ZM139.363 23.9568H144.779C144.627 23.3307 144.32 22.8507 143.855 22.5167C143.391 22.1828 142.796 22.0158 142.071 22.0158C141.372 22.0158 140.787 22.1828 140.328 22.5115C139.869 22.8454 139.545 23.3255 139.363 23.9568Z" fill="white"/>
<path d="M152.835 22.1254V20.0905H151.259V16.8347H148.916V20.0905H147.341V22.1254H148.916V27.7553C148.916 29.0493 149.965 30.098 151.259 30.098H152.934V27.844H151.723C151.468 27.844 151.259 27.6353 151.259 27.3796V22.1254H152.835Z" fill="white"/>
<path d="M63.2631 33.1239L65.0997 28.9498L61.5151 20.0902H64.1918L66.4406 26.2105L68.7312 20.0902H71.4287L65.7832 33.1239H63.2631Z" fill="white"/>
<path d="M81.6449 20.0902V29.8629H79.5005V28.595C79.0309 29.1272 78.5404 29.5133 78.0395 29.7429C77.5386 29.9777 76.9438 30.0925 76.2551 30.0925C75.3159 30.0925 74.4706 29.8733 73.7193 29.4403C72.9679 29.0072 72.3836 28.4019 71.9609 27.6297C71.5383 26.8523 71.3296 25.981 71.3296 25.0105C71.3296 24.0295 71.5435 23.1478 71.9661 22.3651C72.3888 21.5825 72.9836 20.9668 73.7402 20.5285C74.4967 20.085 75.3524 19.8658 76.3072 19.8658C77.0116 19.8658 77.6221 19.9859 78.1334 20.2311C78.6448 20.4763 79.0987 20.8624 79.5005 21.3998V20.0902H81.6449ZM76.516 22.0207C75.702 22.0207 75.0289 22.3077 74.4967 22.8817C73.9645 23.4556 73.6984 24.1861 73.6984 25.0679C73.6984 25.9236 73.9645 26.6175 74.5019 27.1497C75.0394 27.6819 75.7333 27.948 76.589 27.948C77.4395 27.948 78.123 27.6767 78.6448 27.1393C79.1665 26.6019 79.4222 25.8923 79.4222 25.0209C79.4222 24.1391 79.1509 23.4191 78.6082 22.8608C78.0708 22.2973 77.3717 22.0207 76.516 22.0207Z" fill="white"/>
<path d="M83.4138 29.8681V20.0902H85.5739V21.0294C86.0018 20.612 86.4296 20.3146 86.847 20.1319C87.2645 19.9545 87.7601 19.8658 88.3289 19.8658C89.7533 19.8658 90.7916 20.3667 91.4438 21.3633C91.6786 21.7442 91.8456 22.1721 91.9395 22.6469C92.0334 23.1217 92.0804 23.7843 92.0804 24.6296V29.8629H89.7376V25.0835C89.7376 23.8208 89.5707 22.9912 89.2367 22.5947C88.9185 22.2086 88.4645 22.0155 87.8697 22.0155C87.0662 22.0155 86.4818 22.3338 86.1218 22.9651C85.9809 23.1895 85.8818 23.466 85.8296 23.8C85.7774 24.1339 85.7513 24.6191 85.7513 25.2557V29.8629H83.4138V29.8681Z" fill="white"/>
<path d="M60.1795 29.8683H62.8405L57.7116 16.8658H55.1079L50.0364 29.8683H52.713L53.5844 27.6142H59.303L60.1795 29.8683ZM54.4557 25.355L56.428 19.9808L58.4212 25.355H54.4557Z" fill="white"/>
</svg>
