<svg width="224" height="84" viewBox="0 0 224 84" fill="none" xmlns="http://www.w3.org/2000/svg">
<g filter="url(#filter0_d_1702_4760)">
<rect x="20" y="16" width="184" height="44" rx="20" fill="white" shape-rendering="crispEdges"/>
<path d="M33.25 32.0469H42.2578V43.5H40.7344V33.3984H34.7656V43.5H33.25V32.0469ZM44.0312 39.3516C44.0312 37.8151 44.4583 36.6771 45.3125 35.9375C46.026 35.3229 46.8958 35.0156 47.9219 35.0156C49.0625 35.0156 49.9948 35.3906 50.7188 36.1406C51.4427 36.8854 51.8047 37.9167 51.8047 39.2344C51.8047 40.3021 51.6432 41.1432 51.3203 41.7578C51.0026 42.3672 50.5365 42.8411 49.9219 43.1797C49.3125 43.5182 48.6458 43.6875 47.9219 43.6875C46.7604 43.6875 45.8203 43.3151 45.1016 42.5703C44.388 41.8255 44.0312 40.7526 44.0312 39.3516ZM45.4766 39.3516C45.4766 40.4141 45.7083 41.2109 46.1719 41.7422C46.6354 42.2682 47.2188 42.5312 47.9219 42.5312C48.6198 42.5312 49.2005 42.2656 49.6641 41.7344C50.1276 41.2031 50.3594 40.3932 50.3594 39.3047C50.3594 38.2786 50.125 37.5026 49.6562 36.9766C49.1927 36.4453 48.6146 36.1797 47.9219 36.1797C47.2188 36.1797 46.6354 36.4427 46.1719 36.9688C45.7083 37.4948 45.4766 38.2891 45.4766 39.3516ZM53.7891 35.2031H60.3203V43.5H58.9219V36.3672H55.1953V40.5C55.1953 41.4635 55.1641 42.099 55.1016 42.4062C55.0391 42.7135 54.8672 42.9818 54.5859 43.2109C54.3047 43.4401 53.8984 43.5547 53.3672 43.5547C53.0391 43.5547 52.6615 43.5339 52.2344 43.4922V42.3203H52.8516C53.1432 42.3203 53.3516 42.2917 53.4766 42.2344C53.6016 42.1719 53.6849 42.0755 53.7266 41.9453C53.7682 41.8151 53.7891 41.3906 53.7891 40.6719V35.2031ZM68.125 40.8281L69.5781 41.0078C69.349 41.8568 68.9245 42.5156 68.3047 42.9844C67.6849 43.4531 66.8932 43.6875 65.9297 43.6875C64.7161 43.6875 63.7526 43.3151 63.0391 42.5703C62.3307 41.8203 61.9766 40.7708 61.9766 39.4219C61.9766 38.026 62.3359 36.9427 63.0547 36.1719C63.7734 35.401 64.7057 35.0156 65.8516 35.0156C66.9609 35.0156 67.8672 35.3932 68.5703 36.1484C69.2734 36.9036 69.625 37.9661 69.625 39.3359C69.625 39.4193 69.6224 39.5443 69.6172 39.7109H63.4297C63.4818 40.6224 63.7396 41.3203 64.2031 41.8047C64.6667 42.2891 65.2448 42.5312 65.9375 42.5312C66.4531 42.5312 66.8932 42.3958 67.2578 42.125C67.6224 41.8542 67.9115 41.4219 68.125 40.8281ZM63.5078 38.5547H68.1406C68.0781 37.8568 67.901 37.3333 67.6094 36.9844C67.1615 36.4427 66.5807 36.1719 65.8672 36.1719C65.2214 36.1719 64.6771 36.388 64.2344 36.8203C63.7969 37.2526 63.5547 37.8307 63.5078 38.5547ZM72.8281 39.75V38.6484C73.4219 38.6432 73.8255 38.6198 74.0391 38.5781C74.2578 38.5365 74.4635 38.4115 74.6562 38.2031C74.849 37.9948 74.9453 37.7344 74.9453 37.4219C74.9453 37.0417 74.8177 36.7396 74.5625 36.5156C74.3125 36.2865 73.987 36.1719 73.5859 36.1719C72.7943 36.1719 72.2396 36.638 71.9219 37.5703L70.5859 37.3516C71.0026 35.7943 72.0078 35.0156 73.6016 35.0156C74.487 35.0156 75.1797 35.2578 75.6797 35.7422C76.1849 36.2266 76.4375 36.8047 76.4375 37.4766C76.4375 38.1536 76.1094 38.6927 75.4531 39.0938C75.8698 39.3177 76.1823 39.6042 76.3906 39.9531C76.599 40.2969 76.7031 40.7057 76.7031 41.1797C76.7031 41.9245 76.4323 42.5286 75.8906 42.9922C75.349 43.4557 74.5911 43.6875 73.6172 43.6875C71.7266 43.6875 70.6302 42.8464 70.3281 41.1641L71.6484 40.8828C71.7682 41.4141 72.0104 41.8255 72.375 42.1172C72.7448 42.4089 73.1667 42.5547 73.6406 42.5547C74.1146 42.5547 74.5078 42.4219 74.8203 42.1562C75.138 41.8854 75.2969 41.5417 75.2969 41.125C75.2969 40.8021 75.1979 40.5208 75 40.2812C74.8021 40.0417 74.5911 39.8932 74.3672 39.8359C74.1432 39.7734 73.737 39.7422 73.1484 39.7422C73.1016 39.7422 72.9948 39.7448 72.8281 39.75ZM78.3438 35.2031H79.75V38.6562H83.6484V35.2031H85.0547V43.5H83.6484V39.8203H79.75V43.5H78.3438V35.2031ZM95.0781 35.2031H96.4844V43.5H95.0781V35.2031ZM87.2109 35.2031H88.6172V38.4453H90.3984C91.5599 38.4453 92.4531 38.6719 93.0781 39.125C93.7083 39.5729 94.0234 40.1927 94.0234 40.9844C94.0234 41.6771 93.7604 42.2708 93.2344 42.7656C92.7135 43.2552 91.8776 43.5 90.7266 43.5H87.2109V35.2031ZM88.6172 42.3438H90.0938C90.9844 42.3438 91.6198 42.2344 92 42.0156C92.3802 41.7969 92.5703 41.4557 92.5703 40.9922C92.5703 40.6328 92.4297 40.3125 92.1484 40.0312C91.8672 39.75 91.2448 39.6094 90.2812 39.6094H88.6172V42.3438ZM104.359 40.8281L105.812 41.0078C105.583 41.8568 105.159 42.5156 104.539 42.9844C103.919 43.4531 103.128 43.6875 102.164 43.6875C100.951 43.6875 99.987 43.3151 99.2734 42.5703C98.5651 41.8203 98.2109 40.7708 98.2109 39.4219C98.2109 38.026 98.5703 36.9427 99.2891 36.1719C100.008 35.401 100.94 35.0156 102.086 35.0156C103.195 35.0156 104.102 35.3932 104.805 36.1484C105.508 36.9036 105.859 37.9661 105.859 39.3359C105.859 39.4193 105.857 39.5443 105.852 39.7109H99.6641C99.7161 40.6224 99.974 41.3203 100.438 41.8047C100.901 42.2891 101.479 42.5312 102.172 42.5312C102.688 42.5312 103.128 42.3958 103.492 42.125C103.857 41.8542 104.146 41.4219 104.359 40.8281ZM99.7422 38.5547H104.375C104.312 37.8568 104.135 37.3333 103.844 36.9844C103.396 36.4427 102.815 36.1719 102.102 36.1719C101.456 36.1719 100.911 36.388 100.469 36.8203C100.031 37.2526 99.7891 37.8307 99.7422 38.5547ZM117.453 40.4609L118.836 40.6406C118.685 41.5938 118.297 42.3411 117.672 42.8828C117.052 43.4193 116.289 43.6875 115.383 43.6875C114.247 43.6875 113.333 43.3177 112.641 42.5781C111.953 41.8333 111.609 40.7682 111.609 39.3828C111.609 38.487 111.758 37.7031 112.055 37.0312C112.352 36.3594 112.802 35.8568 113.406 35.5234C114.016 35.1849 114.677 35.0156 115.391 35.0156C116.292 35.0156 117.029 35.2448 117.602 35.7031C118.174 36.1562 118.542 36.8021 118.703 37.6406L117.336 37.8516C117.206 37.2943 116.974 36.875 116.641 36.5938C116.312 36.3125 115.914 36.1719 115.445 36.1719C114.737 36.1719 114.161 36.4271 113.719 36.9375C113.276 37.4427 113.055 38.2448 113.055 39.3438C113.055 40.4583 113.268 41.2682 113.695 41.7734C114.122 42.2786 114.68 42.5312 115.367 42.5312C115.919 42.5312 116.38 42.362 116.75 42.0234C117.12 41.6849 117.354 41.1641 117.453 40.4609ZM125.453 40.4609L126.836 40.6406C126.685 41.5938 126.297 42.3411 125.672 42.8828C125.052 43.4193 124.289 43.6875 123.383 43.6875C122.247 43.6875 121.333 43.3177 120.641 42.5781C119.953 41.8333 119.609 40.7682 119.609 39.3828C119.609 38.487 119.758 37.7031 120.055 37.0312C120.352 36.3594 120.802 35.8568 121.406 35.5234C122.016 35.1849 122.677 35.0156 123.391 35.0156C124.292 35.0156 125.029 35.2448 125.602 35.7031C126.174 36.1562 126.542 36.8021 126.703 37.6406L125.336 37.8516C125.206 37.2943 124.974 36.875 124.641 36.5938C124.312 36.3125 123.914 36.1719 123.445 36.1719C122.737 36.1719 122.161 36.4271 121.719 36.9375C121.276 37.4427 121.055 38.2448 121.055 39.3438C121.055 40.4583 121.268 41.2682 121.695 41.7734C122.122 42.2786 122.68 42.5312 123.367 42.5312C123.919 42.5312 124.38 42.362 124.75 42.0234C125.12 41.6849 125.354 41.1641 125.453 40.4609ZM135.938 35.2031H137.344V43.5H135.938V35.2031ZM128.07 35.2031H129.477V38.4453H131.258C132.419 38.4453 133.312 38.6719 133.938 39.125C134.568 39.5729 134.883 40.1927 134.883 40.9844C134.883 41.6771 134.62 42.2708 134.094 42.7656C133.573 43.2552 132.737 43.5 131.586 43.5H128.07V35.2031ZM129.477 42.3438H130.953C131.844 42.3438 132.479 42.2344 132.859 42.0156C133.24 41.7969 133.43 41.4557 133.43 40.9922C133.43 40.6328 133.289 40.3125 133.008 40.0312C132.727 39.75 132.104 39.6094 131.141 39.6094H129.477V42.3438ZM140.227 35.2031H146.758V43.5H145.359V36.3672H141.633V40.5C141.633 41.4635 141.602 42.099 141.539 42.4062C141.477 42.7135 141.305 42.9818 141.023 43.2109C140.742 43.4401 140.336 43.5547 139.805 43.5547C139.477 43.5547 139.099 43.5339 138.672 43.4922V42.3203H139.289C139.581 42.3203 139.789 42.2917 139.914 42.2344C140.039 42.1719 140.122 42.0755 140.164 41.9453C140.206 41.8151 140.227 41.3906 140.227 40.6719V35.2031ZM148.875 35.2031H150.281V38.7891C150.729 38.7891 151.042 38.7031 151.219 38.5312C151.401 38.3594 151.667 37.8594 152.016 37.0312C152.292 36.375 152.516 35.9427 152.688 35.7344C152.859 35.526 153.057 35.3854 153.281 35.3125C153.505 35.2396 153.865 35.2031 154.359 35.2031H154.641V36.3672L154.25 36.3594C153.88 36.3594 153.643 36.4141 153.539 36.5234C153.43 36.638 153.263 36.9792 153.039 37.5469C152.826 38.0885 152.63 38.4635 152.453 38.6719C152.276 38.8802 152.003 39.0703 151.633 39.2422C152.237 39.4036 152.831 39.9661 153.414 40.9297L154.953 43.5H153.406L151.906 40.9297C151.599 40.4141 151.331 40.0755 151.102 39.9141C150.872 39.7474 150.599 39.6641 150.281 39.6641V43.5H148.875V35.2031ZM155.883 35.2031H157.289V41.5312L161.188 35.2031H162.703V43.5H161.297V37.2109L157.398 43.5H155.883V35.2031Z" fill="#444444"/>
<rect x="172" y="28" width="20" height="20" rx="10" fill="#5D4BD0"/>
<path d="M181.062 33.6641V32.0469H182.469V33.6641H181.062ZM181.062 43.5V35.2031H182.469V43.5H181.062Z" fill="white"/>
</g>
<defs>
<filter id="filter0_d_1702_4760" x="0" y="0" width="224" height="84" filterUnits="userSpaceOnUse" color-interpolation-filters="sRGB">
<feFlood flood-opacity="0" result="BackgroundImageFix"/>
<feColorMatrix in="SourceAlpha" type="matrix" values="0 0 0 0 0 0 0 0 0 0 0 0 0 0 0 0 0 0 127 0" result="hardAlpha"/>
<feOffset dy="4"/>
<feGaussianBlur stdDeviation="10"/>
<feComposite in2="hardAlpha" operator="out"/>
<feColorMatrix type="matrix" values="0 0 0 0 0 0 0 0 0 0 0 0 0 0 0 0 0 0 0.25 0"/>
<feBlend mode="normal" in2="BackgroundImageFix" result="effect1_dropShadow_1702_4760"/>
<feBlend mode="normal" in="SourceGraphic" in2="effect1_dropShadow_1702_4760" result="shape"/>
</filter>
</defs>
</svg>
