<svg width="47" height="46" viewBox="0 0 47 46" fill="none" xmlns="http://www.w3.org/2000/svg">
<rect x="0.933838" width="46" height="46" rx="4" fill="#503CC3"/>
<path d="M20.5457 14.6512H34.8635M20.5457 23.9375H34.9338M20.5457 33.226H34.9338M15.5905 23.9375H15.6062M15.5905 33.226H15.6062M16.3722 14.649C16.3722 15.0765 16.0222 15.4231 15.5905 15.4231C15.1588 15.4231 14.8088 15.0765 14.8088 14.649C14.8088 14.2216 15.1588 13.875 15.5905 13.875C16.0222 13.875 16.3722 14.2216 16.3722 14.649ZM16.3722 23.9375C16.3722 24.3649 16.0222 24.7115 15.5905 24.7115C15.1588 24.7115 14.8088 24.3649 14.8088 23.9375C14.8088 23.5101 15.1588 23.1635 15.5905 23.1635C16.0222 23.1635 16.3722 23.5101 16.3722 23.9375ZM16.3722 33.226C16.3722 33.6534 16.0222 34 15.5905 34C15.1588 34 14.8088 33.6534 14.8088 33.226C14.8088 32.7985 15.1588 32.4519 15.5905 32.4519C16.0222 32.4519 16.3722 32.7985 16.3722 33.226Z" stroke="white" stroke-width="2.875" stroke-linecap="round" stroke-linejoin="round"/>
</svg>
