<svg width="125" height="24" viewBox="0 0 125 24" fill="none" xmlns="http://www.w3.org/2000/svg">
<path fill-rule="evenodd" clip-rule="evenodd" d="M16.7717 9.47469L17.6482 18.3499C18.0448 22.3258 18.1231 23.1241 14.1994 23.1241H3.62837C-0.290477 23.1241 -0.2125 22.332 0.174949 18.3961L0.179493 18.3499L1.05084 9.47469C1.44217 5.51448 1.4526 5.51448 5.19367 5.51448L7.39553 0.875977H8.91387L6.71201 5.51448H11.1209L8.91387 0.875977H10.4218L12.6341 5.51448C16.3699 5.51448 16.3804 5.51448 16.7717 9.47469ZM14.168 19.0543H11.8618L11.2566 17.1133H6.56588L5.96063 19.0543H3.65442L6.61284 9.58423H8.91383L7.27026 14.8645H10.5574L8.91383 9.58423H11.22L14.168 19.0543Z" fill="white"/>
<path d="M66.8457 19.8684V6.83984H70.4355L73.6704 16.7065L76.8636 6.83984H80.4534V19.8684H78.0428V10.0905L74.9174 19.8631H72.3921L69.2667 10.0905V19.8631H66.8457V19.8684Z" fill="white"/>
<path d="M92.308 10.0903V19.863H90.1635V18.5951C89.694 19.1273 89.2035 19.5134 88.7026 19.743C88.2017 19.9778 87.6069 20.0926 86.9182 20.0926C85.979 20.0926 85.1337 19.8735 84.3824 19.4404C83.631 19.0073 83.0466 18.4021 82.624 17.6299C82.2014 16.8524 81.9927 15.9811 81.9927 15.0106C81.9927 14.0297 82.2066 13.1479 82.6292 12.3652C83.0519 11.5826 83.6467 10.9669 84.4032 10.5286C85.1598 10.0851 86.0155 9.86597 86.9703 9.86597C87.6747 9.86597 88.2852 9.98597 88.7965 10.2312C89.3078 10.4764 89.7618 10.8625 90.1635 11.4V10.0903H92.308ZM87.179 12.0209C86.3651 12.0209 85.692 12.3078 85.1598 12.8818C84.6276 13.4557 84.3615 14.1862 84.3615 15.068C84.3615 15.9237 84.6276 16.6176 85.165 17.1498C85.7024 17.682 86.3964 17.9481 87.2521 17.9481C88.1026 17.9481 88.7861 17.6768 89.3078 17.1394C89.8296 16.602 90.0853 15.8924 90.0853 15.021C90.0853 14.1392 89.814 13.4192 89.2713 12.8609C88.7339 12.2974 88.0347 12.0209 87.179 12.0209Z" fill="white"/>
<path d="M94.0088 19.8682V10.0903H96.1532V11.0452C96.5498 10.5182 96.9881 10.2208 97.4472 10.0695C98.0473 9.86597 99.096 9.86597 99.096 9.86597V12.1252H98.4542C97.0559 12.1617 96.3515 12.9287 96.3515 14.4314V19.863H94.0088V19.8682Z" fill="white"/>
<path d="M100.625 19.8684V6.83984H102.968V14.7029L106.083 10.0957H108.89L105.404 14.8751L109.459 19.8684H106.297L102.963 15.3029V19.8684H100.625Z" fill="white"/>
<path d="M118.996 16.0281H111.425C111.566 16.6177 111.879 17.0873 112.365 17.4316C112.845 17.776 113.434 17.9482 114.128 17.9482C114.608 17.9482 115.01 17.8751 115.333 17.7291C115.657 17.583 115.97 17.3325 116.273 16.9777H118.829C118.694 17.4212 118.433 17.8752 118.052 18.3395C117.04 19.5187 115.751 20.1031 114.175 20.1031C113.439 20.1031 112.745 19.9727 112.093 19.7066C111.441 19.4404 110.878 19.0856 110.408 18.6369C109.938 18.1882 109.568 17.6456 109.291 17.0195C109.015 16.3933 108.879 15.7255 108.879 15.0263C108.879 14.0871 109.109 13.221 109.563 12.4279C110.017 11.64 110.643 11.0139 111.431 10.56C112.218 10.106 113.085 9.87646 114.029 9.87646C114.989 9.87646 115.85 10.1008 116.622 10.5548C117.389 11.0035 117.994 11.6296 118.427 12.4331C118.861 13.2314 119.08 14.1341 119.08 15.1307C119.085 15.4437 119.054 15.7463 118.996 16.0281ZM111.363 13.9567H116.779C116.627 13.3306 116.32 12.8505 115.855 12.5166C115.391 12.1827 114.796 12.0157 114.071 12.0157C113.372 12.0157 112.787 12.1827 112.328 12.5114C111.869 12.8453 111.545 13.3253 111.363 13.9567Z" fill="white"/>
<path d="M124.835 12.1252V10.0903H123.259V6.83447H120.916V10.0903H119.341V12.1252H120.916V17.7551C120.916 19.049 121.965 20.0978 123.259 20.0978H124.934V17.8438H123.723C123.468 17.8438 123.259 17.635 123.259 17.3794V12.1252H124.835Z" fill="white"/>
<path d="M35.2631 23.1241L37.0997 18.9499L33.5151 10.0903H36.1918L38.4406 16.2107L40.7312 10.0903H43.4287L37.7832 23.1241H35.2631Z" fill="white"/>
<path d="M53.6449 10.0903V19.863H51.5005V18.5951C51.0309 19.1273 50.5404 19.5134 50.0395 19.743C49.5386 19.9778 48.9438 20.0926 48.2551 20.0926C47.3159 20.0926 46.4706 19.8735 45.7193 19.4404C44.9679 19.0073 44.3836 18.4021 43.9609 17.6299C43.5383 16.8524 43.3296 15.9811 43.3296 15.0106C43.3296 14.0297 43.5435 13.1479 43.9661 12.3652C44.3888 11.5826 44.9836 10.9669 45.7402 10.5286C46.4967 10.0851 47.3524 9.86597 48.3072 9.86597C49.0116 9.86597 49.6221 9.98597 50.1334 10.2312C50.6448 10.4764 51.0987 10.8625 51.5005 11.4V10.0903H53.6449ZM48.516 12.0209C47.702 12.0209 47.0289 12.3078 46.4967 12.8818C45.9645 13.4557 45.6984 14.1862 45.6984 15.068C45.6984 15.9237 45.9645 16.6176 46.5019 17.1498C47.0394 17.682 47.7333 17.9481 48.589 17.9481C49.4395 17.9481 50.123 17.6768 50.6448 17.1394C51.1665 16.602 51.4222 15.8924 51.4222 15.021C51.4222 14.1392 51.1509 13.4192 50.6082 12.8609C50.0708 12.2974 49.3717 12.0209 48.516 12.0209Z" fill="white"/>
<path d="M55.4138 19.8682V10.0903H57.5739V11.0295C58.0018 10.6121 58.4296 10.3147 58.847 10.1321C59.2645 9.95467 59.7601 9.86597 60.3289 9.86597C61.7533 9.86597 62.7916 10.3669 63.4438 11.3634C63.6786 11.7443 63.8456 12.1722 63.9395 12.647C64.0334 13.1218 64.0804 13.7844 64.0804 14.6297V19.863H61.7376V15.0836C61.7376 13.821 61.5707 12.9913 61.2367 12.5948C60.9185 12.2087 60.4645 12.0156 59.8697 12.0156C59.0662 12.0156 58.4818 12.3339 58.1218 12.9653C57.9809 13.1896 57.8818 13.4662 57.8296 13.8001C57.7774 14.134 57.7513 14.6193 57.7513 15.2558V19.863H55.4138V19.8682Z" fill="white"/>
<path d="M32.1795 19.8684H34.8405L29.7116 6.86597H27.1079L22.0364 19.8684H24.713L25.5844 17.6144H31.303L32.1795 19.8684ZM26.4557 15.3551L28.428 9.98091L30.4212 15.3551H26.4557Z" fill="white"/>
</svg>
