<svg width="18" height="19" viewBox="0 0 18 19" fill="none" xmlns="http://www.w3.org/2000/svg">
<path d="M11.7109 7.44349L10.9733 7.31698C10.9555 7.42748 10.9613 7.54066 10.9901 7.64864C11.019 7.75662 11.0703 7.85682 11.1405 7.94227C11.2107 8.02772 11.2981 8.09637 11.3966 8.14345C11.4951 8.19052 11.6023 8.2149 11.7109 8.21487V7.44349ZM0.747503 7.44349V6.6721C0.549253 6.6721 0.359122 6.75338 0.218938 6.89804C0.0787544 7.0427 0 7.23891 0 7.44349H0.747503ZM2.74084 18.5H14.063V16.9572H2.74084V18.5ZM15.259 6.6721H11.7109V8.21487H15.259V6.6721ZM12.4484 7.57L13.2517 2.59714L11.7767 2.34309L10.9733 7.31698L12.4484 7.57ZM11.5315 0.501028H11.3182V2.0438H11.5305L11.5315 0.501028ZM8.20758 2.21864L5.70095 6.09922L6.9448 6.95495L9.45142 3.07437L8.20758 2.21864ZM4.66442 6.6721H0.747503V8.21487H4.66442V6.6721ZM0 7.44349V15.6716H1.49501V7.44349H0ZM16.751 16.227L17.947 10.0559L16.4819 9.7525L15.2859 15.9236L16.751 16.227ZM5.70095 6.09922C5.58723 6.27539 5.43312 6.41883 5.2523 6.51877C5.07148 6.61871 4.86954 6.67102 4.66442 6.67108V8.21384C5.58135 8.21384 6.4365 7.74176 6.9448 6.95495L5.70095 6.09922ZM13.2517 2.59714C13.2933 2.33936 13.2799 2.07431 13.2126 1.8224C13.1452 1.57049 13.0256 1.33673 12.8619 1.13736C12.6982 0.93799 12.4944 0.777795 12.2646 0.667907C12.0349 0.55802 11.7847 0.501074 11.5315 0.501028L11.5305 2.0438C11.5666 2.04389 11.6033 2.05209 11.636 2.06782C11.6688 2.08356 11.6978 2.10645 11.7211 2.13493C11.7445 2.1634 11.7615 2.19676 11.7711 2.23271C11.7807 2.26865 11.7826 2.30632 11.7767 2.34309L13.2517 2.59714ZM15.259 8.21384C16.0464 8.21384 16.6344 8.95643 16.4809 9.75147L17.947 10.0549C18.0264 9.6446 18.0165 9.22025 17.9181 8.81438C17.8198 8.40851 17.6354 8.03021 17.3783 7.70674C17.1212 7.38328 16.7977 7.1227 16.4313 6.94379C16.0648 6.76487 15.6644 6.67208 15.259 6.6721V8.21384ZM14.063 18.5C14.6966 18.5001 15.3107 18.2727 15.8007 17.8583C16.2908 17.4439 16.6266 16.8671 16.751 16.226L15.2859 15.9225C15.2294 16.2142 15.0767 16.4767 14.8537 16.6652C14.6307 16.8536 14.3513 16.9575 14.063 16.9572V18.5ZM11.3182 0.501028C10.7029 0.501075 10.0972 0.656843 9.5547 0.956475C9.01224 1.25611 8.54985 1.6893 8.20857 2.21762L9.45142 3.07437C9.65628 2.75723 9.93387 2.4962 10.2595 2.31641C10.5852 2.13662 10.9488 2.04366 11.3182 2.0438V0.501028ZM2.74084 16.9572C2.05314 16.9572 1.49501 16.3813 1.49501 15.6716H0C0 16.4217 0.288766 17.1411 0.802774 17.6716C1.31678 18.202 2.01393 18.5 2.74084 18.5V16.9572Z" fill="white"/>
<path d="M4.73413 7.44336V17.7285" stroke="white" stroke-width="1.5"/>
</svg>
