<svg width="32" height="32" viewBox="0 0 32 32" fill="none" xmlns="http://www.w3.org/2000/svg">
<path fill-rule="evenodd" clip-rule="evenodd" d="M2.34315 29.6568C4.68629 32 8.45752 32 16 32C23.5424 32 27.3138 32 29.6568 29.6568C32 27.3138 32 23.5424 32 16C32 8.45752 32 4.68629 29.6568 2.34315C27.3138 -2.38419e-07 23.5424 0 16 0C8.45752 0 4.68629 -2.38419e-07 2.34315 2.34315C-2.38419e-07 4.68629 0 8.45752 0 16C0 23.5424 -2.38419e-07 27.3138 2.34315 29.6568ZM23.8957 9.91357L18.2763 24.5789C17.7672 25.9075 15.904 25.9507 15.5067 24.643L13.8163 19.0798C13.6848 18.6472 13.3528 18.3152 12.9202 18.1837L7.35696 16.4933C6.04926 16.096 6.09246 14.2328 7.42118 13.7237L22.0864 8.10434C23.2622 7.65378 24.3462 8.73771 23.8957 9.91357Z" fill="#503CC3"/>
</svg>
