<svg width="12" height="20" viewBox="0 0 12 20" fill="none" xmlns="http://www.w3.org/2000/svg">
<path d="M10.6663 18.8554C10.9137 18.5942 11.0527 18.24 11.0527 17.8707C11.0527 17.5014 10.9137 17.1472 10.6663 16.886L4.13323 9.99162L10.6663 3.09726C10.9067 2.83458 11.0398 2.48275 11.0368 2.11757C11.0337 1.75238 10.8949 1.40305 10.6502 1.14481C10.4055 0.886574 10.0745 0.740096 9.72845 0.736923C9.3824 0.733749 9.04901 0.874135 8.80009 1.12785L1.3339 9.00691C1.08647 9.2681 0.947473 9.6223 0.947473 9.99162C0.947473 10.3609 1.08647 10.7151 1.3339 10.9763L8.80009 18.8554C9.04759 19.1165 9.38323 19.2632 9.7332 19.2632C10.0832 19.2632 10.4188 19.1165 10.6663 18.8554Z" fill="white"/>
</svg>
