<svg width="12" height="20" viewBox="0 0 12 20" fill="none" xmlns="http://www.w3.org/2000/svg">
<path d="M1.33369 1.14461C1.08626 1.4058 0.947266 1.76 0.947266 2.12932C0.947266 2.49864 1.08626 2.85284 1.33369 3.11403L7.86678 10.0084L1.33369 16.9027C1.09327 17.1654 0.960244 17.5172 0.963251 17.8824C0.966259 18.2476 1.10506 18.597 1.34977 18.8552C1.59447 19.1134 1.9255 19.2599 2.27155 19.2631C2.6176 19.2663 2.95099 19.1259 3.19991 18.8722L10.6661 10.9931C10.9135 10.7319 11.0525 10.3777 11.0525 10.0084C11.0525 9.63906 10.9135 9.28486 10.6661 9.02367L3.19991 1.14461C2.95241 0.8835 2.61677 0.736816 2.2668 0.736816C1.91683 0.736816 1.58119 0.8835 1.33369 1.14461Z" fill="white"/>
</svg>
