<svg width="19" height="20" viewBox="0 0 19 20" fill="none" xmlns="http://www.w3.org/2000/svg">
<path d="M12.3002 7.46678C12.3002 8.98249 11.0715 10.2112 9.55577 10.2112V11.4779C11.771 11.4779 13.5669 9.68205 13.5669 7.46678H12.3002ZM9.55577 10.2112C8.04006 10.2112 6.81133 8.98249 6.81133 7.46678H5.54466C5.54466 9.68205 7.3405 11.4779 9.55577 11.4779V10.2112ZM6.81133 7.46678C6.81133 5.95106 8.04006 4.72233 9.55577 4.72233V3.45566C7.3405 3.45566 5.54466 5.2515 5.54466 7.46678H6.81133ZM9.55577 4.72233C11.0715 4.72233 12.3002 5.95106 12.3002 7.46678H13.5669C13.5669 5.2515 11.771 3.45566 9.55577 3.45566V4.72233ZM7.02244 14.0112H12.0891V12.7446H7.02244V14.0112ZM1.74466 10.0001C1.74466 5.68615 5.24182 2.189 9.55577 2.189V0.922331C4.54225 0.922331 0.477995 4.98659 0.477995 10.0001H1.74466ZM9.55577 2.189C13.8697 2.189 17.3669 5.68615 17.3669 10.0001H18.6336C18.6336 4.98659 14.5693 0.922331 9.55577 0.922331V2.189ZM17.3669 10.0001C17.3669 12.2153 16.4456 14.2143 14.9635 15.6366L15.8405 16.5505C17.5612 14.8992 18.6336 12.5744 18.6336 10.0001H17.3669ZM14.9635 15.6366C13.5594 16.9841 11.6549 17.8112 9.55577 17.8112V19.0779C11.9947 19.0779 14.2101 18.1152 15.8405 16.5505L14.9635 15.6366ZM12.0891 14.0112C13.42 14.0112 14.5309 14.9592 14.7808 16.217L16.0232 15.9701C15.6577 14.131 14.036 12.7446 12.0891 12.7446V14.0112ZM9.55577 17.8112C7.45669 17.8112 5.55213 16.9841 4.14805 15.6366L3.271 16.5505C4.90147 18.1152 7.11687 19.0779 9.55577 19.0779V17.8112ZM4.14805 15.6366C2.66598 14.2143 1.74466 12.2153 1.74466 10.0001H0.477995C0.477995 12.5744 1.55035 14.8992 3.271 16.5505L4.14805 15.6366ZM7.02244 12.7446C5.07553 12.7446 3.45385 14.131 3.08834 15.9701L4.33071 16.217C4.58069 14.9592 5.69156 14.0112 7.02244 14.0112V12.7446Z" fill="white"/>
</svg>
