<svg width="11" height="6" viewBox="0 0 11 6" fill="none" xmlns="http://www.w3.org/2000/svg">
<path d="M10.7579 0.229439C10.6028 0.0825295 10.3925 -2.65553e-08 10.1732 -3.61405e-08C9.95392 -4.57257e-08 9.74361 0.0825295 9.58853 0.229439L5.49501 4.10846L1.40148 0.229439C1.24551 0.0866926 1.03662 0.00770567 0.819788 0.00949112C0.602958 0.0112766 0.395542 0.0936914 0.242214 0.238985C0.0888862 0.384278 0.00191591 0.580825 3.14369e-05 0.786293C-0.00185303 0.991761 0.0815019 1.18971 0.232141 1.33751L4.91034 5.77056C5.06542 5.91747 5.27572 6 5.49501 6C5.71429 6 5.9246 5.91747 6.07968 5.77056L10.7579 1.33751C10.9129 1.19055 11 0.991266 11 0.783473C11 0.57568 10.9129 0.376394 10.7579 0.229439Z" fill="#5D4BD0"/>
</svg>
