<svg width="28" height="28" viewBox="0 0 28 28" fill="none" xmlns="http://www.w3.org/2000/svg">
<path d="M2.01066 17.2605C0.990656 12.4174 0.480652 9.99595 1.75918 8.3869C3.0377 6.77783 5.47176 6.77783 10.3399 6.77783H17.6601C22.5283 6.77783 24.9623 6.77783 26.2409 8.3869C27.5193 9.99595 27.0094 12.4174 25.9893 17.2605L25.3809 20.1493C24.6895 23.4318 24.3438 25.0732 23.1724 26.0366C22.001 27.0001 20.3513 27.0001 17.0516 27.0001H10.9483C7.6487 27.0001 5.9989 27.0001 4.82753 26.0366C3.65617 25.0732 3.31048 23.4318 2.61913 20.1493L2.01066 17.2605Z" stroke="white" stroke-width="2"/>
<path d="M8.32129 14H19.679" stroke="white" stroke-width="2" stroke-linecap="round" stroke-linejoin="round"/>
<path d="M11.1606 18.3335H16.8395" stroke="white" stroke-width="2" stroke-linecap="round" stroke-linejoin="round"/>
<path d="M22.5184 9.66667L18.2593 1" stroke="white" stroke-width="2" stroke-linecap="round" stroke-linejoin="round"/>
<path d="M5.48145 9.66667L9.74059 1" stroke="white" stroke-width="2" stroke-linecap="round" stroke-linejoin="round"/>
</svg>
