<svg width="26" height="27" viewBox="0 0 26 27" fill="none" xmlns="http://www.w3.org/2000/svg">
<path fill-rule="evenodd" clip-rule="evenodd" d="M13.9153 1C13.9153 0.447715 13.4675 0 12.9153 0C12.363 0 11.9153 0.447715 11.9153 1V3.757C7.66572 4.05822 4.16139 7.3073 3.59055 11.5883L2.0282 23.3052C1.77599 25.1967 3.24747 26.8774 5.1557 26.8774H6.13985C6.69213 26.8774 7.13985 26.4297 7.13985 25.8774C7.13985 25.3251 6.69213 24.8774 6.13985 24.8774H5.1557C4.45706 24.8774 3.91832 24.2621 4.01066 23.5696L5.573 11.8527C6.04005 8.35003 9.02787 5.73416 12.5615 5.73416C16.0951 5.73416 19.083 8.35003 19.55 11.8527L21.1124 23.5696C21.2047 24.2621 20.666 24.8774 19.9673 24.8774H15.3344C14.7821 24.8774 14.3344 25.3251 14.3344 25.8774C14.3344 26.4297 14.7821 26.8774 15.3344 26.8774H19.9673C21.8755 26.8774 23.347 25.1967 23.0948 23.3052L21.5325 11.5883C20.9936 7.54736 17.8411 4.42586 13.9153 3.83514V1Z" fill="white"/>
</svg>
